<svg viewBox="0 0 18 19" xmlns="http://www.w3.org/2000/svg">
<path d="M9 0.5C4.03754 0.5 0 4.53754 0 9.5C0 14.4625 4.03754 18.5 9 18.5C13.9625 18.5 18 14.4625 18 9.5C18 4.53754 13.9625 0.5 9 0.5ZM12.2585 11.78C12.3265 11.8434 12.381 11.9198 12.4189 12.0047C12.4567 12.0897 12.4771 12.1813 12.4787 12.2743C12.4803 12.3672 12.4632 12.4596 12.4284 12.5458C12.3936 12.632 12.3418 12.7103 12.276 12.776C12.2103 12.8418 12.132 12.8936 12.0458 12.9284C11.9596 12.9632 11.8672 12.9803 11.7743 12.9787C11.6813 12.9771 11.5897 12.9567 11.5047 12.9189C11.4198 12.881 11.3434 12.8265 11.28 12.7585L9 10.4785L6.72 12.7585C6.58876 12.8808 6.41518 12.9473 6.23583 12.9442C6.05647 12.941 5.88535 12.8683 5.7585 12.7415C5.63166 12.6147 5.559 12.4435 5.55584 12.2642C5.55267 12.0848 5.61925 11.9112 5.74154 11.78L8.02154 9.5L5.74154 7.22C5.61925 7.08876 5.55267 6.91518 5.55584 6.73583C5.559 6.55647 5.63166 6.38535 5.7585 6.2585C5.88535 6.13166 6.05647 6.059 6.23583 6.05584C6.41518 6.05267 6.58876 6.11925 6.72 6.24154L9 8.52154L11.28 6.24154C11.4112 6.11925 11.5848 6.05267 11.7642 6.05584C11.9435 6.059 12.1147 6.13166 12.2415 6.2585C12.3683 6.38535 12.441 6.55647 12.4442 6.73583C12.4473 6.91518 12.3808 7.08876 12.2585 7.22L9.97846 9.5L12.2585 11.78Z" />
</svg>
