<svg viewBox="0 0 18 19" xmlns="http://www.w3.org/2000/svg">
<path d="M12.5491 13.7473V18H15.3842C16.5585 18 17.5105 17.048 17.5105 15.8736V9.40893C17.5107 9.04071 17.3676 8.68688 17.1115 8.42232L11.0884 1.9108C10.0256 0.760929 8.23192 0.690328 7.08205 1.75309C7.02743 1.80359 6.9748 1.85618 6.92434 1.9108L0.911808 8.42019C0.647945 8.68585 0.4999 9.04513 0.5 9.41956V15.8736C0.5 17.048 1.45199 18 2.62632 18H5.4614V13.7473C5.47465 11.8146 7.03507 10.2364 8.91909 10.1909C10.8661 10.1439 12.5343 11.7491 12.5491 13.7473Z" />
<path d="M9.00535 11.6211C7.83102 11.6211 6.87903 12.5731 6.87903 13.7474V18H11.1317V13.7474C11.1317 12.5731 10.1797 11.6211 9.00535 11.6211Z" />
</svg>
