<svg viewBox="0 0 18 19" xmlns="http://www.w3.org/2000/svg">
<path d="M9 0.5C4.02943 0.5 0 4.52943 0 9.5C0 14.4706 4.02943 18.5 9 18.5C13.9706 18.5 18 14.4706 18 9.5C17.9946 4.53165 13.9684 0.505379 9 0.5ZM9 2.75C10.4007 2.75014 11.7663 3.18864 12.9053 4.00399L3.50399 13.4045C1.34177 10.3748 2.04504 6.16592 5.07473 4.00371C6.2202 3.18625 7.59277 2.74786 9 2.75ZM9 16.25C7.59948 16.2499 6.23415 15.8114 5.09551 14.996L14.496 5.59477C16.6586 8.62419 15.9559 12.8331 12.9265 14.9958C11.7808 15.8136 10.4077 16.2522 9 16.25Z" />
</svg>
