<svg viewBox="0 0 10 10" xmlns="http://www.w3.org/2000/svg">
<g clip-path="url(#clip0_35_5088)">
<path d="M5.38161 2.22055V1.43653H5.76339C5.97423 1.43653 6.14517 1.26559 6.14517 1.05475C6.14517 0.843911 5.97423 0.672974 5.76339 0.672974H4.23628C4.02543 0.672974 3.8545 0.843911 3.8545 1.05475C3.8545 1.26559 4.02543 1.43653 4.23628 1.43653H4.61803V2.22055C2.83207 2.41167 1.43652 3.92751 1.43652 5.76334C1.43652 7.72816 3.03502 9.32668 4.99983 9.32668C6.9646 9.32662 8.56314 7.72816 8.56316 5.76337C8.56314 3.92753 7.16755 2.41165 5.38161 2.22055ZM6.65374 6.14675H4.99983C4.78899 6.14675 4.61805 5.9758 4.61805 5.76498V4.11109C4.61805 3.90025 4.78899 3.72931 4.99983 3.72931C5.21067 3.72931 5.38161 3.90025 5.38161 4.11109V5.38318H6.65374C6.86458 5.38318 7.03552 5.5541 7.03552 5.76496C7.03552 5.9758 6.86458 6.14675 6.65374 6.14675Z" />
<path d="M9.99277 4.77067C9.72754 3.43706 8.95887 2.28659 7.82832 1.53117C7.65298 1.41403 7.41591 1.46121 7.29876 1.63653C7.18162 1.81186 7.22876 2.04893 7.40408 2.16608C8.36506 2.80819 9.01844 3.78606 9.24389 4.91964C9.28004 5.10132 9.43951 5.227 9.61793 5.227C9.64262 5.227 9.66766 5.22458 9.69279 5.2196C9.89961 5.17847 10.0339 4.97747 9.99277 4.77067Z" />
<path d="M2.70144 1.63651C2.58429 1.46118 2.34722 1.41405 2.17189 1.53116C1.04136 2.28657 0.272663 3.43704 0.0074083 4.77066C-0.0337246 4.97746 0.100573 5.17844 0.307389 5.21959C0.332507 5.22457 0.357585 5.22699 0.382253 5.22699C0.560691 5.22699 0.720164 5.10129 0.756297 4.91963C0.981785 3.78603 1.63517 2.80814 2.59612 2.16607C2.77144 2.04892 2.81859 1.81185 2.70144 1.63651Z" />
</g>
<defs>
<clipPath id="clip0_35_5088">
<rect width="10" height="10" fill="white"/>
</clipPath>
</defs>
</svg>
