<svg viewBox="0 0 28 28" xmlns="http://www.w3.org/2000/svg"><path d="m20.0096751 27.588398c-.262325-.2626745-.40985-.6187988-.40985-.990323 0-.3713493.147525-.7276486.40985-.9903231l3.210025-3.2121187h-16.21913987c-.37128 0-.72735249-.1475247-.98988749-.4101992-.2625175-.2626745-.4100075-.6189738-.4100075-.990498 0-.3715243.14749-.7278236.4100075-.9904981.262535-.2628495.61860749-.4103742.98988749-.4103742h16.21913987l-3.210025-3.2120312c-.254975-.264197-.396025-.6180288-.392875-.9853181.00315-.3672892.1505-.7186361.410025-.978353.259525-.259717.610575-.4070317.977725-.410287.366975-.0031322.72065.1380575.98455.3932245l5.5996499 5.603139c.130375.1301997.2338.2847244.304325.4549991.070525.1700997.106925.3526243.106925.5368989 0 .1842747-.0364.3666243-.106925.536899-.070525.1700997-.17395.3246244-.304325.4548241l-5.5996499 5.603139c-.26285.2623245-.618975.4093242-.99015.4088006-.37135-.0005264-.727125-.1485761-.989275-.4116006zm-12.01940238-15.9887036-3.20993747-3.21204871 16.21913985.0000175c.371175 0 .7273-.14759471.9898-.4102867.2625-.26270948.410025-.61900878.410025-.99051555 0-.37152427-.147525-.72782357-.410025-.99053306-.2625-.26269198-.618625-.41028669-.9898-.41028669h-16.21913985l3.20993747-3.2120312c.25501-.26419698.39611249-.61804629.39290999-.98532857-.003185-.36728578-.15041249-.71862384-.40995499-.97834433-.25956-.25972031-.61066249-.40704127-.97770749-.41028586-.367045-.00313868-.72066749.1380543-.98468999.39322165l-5.59955894 5.6032125c-.13036625.13012975-.23379825.28470694-.30437137.45487661-.07057225.17018717-.10689993.35264181-.10689993.53688145 0 .18425713.03632751.36671178.10689993.53689894.07057312.17016967.17400512.32476437.30437137.45487661l5.59955894 5.60320901c.2640225.255167.61764499.3963567.98468999.3932245.367045-.0032378.71814749-.15057.97770749-.410287.2595425-.259717.40676999-.6110638.40995499-.9783356.0032025-.3672892-.13789999-.7211385-.39290999-.9853355z" /></svg>