<svg viewBox="0 0 20 20" xmlns="http://www.w3.org/2000/svg">
<path d="M5.34487 7.50391H14.6549C14.8197 7.50394 14.9807 7.55283 15.1178 7.6444C15.2548 7.73597 15.3615 7.86611 15.4246 8.01836C15.4877 8.17061 15.5042 8.33814 15.472 8.49977C15.4399 8.66139 15.3605 8.80986 15.244 8.92641L10.589 13.5814C10.4328 13.7376 10.2208 13.8254 9.99987 13.8254C9.7789 13.8254 9.56698 13.7376 9.41071 13.5814L4.75571 8.92641C4.6392 8.80986 4.55986 8.66139 4.52772 8.49977C4.49558 8.33814 4.51208 8.17061 4.57514 8.01836C4.6382 7.86611 4.74498 7.73597 4.88199 7.6444C5.019 7.55283 5.18008 7.50394 5.34487 7.50391Z" />
</svg>
