<svg viewBox="0 0 30 30" xmlns="http://www.w3.org/2000/svg">
<path d="M28.7652 8.95673C28.6346 8.95673 28.5006 8.97535 28.3668 9.01234L26.8528 9.42941L25.2807 5.59973C24.8354 4.5147 23.5188 3.63208 22.346 3.63208H7.63284C6.45993 3.63208 5.1434 4.5147 4.69814 5.59973L3.12806 9.42418L1.63309 9.01234C1.49943 8.97548 1.36525 8.95673 1.23477 8.95673C0.519366 8.95673 0 9.50326 0 10.2564V11.1491C0 12.0283 0.715148 12.7434 1.59432 12.7434H1.76549L1.5118 13.3615C1.09804 14.3696 0.761447 16.0761 0.761447 17.1657V24.7739C0.761447 25.6531 1.47672 26.3682 2.35577 26.3682H4.43808C5.31725 26.3682 6.0324 25.6531 6.0324 24.7739V22.8739H23.9467V24.7739C23.9467 25.6531 24.6618 26.3682 25.541 26.3682H27.6232C28.5024 26.3682 29.2175 25.6531 29.2175 24.7739V17.1657C29.2175 16.0762 28.8809 14.3696 28.467 13.3615L28.2133 12.7434H28.4057C29.2847 12.7434 30 12.0283 30 11.1491V10.2564C30 9.50326 29.4808 8.95673 28.7652 8.95673ZM4.27137 11.8774L6.64946 6.08465C6.9159 5.4357 7.70784 4.90473 8.40934 4.90473H21.5697C22.2712 4.90473 23.0632 5.4357 23.3295 6.08465L25.7076 11.8774C25.974 12.5263 25.618 13.0573 24.9165 13.0573H5.06254C4.36104 13.0573 4.00506 12.5263 4.27137 11.8774ZM9.5802 19.2044C9.5802 19.5551 9.29323 19.8421 8.94248 19.8421H4.42481C4.07406 19.8421 3.78708 19.5551 3.78708 19.2044V17.0362C3.78708 16.6855 4.07406 16.3985 4.42481 16.3985H8.94248C9.29323 16.3985 9.5802 16.6855 9.5802 17.0362V19.2044ZM26.1491 19.2044C26.1491 19.5551 25.8622 19.8421 25.5114 19.8421H20.9939C20.6431 19.8421 20.3561 19.5551 20.3561 19.2044V17.0362C20.3561 16.6855 20.6431 16.3985 20.9939 16.3985H25.5114C25.8622 16.3985 26.1491 16.6855 26.1491 17.0362V19.2044Z" />
</svg>
