<svg viewBox="0 0 12 12" xmlns="http://www.w3.org/2000/svg">
<path d="M9.70738 1.57514C9.58949 1.25351 9.37621 0.975815 9.09625 0.77943C8.81629 0.583046 8.48308 0.477392 8.14146 0.476685H3.28515C2.9467 0.47642 2.61622 0.579748 2.33786 0.772869C2.0595 0.965989 1.8465 1.23971 1.72732 1.55747L0.699406 4.15411C0.235985 5.42928 -0.000740588 6.77613 1.74044e-06 8.13338C1.74044e-06 8.91623 0.645475 9.55086 1.42833 9.55086V10.0314C1.42833 10.5573 1.85465 10.9836 2.38055 10.9836C2.90644 10.9836 3.33276 10.5573 3.33276 10.0314V9.55086H8.09385V10.0314C8.09385 10.5573 8.52017 10.9836 9.04607 10.9836C9.57196 10.9836 9.99829 10.5573 9.99829 10.0314V9.55086C10.7811 9.55086 11.4266 8.91623 11.4266 8.13338C11.4269 6.76886 11.1877 5.41494 10.7201 4.13358L9.70738 1.57514ZM8.09385 7.40171C8.09385 7.21172 8.16909 7.0295 8.30303 6.89515C8.43696 6.76081 8.61861 6.68533 8.80801 6.68533C8.99742 6.68533 9.17907 6.76081 9.313 6.89515C9.44694 7.0295 9.52218 7.21172 9.52218 7.40171C9.52218 7.59171 9.44694 7.77392 9.313 7.90827C9.17907 8.04262 8.99742 8.11809 8.80801 8.11809C8.61861 8.11809 8.43696 8.04262 8.30303 7.90827C8.16909 7.77392 8.09385 7.59171 8.09385 7.40171ZM2.03346 4.66274L3.06233 2.06658C3.07899 2.02067 3.10928 1.98099 3.14913 1.95289C3.18897 1.92479 3.23645 1.90963 3.28515 1.90945H8.14146C8.1936 1.91075 8.244 1.92854 8.28546 1.96027C8.32693 1.992 8.35735 2.03606 8.37237 2.08616L9.38553 4.64316C9.49488 4.94499 9.26039 5.25257 8.93937 5.25257H2.46524C2.15588 5.25257 1.92843 4.95373 2.03346 4.66274ZM2.6186 8.11809C2.42919 8.11809 2.24754 8.04262 2.11361 7.90827C1.97968 7.77392 1.90444 7.59171 1.90444 7.40171C1.90444 7.21172 1.97968 7.0295 2.11361 6.89515C2.24754 6.76081 2.42919 6.68533 2.6186 6.68533C2.80801 6.68533 2.98966 6.76081 3.12359 6.89515C3.25752 7.0295 3.33276 7.21172 3.33276 7.40171C3.33276 7.59171 3.25752 7.77392 3.12359 7.90827C2.98966 8.04262 2.80801 8.11809 2.6186 8.11809Z" />
</svg>
