<svg viewBox="0 0 18 18" xmlns="http://www.w3.org/2000/svg"><path d="m11.1195 3.75667c-.0811-.08168-.1777-.14642-.284-.19049-.1063-.04406-.2204-.06655-.3355-.06618h-1.75v-.4375c0-.81223-.32266-1.59118-.89699-2.16551s-1.35328-.89699-2.16551-.89699-1.59118.32266-2.16551.89699-.89699 1.35328-.89699 2.16551v.4375h-1.75c-.23206 0-.45462.09219-.61872.25628-.16409.1641-.25628.38666-.25628.61872v5.9062c0 1.0664.90242 1.9688 1.96875 1.9688h7.43755c.5156 0 1.0114-.2018 1.3801-.5618.1858-.1771.3337-.3901.4349-.626.1011-.2359.1534-.4898.1537053-.7465v-5.9407c.0003947-.11484-.0220053-.22862-.0658053-.33475-.0439-.10614-.1084-.20253-.1897-.28358zm-7.6195-.69417c0-.58016.23047-1.13656.6407-1.5468.41024-.41023.96664-.6407 1.5468-.6407s1.13656.23047 1.5468.6407c.41023.41024.6407.96664.6407 1.5468v.4375h-4.375z" transform="translate(3 3)"/></svg>