<svg viewBox="0 0 17 18"  xmlns="http://www.w3.org/2000/svg">
<path d="M8.5 0.5C6.81886 0.5 5.17547 0.998516 3.77766 1.93251C2.37984 2.8665 1.29037 4.19402 0.647028 5.74719C0.00368293 7.30036 -0.164645 9.00943 0.163329 10.6583C0.491303 12.3071 1.30085 13.8217 2.4896 15.0104C3.67834 16.1992 5.1929 17.0087 6.84174 17.3367C8.49057 17.6646 10.1996 17.4963 11.7528 16.853C13.306 16.2096 14.6335 15.1202 15.5675 13.7223C16.5015 12.3245 17 10.6811 17 9C16.9976 6.74641 16.1013 4.58582 14.5077 2.99228C12.9142 1.39875 10.7536 0.502437 8.5 0.5ZM8.5 2.625C9.82291 2.62515 11.1126 3.03928 12.1883 3.80933L3.30934 12.6876C2.62962 11.7352 2.22559 10.6138 2.14165 9.4467C2.05771 8.27962 2.2971 7.11197 2.83352 6.07207C3.36994 5.03217 4.18263 4.16026 5.18229 3.55214C6.18195 2.94402 7.3299 2.62322 8.5 2.625ZM8.5 15.375C7.1773 15.3749 5.8878 14.9608 4.81242 14.1907L13.6907 5.31171C14.3706 6.26414 14.7748 7.38558 14.8588 8.55277C14.9429 9.71997 14.7035 10.8877 14.1671 11.9278C13.6306 12.9678 12.8179 13.8398 11.8181 14.4479C10.8183 15.0561 9.67022 15.3769 8.5 15.375Z" />
</svg>
