<svg viewBox="0 0 16 16" xmlns="http://www.w3.org/2000/svg">
<path d="M14.5202 13.2401C14.8869 13.2401 15.1868 12.9401 15.1868 12.5734V1.27999C15.1868 0.573314 14.6067 -1.52588e-05 13.9002 -1.52588e-05H4.88676V11.9052H3.55341V-1.52588e-05H3.04673C1.92009 -1.52588e-05 1 0.919997 1 2.04668V13.9535C1 13.961 1.00407 13.9672 1.00439 13.9747C1.01667 15.1053 1.93696 16 3.04966 16H14.5179C14.8864 16 15.1846 15.7015 15.1846 15.3333C15.1846 14.9651 14.8864 14.6666 14.5179 14.6666H3.04966C2.6864 14.6666 2.33546 14.371 2.33546 13.9528C2.33546 13.5622 2.65248 13.2401 3.04673 13.2401C5.91509 13.2401 14.4281 13.2401 14.5202 13.2401ZM9.35307 3.23958C9.70647 3.23192 10.0335 3.51983 10.0335 3.90668C10.0335 4.27496 9.74521 4.57335 9.36678 4.57335C8.98153 4.57335 8.70011 4.26756 8.70011 3.90668C8.70011 3.56559 8.96852 3.24792 9.35307 3.23958ZM8.70011 6.46005C8.70011 6.08672 9.00008 5.79338 9.36678 5.79338C9.73349 5.79338 10.0335 6.08672 10.0335 6.46005V9.10005C10.0335 9.46676 9.73349 9.76673 9.36678 9.76673C9.00008 9.76673 8.70011 9.46676 8.70011 9.10005V6.46005Z" />
</svg>
