<svg viewBox="0 0 26 26" xmlns="http://www.w3.org/2000/svg">
<path d="M23.9375 6.7509C23.9375 5.9221 23.6083 5.12724 23.0222 4.54119C22.4362 3.95514 21.6413 3.6259 20.8125 3.6259H20.0313V2.86548C20.0313 2.44465 19.7083 2.08423 19.2875 2.0634C19.1819 2.05833 19.0763 2.07474 18.9772 2.11166C18.8782 2.14858 18.7876 2.20522 18.711 2.27817C18.6345 2.35112 18.5736 2.43884 18.5319 2.53604C18.4903 2.63323 18.4688 2.73787 18.4688 2.84361V3.6259H7.53125V2.86548C7.53125 2.44465 7.20834 2.08423 6.7875 2.0634C6.68188 2.05833 6.57633 2.07474 6.47725 2.11166C6.37816 2.14858 6.2876 2.20522 6.21105 2.27817C6.1345 2.35112 6.07355 2.43884 6.0319 2.53604C5.99026 2.63323 5.96877 2.73787 5.96875 2.84361V3.6259H5.1875C4.3587 3.6259 3.56385 3.95514 2.97779 4.54119C2.39174 5.12724 2.0625 5.9221 2.0625 6.7509V7.33632C2.06236 7.36207 2.06734 7.3876 2.07713 7.41142C2.08692 7.43524 2.10134 7.45689 2.11955 7.4751C2.13777 7.49331 2.15941 7.50773 2.18323 7.51752C2.20705 7.52732 2.23258 7.53229 2.25834 7.53215H23.7427C23.7945 7.53188 23.844 7.51112 23.8805 7.47443C23.917 7.43773 23.9375 7.38807 23.9375 7.33632V6.7509Z" />
<path d="M2.0625 20.8125C2.0625 21.6413 2.39174 22.4362 2.97779 23.0222C3.56384 23.6083 4.3587 23.9375 5.1875 23.9375H20.8125C21.6413 23.9375 22.4362 23.6083 23.0222 23.0222C23.6083 22.4362 23.9375 21.6413 23.9375 20.8125V9.23958C23.9375 9.20091 23.9221 9.16381 23.8948 9.13646C23.8674 9.10911 23.8303 9.09375 23.7917 9.09375H2.20833C2.16966 9.09375 2.13256 9.10911 2.10521 9.13646C2.07786 9.16381 2.0625 9.20091 2.0625 9.23958V20.8125ZM18.8594 10.6562C19.1702 10.6562 19.4682 10.7797 19.688 10.9995C19.9078 11.2193 20.0312 11.5173 20.0312 11.8281C20.0312 12.1389 19.9078 12.437 19.688 12.6568C19.4682 12.8765 19.1702 13 18.8594 13C18.5486 13 18.2505 12.8765 18.0307 12.6568C17.811 12.437 17.6875 12.1389 17.6875 11.8281C17.6875 11.5173 17.811 11.2193 18.0307 10.9995C18.2505 10.7797 18.5486 10.6562 18.8594 10.6562ZM18.8594 14.5625C19.1702 14.5625 19.4682 14.686 19.688 14.9057C19.9078 15.1255 20.0312 15.4236 20.0312 15.7344C20.0312 16.0452 19.9078 16.3432 19.688 16.563C19.4682 16.7828 19.1702 16.9062 18.8594 16.9062C18.5486 16.9062 18.2505 16.7828 18.0307 16.563C17.811 16.3432 17.6875 16.0452 17.6875 15.7344C17.6875 15.4236 17.811 15.1255 18.0307 14.9057C18.2505 14.686 18.5486 14.5625 18.8594 14.5625ZM14.9531 10.6562C15.2639 10.6562 15.562 10.7797 15.7818 10.9995C16.0015 11.2193 16.125 11.5173 16.125 11.8281C16.125 12.1389 16.0015 12.437 15.7818 12.6568C15.562 12.8765 15.2639 13 14.9531 13C14.6423 13 14.3443 12.8765 14.1245 12.6568C13.9047 12.437 13.7812 12.1389 13.7812 11.8281C13.7812 11.5173 13.9047 11.2193 14.1245 10.9995C14.3443 10.7797 14.6423 10.6562 14.9531 10.6562ZM14.9531 14.5625C15.2639 14.5625 15.562 14.686 15.7818 14.9057C16.0015 15.1255 16.125 15.4236 16.125 15.7344C16.125 16.0452 16.0015 16.3432 15.7818 16.563C15.562 16.7828 15.2639 16.9062 14.9531 16.9062C14.6423 16.9062 14.3443 16.7828 14.1245 16.563C13.9047 16.3432 13.7812 16.0452 13.7812 15.7344C13.7812 15.4236 13.9047 15.1255 14.1245 14.9057C14.3443 14.686 14.6423 14.5625 14.9531 14.5625ZM14.9531 18.4688C15.2639 18.4688 15.562 18.5922 15.7818 18.812C16.0015 19.0318 16.125 19.3298 16.125 19.6406C16.125 19.9514 16.0015 20.2495 15.7818 20.4693C15.562 20.689 15.2639 20.8125 14.9531 20.8125C14.6423 20.8125 14.3443 20.689 14.1245 20.4693C13.9047 20.2495 13.7812 19.9514 13.7812 19.6406C13.7812 19.3298 13.9047 19.0318 14.1245 18.812C14.3443 18.5922 14.6423 18.4688 14.9531 18.4688ZM11.0469 14.5625C11.3577 14.5625 11.6557 14.686 11.8755 14.9057C12.0953 15.1255 12.2188 15.4236 12.2188 15.7344C12.2188 16.0452 12.0953 16.3432 11.8755 16.563C11.6557 16.7828 11.3577 16.9062 11.0469 16.9062C10.7361 16.9062 10.438 16.7828 10.2182 16.563C9.99847 16.3432 9.875 16.0452 9.875 15.7344C9.875 15.4236 9.99847 15.1255 10.2182 14.9057C10.438 14.686 10.7361 14.5625 11.0469 14.5625ZM11.0469 18.4688C11.3577 18.4688 11.6557 18.5922 11.8755 18.812C12.0953 19.0318 12.2188 19.3298 12.2188 19.6406C12.2188 19.9514 12.0953 20.2495 11.8755 20.4693C11.6557 20.689 11.3577 20.8125 11.0469 20.8125C10.7361 20.8125 10.438 20.689 10.2182 20.4693C9.99847 20.2495 9.875 19.9514 9.875 19.6406C9.875 19.3298 9.99847 19.0318 10.2182 18.812C10.438 18.5922 10.7361 18.4688 11.0469 18.4688ZM7.14062 14.5625C7.45143 14.5625 7.7495 14.686 7.96927 14.9057C8.18903 15.1255 8.3125 15.4236 8.3125 15.7344C8.3125 16.0452 8.18903 16.3432 7.96927 16.563C7.7495 16.7828 7.45143 16.9062 7.14062 16.9062C6.82982 16.9062 6.53175 16.7828 6.31198 16.563C6.09222 16.3432 5.96875 16.0452 5.96875 15.7344C5.96875 15.4236 6.09222 15.1255 6.31198 14.9057C6.53175 14.686 6.82982 14.5625 7.14062 14.5625ZM7.14062 18.4688C7.45143 18.4688 7.7495 18.5922 7.96927 18.812C8.18903 19.0318 8.3125 19.3298 8.3125 19.6406C8.3125 19.9514 8.18903 20.2495 7.96927 20.4693C7.7495 20.689 7.45143 20.8125 7.14062 20.8125C6.82982 20.8125 6.53175 20.689 6.31198 20.4693C6.09222 20.2495 5.96875 19.9514 5.96875 19.6406C5.96875 19.3298 6.09222 19.0318 6.31198 18.812C6.53175 18.5922 6.82982 18.4688 7.14062 18.4688Z" />
</svg>
