<svg viewBox="0 0 23 23" xmlns="http://www.w3.org/2000/svg"><path d="m22.9621589 1.91925772v3.83333c0 .25417-.1009.49792-.2807.67765-.1797.17972-.4234.28069-.6776.28069s-.4979-.10097-.6776-.28069c-.1798-.17973-.2807-.42348-.2807-.67765v-2.45429l-5.0792 5.05138c-.0861.10101-.1923.18303-.3119.24084-.1195.05781-.2497.09016-.3824.095-.1326.00483-.2649-.01795-.3883-.0669-.1234-.04896-.2353-.12302-.3285-.2175-.0933-.09447-.1659-.20729-.2133-.33131s-.0685-.25654-.062-.38914c.0066-.1326.0406-.26239.0999-.38116.0594-.11876.1427-.2239.2448-.30875l5.0888-5.0715h-2.5013c-.2541 0-.4979-.10097-.6776-.28069s-.2807-.42348-.2807-.67764c0-.25417.101-.497927.2807-.677649s.4235-.28069.6776-.28069h3.8334c.5083 0 .9958.201934 1.3553.561379.3594.35945.5613.84696.5613 1.35529zm-3.2056 12.32034998c-.5533-.5265-1.2882-.8196-2.052-.8186-.7638.0011-1.4978.2963-2.0497.8243l-1.8265 1.5391c-1.4911-.6169-2.8456-1.5224-3.98564995-2.6644-1.14005-1.1421-2.0432-2.4981-2.65756-3.99024998l1.53333-1.82083c.52804-.55187.82324-1.2859.82431-2.04969.00107-.76378-.29207-1.49864-.81856-2.05198 0 0-1.77483-2.30479-1.80358-2.33546-.54722-.550217-1.28884-.863222-2.06481-.87163717-.77596-.00807983-1.52406.28909217-2.08286.82755717l-1.10112.95833c-7.39834 7.86696 11.69169995 26.96555998 19.54999995 19.45415998l.874-1.0053c.5554-.5569.8672-1.3113.8672-2.0978s-.3118-1.5409-.8672-2.0978c-.0316-.0249-2.3393-1.7997-2.3393-1.7997z" /></svg>