<svg viewBox="0 0 14 15" xmlns="http://www.w3.org/2000/svg">
<path d="M9.09536 2.26575C8.56336 1.69117 7.8202 1.375 7.00003 1.375C6.1752 1.375 5.4297 1.69 4.90003 2.2605C4.36453 2.838 4.10378 3.622 4.16503 4.469C4.28636 6.14083 5.55803 7.5 7.00003 7.5C8.44203 7.5 9.71136 6.14083 9.83503 4.46958C9.89686 3.63017 9.63436 2.84792 9.09536 2.26575Z" />
<path d="M11.8121 13.625H2.18715C2.06119 13.6265 1.93648 13.6 1.82205 13.5474C1.70763 13.4947 1.60638 13.4172 1.52565 13.3205C1.43652 13.2104 1.3727 13.0821 1.33873 12.9446C1.30476 12.8071 1.30146 12.6638 1.32906 12.5248C1.56006 11.2444 2.2799 10.1693 3.41215 9.41392C4.41781 8.74367 5.69181 8.375 6.99965 8.375C8.30748 8.375 9.58148 8.74425 10.5871 9.41392C11.7188 10.1688 12.4398 11.2444 12.6702 12.5243C12.7233 12.8177 12.6516 13.1076 12.4742 13.3205C12.3935 13.4173 12.2921 13.4949 12.1776 13.5475C12.063 13.6002 11.9382 13.6267 11.8121 13.625Z" />
</svg>
