<svg viewBox="0 0 28 28" xmlns="http://www.w3.org/2000/svg"><path d="m18.2828986 13.9707392 3.3046 1.9715c.3327.1992.5954.4965.7522.8511s.1999.749.1234 1.1291c-.1485.7606-.4515 1.4826-.8903 2.1213s-1.0039 1.1805-1.6605 1.592-1.3907.6838-2.1568.8001-1.5479.0741-2.297-.1239c-3.6514-1.0012-6.9794-2.9356-9.65674-5.613-2.67734-2.6773-4.61184-6.0054-5.6133-9.65703003-.198237-.74902-.240636-1.53076-.124572-2.29683s.38812-1.50016.799322-2.15684c.41121-.65667.95282-1.22194 1.59129-1.66082.63848-.43889 1.36024-.742036 2.12059-.890687h.02002c.38186-.076695.77813-.032637 1.13383.126062.3557.158695.6532.424175.85122.759595l1.95629 3.29368c.33407.56603.43818 1.2387.29085 1.87925-.14732.64055-.53484 1.20012-1.08262 1.5633l-2.07261 1.38227c1.46709 3.51525003 4.25743 6.31255003 7.76883 7.78825003l1.3947-2.0828c.3659-.5462.9275-.9311 1.5689-1.0754s1.3138-.037 1.8784.2998zm2.9707-10.53775003h-2.189v-2.18912c0-.24882-.0988-.48745-.2748-.6634-.1759-.17594-.4145-.27479-.6633-.27479s-.4874.09885-.6633.27479c-.176.17595-.2748.41458-.2748.6634v2.18912h-2.189c-.2488 0-.4874.09885-.6633.27479-.1759.17595-.2748.41458-.2748.66341 0 .24882.0989.48745.2748.6634s.4145.27479.6633.27479h2.189v2.18912c0 .24882.0988.48746.2748.6634.1759.17595.4145.27479.6633.27479s.4874-.09884.6633-.27479c.176-.17594.2748-.41458.2748-.6634v-2.18912h2.189c.2488 0 .4874-.09884.6633-.27479s.2748-.41458.2748-.6634c0-.24883-.0989-.48746-.2748-.66341-.1759-.17594-.4145-.27479-.6633-.27479z" transform="translate(2.454101 2.750061)"/></svg>