<svg viewBox="0 0 14 15" xmlns="http://www.w3.org/2000/svg">
<path d="M12.7501 10.5123C12.7391 10.4735 12.7203 10.4374 12.6947 10.4063C12.6691 10.3752 12.6373 10.3497 12.6014 10.3314L10.1047 9.08311C10.05 9.05612 9.98823 9.04695 9.92807 9.05689C9.8679 9.06683 9.81237 9.09538 9.76927 9.13852L8.82427 10.0835C7.77572 9.78395 6.82082 9.22209 6.04972 8.45099C5.27861 7.67989 4.71676 6.72499 4.41718 5.67644L5.36218 4.73144C5.40533 4.68834 5.43387 4.63281 5.44381 4.57264C5.45375 4.51248 5.44459 4.45071 5.4176 4.39602L4.16927 1.89936C4.15104 1.86341 4.12556 1.83164 4.09443 1.80604C4.06331 1.78044 4.02722 1.76156 3.98843 1.75061C3.7932 1.69395 3.59088 1.66547 3.3876 1.66602C2.79893 1.66602 2.23437 1.89987 1.81812 2.31612C1.40187 2.73238 1.16802 3.29694 1.16802 3.88561C1.164 5.12632 1.40663 6.35546 1.8818 7.50158C2.35698 8.6477 3.05521 9.68795 3.93593 10.5619C4.80995 11.4435 5.85056 12.1424 6.99722 12.6181C8.14388 13.0938 9.37369 13.3367 10.6151 13.3327C11.2038 13.3327 11.7683 13.0988 12.1846 12.6826C12.6008 12.2663 12.8347 11.7018 12.8347 11.1131C12.8352 10.9098 12.8068 10.7075 12.7501 10.5123Z" />
<path d="M6.9987 5.45833C7.54018 5.45833 8.05949 5.67344 8.44237 6.05632C8.82526 6.43921 9.04036 6.95852 9.04036 7.5C9.04036 7.57735 9.07109 7.65154 9.12579 7.70624C9.18049 7.76094 9.25468 7.79167 9.33203 7.79167C9.40939 7.79167 9.48357 7.76094 9.53827 7.70624C9.59297 7.65154 9.6237 7.57735 9.6237 7.5C9.6237 6.80381 9.34714 6.13613 8.85485 5.64384C8.36257 5.15156 7.69489 4.875 6.9987 4.875C6.92134 4.875 6.84716 4.90573 6.79246 4.96043C6.73776 5.01513 6.70703 5.08931 6.70703 5.16667C6.70703 5.24402 6.73776 5.31821 6.79246 5.37291C6.84716 5.4276 6.92134 5.45833 6.9987 5.45833Z" />
<path d="M6.9987 2.83333C8.23637 2.83333 9.42336 3.325 10.2985 4.20017C11.1737 5.07534 11.6654 6.26232 11.6654 7.5C11.6654 7.57736 11.6961 7.65154 11.7508 7.70624C11.8055 7.76094 11.8797 7.79167 11.957 7.79167C12.0344 7.79167 12.1086 7.76094 12.1633 7.70624C12.218 7.65154 12.2487 7.57736 12.2487 7.5C12.2487 6.10761 11.6956 4.77226 10.711 3.78769C9.72644 2.80312 8.39108 2.25 6.9987 2.25C6.92134 2.25 6.84716 2.28073 6.79246 2.33543C6.73776 2.39013 6.70703 2.46431 6.70703 2.54167C6.70703 2.61902 6.73776 2.69321 6.79246 2.74791C6.84716 2.8026 6.92134 2.83333 6.9987 2.83333Z" />
</svg>
