<svg viewBox="0 0 17 17" xmlns="http://www.w3.org/2000/svg">
<path d="M2.3609 5.08398C2.3609 8.99118 7.54231 14.1667 11.445 14.1667C12.2992 14.1667 13.0971 13.8445 13.6853 13.2564L14.1968 12.6682C14.7902 12.075 14.7902 11.0726 14.1712 10.4538C14.1559 10.4385 12.9232 9.49237 12.9232 9.49237C12.3094 8.90935 11.3427 8.90935 10.734 9.49237L9.98724 10.0907C8.35047 9.3952 7.18938 8.22917 6.4426 6.53639L7.03593 5.78973C7.62415 5.18115 7.62415 4.20946 7.03593 3.60088C7.03593 3.60088 6.08967 2.36837 6.07433 2.35302C5.45542 1.73421 4.4529 1.73421 3.83399 2.35302L3.29693 2.81841C2.68314 3.42699 2.3609 4.2248 2.3609 5.07886V5.08398Z" />
</svg>
