<svg viewBox="0 0 28 28" xmlns="http://www.w3.org/2000/svg"><path d="m22.7519559 17.3866335 4.1125414 2.4533919c.4139253.2478985.7409934.6179716.9360015 1.0592197.1951949.4412482.2488035.9321881.1535409 1.4051941-.1847347.9463857-.5618624 1.8449478-1.1078477 2.6398296-.5461721.794695-1.2494341 1.4688967-2.0666375 1.9809463-.8170167.5118628-1.7306035.8507383-2.6839764.9951434-.9533729.1445919-1.9261719.0919112-2.8584376-.1548665-4.543838-1.2456573-8.6852197-3.65272-12.01701892-6.9843116-3.33179922-3.3317783-5.7392526-7.4732526-6.98560462-12.01745455-.24669271-.93213201-.29944203-1.90500755-.15501649-2.85838.14444421-.95335377.48299993-1.86693543.99470939-2.68414117.51172814-.81722442 1.18573887-1.52069948 1.98028479-2.06687949.79454591-.54618 1.69272256-.92346397 2.63894143-1.10844445h.0249177c.47504271-.09559131.96805455-.04100507 1.41068931.15621155.44263475.19721662.81294466.52727471 1.05960001.94440551l2.4344818 4.10984714c.4129166.70356847.540886 1.53852128.3576643 2.3334778-.1832404.79495652-.6637747 1.4896141-1.34297818 1.94139838l-2.57924356 1.72021388c1.82571659 4.3746894 5.29816824 7.8559168 9.66793724 9.692458l1.73546-2.5920059c.4555792-.679806 1.1543582-1.15879 1.9525092-1.3385024.7981509-.1795256 1.6349673-.0459556 2.337482.3732488zm4.5217969-16.66356204c-.108151-.1084626-.2368489-.19448918-.3784352-.25318527-.1413996-.05871477-.2932593-.08892214-.4464266-.08892214-.1533541 0-.305027.03020737-.4466134.08892214-.1415863.05869609-.2700974.14472267-.3784352.25318527l-5.7904702 5.78957903v-2.36938292c0-.3096583-.1229074-.60663212-.3418246-.82559357-.2191039-.21896145-.5159122-.34197664-.825609-.34197664-.3095099 0-.606505.12301519-.8254222.34197664-.2189171.21896145-.3420113.51593527-.3420113.82559357v5.18868201c.0013075.30928468.1245885.60554861.3433189.82422982.2187303.2186999.5149782.3421074.8241146.3433404h5.1880746c.3096967 0 .606505-.1230152.825609-.3419767.2189171-.2189614.3418245-.51593522.3418245-.82559352s-.1229074-.60663212-.3418245-.82559357c-.219104-.21896144-.5159123-.34197664-.825609-.34197664h-2.3690495l5.7887891-5.79114824c.1085247-.10829447.1946346-.23691401.2532864-.37847956.0586519-.14158423.0889117-.29334968.0889117-.44660962 0-.15325993-.0302598-.3050067-.0889117-.44659093-.0586518-.14158424-.1447617-.27018509-.2532864-.37847956z" /></svg>