<svg viewBox="0 0 28 28" xmlns="http://www.w3.org/2000/svg"><path d="m23.1732871 19.4884296c-1.6915052-1.4467815-3.4082107-2.3230545-5.0788555-.8785131l-.9976548.873053c-.7299708.6337894-2.087011 3.5949734-7.33420495-2.4410763-5.24604593-6.0284195-2.12420956-6.9670495-1.3931887-7.59535079l1.0031009-.87415898c1.66199265-1.44783151 1.03478335-3.27044858-.16391443-5.14661645l-.72336275-1.13639688c-1.20415788-1.87179981-2.51538936-3.10108667-4.18175012-1.6554462l-.90039537.78674729c-.73648094.53651597-2.79511352 2.28046588-3.29448274 5.59351709-.60098413 3.97524702 1.29484704 8.52744272 5.63832756 13.52215692 4.3380204 4.9969542 8.5853895 7.5069115 12.6086293 7.4630908 3.3436697-.0359805 5.3630597-1.8302472 5.994609-2.4825169l.9035735-.7879317c1.6621047-1.4445414.6294493-2.9152633-1.0631758-4.3652648z" transform="translate(1)"/></svg>