<svg viewBox="0 0 28 28" xmlns="http://www.w3.org/2000/svg"><path d="m26.5360453 12.8063913c-.2185.367-.5348.6486-.9047.8054s-.7746.1808-1.1574.0688l-3.7449-1.0698c-.6435-.1835-1.1991-.6346-1.5521-1.2603-.353-.6256-.4765-1.37799999-.3451-2.10185999l.3423-1.8767c-3.4875-1.42349-7.3161-1.42674-10.80565003-.00917l.33269 1.89203c.12919.7244.00343 1.47629999-.35134 2.10069999-.35476.6244-.91151 1.0737-1.55546 1.2553l-3.76687 1.0591c-.3796.1077-.77986.0823-1.14602-.0725-.36617-.1548-.68037-.4316-.89964-.7925-.892169-1.5609-1.192267-3.45089999-.834714-5.25697999.357554-1.8061 1.343684-3.38143 2.742894-4.38175 3.31288-2.07891 7.05321-3.169635 10.85751003-3.16616131 3.8043.00348931 7.5431 1.10106131 10.8528 3.18603131 1.3978.99662 2.3852 2.56622 2.7477 4.36766.3624 1.8014.0706 3.68909999-.812 5.25269999z" transform="translate(.25 7)"/></svg>