<svg viewBox="0 0 21 20"  xmlns="http://www.w3.org/2000/svg">
<path d="M14.3638 3.61359H3.17899C1.70178 3.61359 0.5 4.81522 0.5 6.29242V14.3452C0.5 15.8228 1.70178 17.0247 3.17899 17.0247H3.44937L2.62265 18.9258C2.42245 19.3857 2.56787 19.6173 2.67239 19.7145C2.73343 19.7711 2.841 19.8384 3.00809 19.8384C3.12756 19.8384 3.27756 19.8039 3.46295 19.7067L8.57175 17.0247H14.3638C15.841 17.0247 17.0427 15.8228 17.0427 14.3452V6.29242C17.0427 4.81522 15.841 3.61359 14.3638 3.61359ZM4.35086 11.3309C3.79315 11.3309 3.3392 10.8769 3.3392 10.3189C3.3392 9.76105 3.79315 9.30725 4.35086 9.30725C4.90872 9.30725 5.36267 9.76105 5.36267 10.3189C5.36267 10.8769 4.90872 11.3309 4.35086 11.3309ZM8.96344 11.3309C8.40558 11.3309 7.95148 10.8769 7.95148 10.3189C7.95148 9.76105 8.40558 9.30725 8.96344 9.30725C9.5213 9.30725 9.9754 9.76105 9.9754 10.3189C9.9754 10.8769 9.5213 11.3309 8.96344 11.3309ZM13.1917 11.3309C12.6336 11.3309 12.1797 10.8769 12.1797 10.3189C12.1797 9.76105 12.6336 9.30725 13.1917 9.30725C13.7495 9.30725 14.2035 9.76105 14.2035 10.3189C14.2035 10.8769 13.7495 11.3309 13.1917 11.3309Z" />
<path d="M17.821 0.15625H6.63617C5.29263 0.15625 4.17722 1.15036 3.98633 2.44171H14.3637C16.4869 2.44171 18.2144 4.16916 18.2144 6.29242V13.5382C19.5057 13.3473 20.4998 12.2318 20.4998 10.8881V2.83508C20.4998 1.35803 19.2981 0.15625 17.821 0.15625Z" />
</svg>
