<svg viewBox="0 0 16 16" xmlns="http://www.w3.org/2000/svg"><path d="m3 0c-1.656858 0-3 1.343152-3 3v6.800002c0 1.6569 1.343152 3 3 3h6.800002c1.6569 0 3-1.3432 3-3v-6.800002c0-1.656858-1.3432-3-3-3zm7.108702 4.789552c.2814-.28095.2818-.73683.0008-1.01824-.2809-.28141-.73681-.28179-1.01822-.00084l-3.73835 3.73215-1.64426-1.64153c-.28141-.28094-.73729-.28056-1.01823.00085-.28095.28141-.28057.73729.00084 1.01823l2.15295 2.14938c.28108.28061.73631.28061 1.01739 0z" stroke="none" fill="#5181b8" fill-rule="evenodd" transform="translate(2 2)"/></svg>