<svg viewBox="0 0 26 26" xmlns="http://www.w3.org/2000/svg">
<path d="M13 0C5.83158 0 0 5.83158 0 13C0 20.1684 5.83158 26 13 26C20.1684 26 26 20.1684 26 13C26 5.83158 20.1684 0 13 0ZM9.59508 19.5C8.81183 19.5 8.02533 19.2173 7.42842 18.6193L6.86292 17.9692C6.37975 17.4861 6.37975 16.7017 6.86292 16.2186L8.27342 15.1353C8.75658 14.6521 9.54092 14.6521 10.0241 15.1353L11.1822 16.0572C13.4257 15.2002 15.0811 13.6132 16.0572 11.1822L15.1353 10.0241C14.6521 9.54092 14.6521 8.75658 15.1353 8.27342L16.2186 6.86292C16.7017 6.37975 17.4861 6.37975 17.9692 6.86292L18.6193 7.42842C19.2173 8.02533 19.5 8.81183 19.5 9.59508C19.5 13.9284 13.6186 19.5 9.59508 19.5Z" />
</svg>
