<svg viewBox="0 0 18 18" xmlns="http://www.w3.org/2000/svg"><path d="m7 0c-1.38447009 0-2.73785009.410543-3.88899009 1.17971-1.15114.76917-2.04835 1.86242-2.578164 3.14151-.529813 1.27908-.668436 2.68654-.39834 4.04441.270097 1.35787.936784 2.60517 1.915754 3.58407.97896.979 2.22624 1.6457 3.58411 1.9158s2.76533.1315 4.04442-.3983c1.27910999-.5299 2.37230999-1.4271 3.14150999-2.5782.7692-1.1512 1.1797001-2.50453 1.1797001-3.889-.0020001-1.8559-.7401001-3.63521-2.0525001-4.94753-1.3123-1.31232-3.09159999-2.050463-4.9474999-2.05247zm.58333006 6.92942c.00006985.09888-.02501015.19615-.07286015.28268-.04786.08653-.11693.15948-.20072.21198l-2.24 1.4c-.06511.04068-.1376.06813-.21332.0808-.07573.01266-.1532.01028-.22801-.007-.0748-.01728-.14547-.04912-.20797-.09371s-.1156-.10106-.15628-.16617c-.04068-.06512-.06813-.1376-.08079-.21333-.01267-.07572-.01029-.1532.00699-.228.01728-.07481.04912-.14548.09371-.20798.04459-.06249.10106-.1156.16617-.15627l1.96642-1.22617v-2.52292c0-.15471.06146-.30308.17085-.41248.1094-.10939.25777-.17085.41248-.17085s.30308.06146.41248.17085c.1094.1094.17085015.25777.17085015.41248z" transform="translate(2 2)"/></svg>