<svg viewBox="0 0 10 10" xmlns="http://www.w3.org/2000/svg">
<g clip-path="url(#clip0_35_5002)">
<path d="M4.79199 0.415894C2.37531 0.415894 0.416992 2.37423 0.416992 4.79089C0.416992 7.20755 2.37531 9.16589 4.79199 9.16589C4.89617 9.16589 4.99824 9.16173 5.10033 9.15339C4.76266 8.66798 4.5823 8.09054 4.58367 7.49923C4.58381 6.72573 4.89115 5.98395 5.4381 5.437C5.98505 4.89005 6.72683 4.58271 7.50033 4.58257C8.09163 4.58122 8.66908 4.76157 9.15449 5.09923C9.16283 4.99714 9.16699 4.89507 9.16699 4.79089C9.16699 2.37423 7.20869 0.415894 4.79199 0.415894ZM5.20867 4.79089C5.20867 4.9014 5.16476 5.00738 5.08662 5.08552C5.00848 5.16367 4.9025 5.20757 4.79199 5.20757H2.91699C2.80698 5.20682 2.70173 5.16259 2.6242 5.08453C2.54667 5.00647 2.50317 4.90092 2.50317 4.7909C2.50317 4.68089 2.54667 4.57534 2.6242 4.49728C2.70173 4.41922 2.80698 4.37499 2.91699 4.37423H4.37533V2.08257C4.37496 2.02762 4.38545 1.97313 4.40623 1.92224C4.427 1.87136 4.45763 1.82509 4.49636 1.78609C4.53509 1.7471 4.58115 1.71615 4.63189 1.69503C4.68263 1.67391 4.73704 1.66304 4.792 1.66304C4.84696 1.66304 4.90138 1.67391 4.95212 1.69503C5.00286 1.71615 5.04892 1.7471 5.08765 1.78609C5.12637 1.82509 5.15701 1.87136 5.17778 1.92224C5.19855 1.97313 5.20905 2.02762 5.20867 2.08257V4.79089Z" />
<path d="M7.50033 5.41589C7.08829 5.41589 6.68549 5.53808 6.34289 5.767C6.00029 5.99592 5.73326 6.32129 5.57558 6.70197C5.4179 7.08265 5.37664 7.50154 5.45702 7.90567C5.53741 8.3098 5.73583 8.68102 6.02719 8.97238C6.31855 9.26374 6.68977 9.46216 7.09389 9.54254C7.49802 9.62293 7.91691 9.58167 8.29759 9.42399C8.67827 9.26631 9.00365 8.99928 9.23257 8.65668C9.46149 8.31407 9.58367 7.91128 9.58367 7.49923C9.58368 7.22564 9.52979 6.95473 9.42509 6.70197C9.3204 6.44921 9.16694 6.21954 8.97348 6.02608C8.78003 5.83263 8.55036 5.67917 8.2976 5.57447C8.04483 5.46978 7.77392 5.41589 7.50033 5.41589ZM7.50033 8.95757C7.41792 8.95758 7.33736 8.93314 7.26883 8.88736C7.20031 8.84158 7.1469 8.7765 7.11536 8.70036C7.08382 8.62423 7.07556 8.54045 7.09164 8.45962C7.10771 8.37879 7.1474 8.30454 7.20567 8.24626C7.26394 8.18799 7.33819 8.1483 7.41902 8.13222C7.49985 8.11614 7.58363 8.12439 7.65977 8.15593C7.7359 8.18747 7.80098 8.24087 7.84677 8.3094C7.89256 8.37792 7.91699 8.45848 7.91699 8.54089C7.91699 8.6514 7.8731 8.75738 7.79496 8.83552C7.71682 8.91367 7.61084 8.95757 7.50033 8.95757ZM7.91699 7.49923C7.91699 7.60974 7.8731 7.71572 7.79496 7.79386C7.71682 7.872 7.61084 7.91589 7.50033 7.91589C7.38983 7.91589 7.28385 7.872 7.20571 7.79386C7.12757 7.71572 7.08367 7.60974 7.08367 7.49923V6.45757C7.08367 6.34707 7.12757 6.24109 7.20571 6.16295C7.28385 6.08481 7.38983 6.04091 7.50033 6.04091C7.61084 6.04091 7.71682 6.08481 7.79496 6.16295C7.8731 6.24109 7.91699 6.34707 7.91699 6.45757V7.49923Z" />
</g>
<defs>
<clipPath id="clip0_35_5002">
<rect width="10" height="10" fill="white"/>
</clipPath>
</defs>
</svg>
