<svg viewBox="0 0 10 10" xmlns="http://www.w3.org/2000/svg">
<g clip-path="url(#clip0_35_5032)">
<path d="M5.00039 0.400024C2.44039 0.400024 0.400391 2.44002 0.400391 5.00002C0.400391 7.56002 2.44039 9.60002 5.00039 9.60002C7.56039 9.60002 9.60039 7.56002 9.60039 5.00002C9.60039 2.44002 7.56039 0.400024 5.00039 0.400024ZM6.60039 6.16002C6.48039 6.32002 6.20039 6.36002 6.04039 6.20002L4.76039 5.16002C4.68039 5.08002 4.60039 4.96002 4.60039 4.84002V2.60002C4.60039 2.36002 4.80039 2.20002 5.00039 2.20002C5.24039 2.20002 5.40039 2.36002 5.40039 2.60002V4.68002L6.52039 5.60002C6.72039 5.76002 6.72039 6.00002 6.60039 6.16002Z" />
</g>
<defs>
<clipPath id="clip0_35_5032">
<rect width="10" height="10" fill="white" transform="translate(0 -0.000244141)"/>
</clipPath>
</defs>
</svg>
