<svg viewBox="0 0 36 36" xmlns="http://www.w3.org/2000/svg">
<path d="M33.3045 14.7693C32.2666 14.0179 31.085 13.4884 29.8335 13.2138C29.6241 13.1666 29.4324 13.0609 29.2808 12.909C29.1291 12.7571 29.0238 12.5653 28.977 12.3558C28.428 9.91078 27.2475 7.81678 25.512 6.22828C23.4945 4.38028 20.8275 3.36328 18 3.36328C15.5145 3.36328 13.218 4.14328 11.364 5.61778C10.1078 6.6186 9.0966 7.89297 8.4075 9.34378C8.33284 9.50259 8.22206 9.64173 8.08401 9.75008C7.94597 9.85843 7.7845 9.93298 7.6125 9.96778C5.7315 10.3473 4.0335 11.1528 2.7375 12.2958C0.945 13.8783 0 15.9813 0 18.3828C0 20.8098 1.02 23.0223 2.868 24.6228C4.635 26.1483 7.0125 26.9883 9.5625 26.9883H16.875V16.2048L14.295 18.7848C14.1873 18.8924 14.059 18.977 13.9177 19.0335C13.7764 19.09 13.6251 19.1173 13.4729 19.1136C13.3208 19.11 13.1709 19.0755 13.0325 19.0123C12.8941 18.949 12.7699 18.8584 12.6675 18.7458C12.4741 18.5254 12.3726 18.2393 12.3837 17.9463C12.3949 17.6534 12.5179 17.3758 12.7275 17.1708L17.205 12.6933C17.4159 12.4826 17.7019 12.3643 18 12.3643C18.2981 12.3643 18.5841 12.4826 18.795 12.6933L23.274 17.1693C23.715 17.6118 23.739 18.3363 23.301 18.7803C23.1968 18.8856 23.0728 18.9692 22.9361 19.0265C22.7995 19.0837 22.6528 19.1134 22.5047 19.1138C22.3565 19.1142 22.2098 19.0854 22.0728 19.0289C21.9358 18.9724 21.8113 18.8895 21.7065 18.7848L19.125 16.2048V26.9898H27.8445C30.048 26.9898 32.0565 26.3703 33.4995 25.2468C35.136 23.9748 36 22.1553 36 19.9848C36 17.8803 35.067 16.0758 33.3045 14.7693Z" />
<path d="M16.875 31.5183C16.875 31.8166 16.9935 32.1028 17.2045 32.3138C17.4155 32.5248 17.7016 32.6433 18 32.6433C18.2984 32.6433 18.5845 32.5248 18.7955 32.3138C19.0065 32.1028 19.125 31.8166 19.125 31.5183V26.9883H16.875V31.5183Z" />
</svg>
