<svg viewBox="0 0 28 28" xmlns="http://www.w3.org/2000/svg"><g><path d="m20.5101916 28h-13.0204127c-4.12983642 0-7.4897789-3.3599019-7.4897789-7.4897199v-13.02054176c0-4.12985486 3.35988717-7.48973834 7.4897789-7.48973834h13.0204127c4.129818 0 7.4895355 3.35988348 7.4895355 7.48973834v13.02054176c0 4.129818-3.3597175 7.4897199-7.4895355 7.4897199zm-13.0204127-26.04110196c-3.04968622 0-5.53087717 2.48113565-5.53087717 5.53089561v13.02048645c0 3.0497968 2.48111721 5.5310062 5.53087717 5.5310062h13.0204127c3.0496125 0 5.5306375-2.4812094 5.5306375-5.5310062v-13.02054176c0-3.04970465-2.481025-5.5308403-5.5306375-5.5308403z"/><path d="m16.1520537 12.8266247c-.5211314 0-.9546517-.4106219-.9777344-.9363994-.0237465-.5404162.3950797-.9978304.9354959-1.0215768l7.0161736-.3084642c.5407481-.0235068.9977935.3950244 1.0215769.9354406.0237833.5404162-.3950982.997812-.9354776 1.0215584l-7.0162657.3084642c-.0146941.0006822-.029259.0009772-.0437687.0009772z"/><path d="m4.82988113 17.4414935c-.52105766 0-.95459637-.4105851-.97773441-.9363994-.0238202-.5403793.39496916-.9977751.9353669-1.0215215l7.01646858-.3092017c.541209-.0242996.997812.3948954 1.0216322.9354406.0238202.5403794-.3949692.9977936-.9353669 1.0215769l-7.01646862.3091832c-.01474935.0005531-.02938808.0009219-.04389775.0009219z"/><path d="m16.1535286 12.8265694c-.014565 0-.0291299-.000295-.0437687-.0009772-.5404162-.0237464-.9592424-.4810869-.9354406-1.0215584l.3086486-7.01646856c.0237648-.54041618.4820825-.95894742 1.0215768-.93544064.5404715.02376489.9591687.48110536.9353853 1.02157685l-.3086301 7.01646855c-.0230459.5257037-.4566952.9363994-.9777713.9363994z"/><path d="m11.5389548 24.1489447c-.014565 0-.02913-.0003687-.0437687-.0011062-.5404162-.0235989-.9592424-.4810131-.9354406-1.0213925l.3086486-7.0166345c.0237648-.540453.4815847-.9592977 1.0215768-.9354775.5403977.0237465.9592424.4810869.9354222 1.0215769l-.3086486 7.0166345c-.023138.5256299-.4567136.9363993-.9777897.9363993z"/><path d="m17.1619048 11.817087c-.2505546 0-.501312-.0956311-.6925373-.2869302-.3824875-.3825244-.3824875-1.0026977.0000553-1.3851852l4.6877122-4.68726964c.3825612-.38241377 1.002587-.38235846 1.3851483.00005531.3823769.38254283.3823769 1.00271612 0 1.3851852l-4.6877122 4.68728813c-.1911884.19117-.4419274.2868564-.6926663.2868564z"/><path d="m6.15037199 22.8292466c-.25068364 0-.50129353-.0956864-.6925926-.2870592-.38248751-.3823769-.38248751-1.002587 0-1.3849639l4.68739871-4.6873435c.3824691-.3825612 1.0026424-.3825612 1.3851115 0 .3824875.3823769.3824875 1.0025871 0 1.3851484l-4.68739875 4.687159c-.19117002.1913728-.44185365.2870592-.69251886.2870592z"/></g></svg>