<svg viewBox="0 0 20 20" xmlns="http://www.w3.org/2000/svg">
<path d="M11.9987 2.66699H4.66536C3.93203 2.66699 3.33203 3.26699 3.33203 4.00033V12.667C3.33203 13.0337 3.63203 13.3337 3.9987 13.3337C4.36536 13.3337 4.66536 13.0337 4.66536 12.667V4.66699C4.66536 4.30033 4.96536 4.00033 5.33203 4.00033H11.9987C12.3654 4.00033 12.6654 3.70033 12.6654 3.33366C12.6654 2.96699 12.3654 2.66699 11.9987 2.66699ZM14.6654 5.33366H7.33203C6.5987 5.33366 5.9987 5.93366 5.9987 6.66699V16.0003C5.9987 16.7337 6.5987 17.3337 7.33203 17.3337H14.6654C15.3987 17.3337 15.9987 16.7337 15.9987 16.0003V6.66699C15.9987 5.93366 15.3987 5.33366 14.6654 5.33366ZM13.9987 16.0003H7.9987C7.63203 16.0003 7.33203 15.7003 7.33203 15.3337V7.33366C7.33203 6.96699 7.63203 6.66699 7.9987 6.66699H13.9987C14.3654 6.66699 14.6654 6.96699 14.6654 7.33366V15.3337C14.6654 15.7003 14.3654 16.0003 13.9987 16.0003Z" />
</svg>
