<svg viewBox="0 0 22 22" xmlns="http://www.w3.org/2000/svg">
<path d="M19.3918 2.99933L17.2981 0.836917C17.041 0.572885 16.7337 0.362853 16.3943 0.219139C16.055 0.0754255 15.6903 0.000922562 15.3218 0L10.9997 0C9.94349 0.00133331 8.92005 0.366749 8.10186 1.03466C7.28367 1.70257 6.72076 2.63213 6.50801 3.66667H6.41634C5.20121 3.66812 4.03627 4.15148 3.17704 5.0107C2.31782 5.86993 1.83446 7.03487 1.83301 8.25V17.4167C1.83446 18.6318 2.31782 19.7967 3.17704 20.656C4.03627 21.5152 5.20121 21.9985 6.41634 22H11.9163C13.1315 21.9985 14.2964 21.5152 15.1556 20.656C16.0149 19.7967 16.4982 18.6318 16.4997 17.4167V17.325C17.5342 17.1122 18.4638 16.5493 19.1317 15.7311C19.7996 14.913 20.165 13.8895 20.1663 12.8333V4.91333C20.1677 4.19872 19.8898 3.51186 19.3918 2.99933ZM11.9163 20.1667H6.41634C5.687 20.1667 4.98752 19.8769 4.4718 19.3612C3.95607 18.8455 3.66634 18.146 3.66634 17.4167V8.25C3.66634 7.52065 3.95607 6.82118 4.4718 6.30546C4.98752 5.78973 5.687 5.5 6.41634 5.5V12.8333C6.4178 14.0485 6.90115 15.2134 7.76038 16.0726C8.6196 16.9319 9.78455 17.4152 10.9997 17.4167H14.6663C14.6663 18.146 14.3766 18.8455 13.8609 19.3612C13.3452 19.8769 12.6457 20.1667 11.9163 20.1667ZM15.583 15.5833H10.9997C10.2703 15.5833 9.57086 15.2936 9.05513 14.7779C8.53941 14.2622 8.24967 13.5627 8.24967 12.8333V4.58333C8.24967 3.85399 8.53941 3.15451 9.05513 2.63879C9.57086 2.12306 10.2703 1.83333 10.9997 1.83333H14.6663V3.66667C14.6663 4.1529 14.8595 4.61921 15.2033 4.96303C15.5471 5.30685 16.0134 5.5 16.4997 5.5H18.333V12.8333C18.333 13.5627 18.0433 14.2622 17.5276 14.7779C17.0118 15.2936 16.3124 15.5833 15.583 15.5833Z" />
</svg>
