<svg viewBox="0 0 16 16" xmlns="http://www.w3.org/2000/svg">
<path d="M9.9987 0.666016H2.66536C1.93203 0.666016 1.33203 1.26602 1.33203 1.99935V10.666C1.33203 11.0327 1.63203 11.3327 1.9987 11.3327C2.36536 11.3327 2.66536 11.0327 2.66536 10.666V2.66602C2.66536 2.29935 2.96536 1.99935 3.33203 1.99935H9.9987C10.3654 1.99935 10.6654 1.69935 10.6654 1.33268C10.6654 0.966016 10.3654 0.666016 9.9987 0.666016ZM12.6654 3.33268H5.33203C4.5987 3.33268 3.9987 3.93268 3.9987 4.66602V13.9993C3.9987 14.7327 4.5987 15.3327 5.33203 15.3327H12.6654C13.3987 15.3327 13.9987 14.7327 13.9987 13.9993V4.66602C13.9987 3.93268 13.3987 3.33268 12.6654 3.33268ZM11.9987 13.9993H5.9987C5.63203 13.9993 5.33203 13.6993 5.33203 13.3327V5.33268C5.33203 4.96602 5.63203 4.66602 5.9987 4.66602H11.9987C12.3654 4.66602 12.6654 4.96602 12.6654 5.33268V13.3327C12.6654 13.6993 12.3654 13.9993 11.9987 13.9993Z" />
</svg>
