<svg width="12" height="12" viewBox="0 0 12 12" fill="none" xmlns="http://www.w3.org/2000/svg">
<path fill-rule="evenodd" clip-rule="evenodd" d="M6 1.5C6.31066 1.5 6.5625 1.75184 6.5625 2.0625V5.4375H9.9375C10.2482 5.4375 10.5 5.68934 10.5 6C10.5 6.31066 10.2482 6.5625 9.9375 6.5625H6.5625V9.9375C6.5625 10.2482 6.31066 10.5 6 10.5C5.68934 10.5 5.4375 10.2482 5.4375 9.9375V6.5625H2.06251C1.75185 6.5625 1.50001 6.31066 1.50001 6C1.50001 5.68934 1.75185 5.4375 2.06251 5.4375H5.4375V2.0625C5.4375 1.75184 5.68934 1.5 6 1.5Z" fill="white"/>
</svg>
