<svg viewBox="0 0 17 18" xmlns="http://www.w3.org/2000/svg">
<path d="M15.5666 4.13763L13.3639 1.93502C13.1954 1.76645 12.9221 1.76645 12.7533 1.93502L8.5009 6.18785L4.24829 1.93524C4.07972 1.76668 3.80642 1.76668 3.63763 1.93524L1.43502 4.13785C1.26645 4.30642 1.26645 4.57972 1.43502 4.74852L5.68785 9.0009L1.43524 13.2535C1.26668 13.4221 1.26668 13.6954 1.43524 13.8642L3.63785 16.0668C3.80642 16.2353 4.07972 16.2353 4.24852 16.0668L8.5009 11.8139L12.7535 16.0666C12.9221 16.2351 13.1954 16.2351 13.3642 16.0666L15.5668 13.8639C15.7353 13.6954 15.7353 13.4221 15.5668 13.2533L11.3139 9.0009L15.5666 4.74829C15.7354 4.57995 15.7354 4.30642 15.5666 4.13763Z" />
</svg>
