<svg viewBox="0 0 20 20" xmlns="http://www.w3.org/2000/svg">
<path d="M10.1021 0.737793C4.80351 0.737793 0.507812 5.03349 0.507812 10.3321C0.507812 15.6307 4.80351 19.9264 10.1021 19.9264C15.4007 19.9264 19.6964 15.6307 19.6964 10.3321C19.6964 5.03349 15.4007 0.737793 10.1021 0.737793ZM14.6965 12.6782C14.9947 12.9764 15.1622 13.3808 15.1622 13.8025C15.1622 14.2242 14.9947 14.6287 14.6965 14.9269C14.3983 15.2251 13.9939 15.3926 13.5722 15.3926C13.1505 15.3926 12.746 15.2251 12.4478 14.9269L10.1021 12.5808L7.756 14.9272C7.45781 15.2254 7.05338 15.3929 6.63167 15.3929C6.20997 15.3929 5.80553 15.2254 5.50734 14.9272C5.20915 14.629 5.04163 14.2246 5.04163 13.8029C5.04163 13.3812 5.20915 12.9768 5.50734 12.6786L7.85345 10.3321L5.50697 7.98599C5.20878 7.68779 5.04125 7.28336 5.04125 6.86165C5.04125 6.43995 5.20878 6.03551 5.50697 5.73732C5.80516 5.43913 6.20959 5.27161 6.6313 5.27161C7.053 5.27161 7.45744 5.43913 7.75563 5.73732L10.1021 8.08343L12.4482 5.73695C12.5959 5.5893 12.7712 5.47218 12.9641 5.39227C13.157 5.31236 13.3637 5.27123 13.5725 5.27123C13.7814 5.27123 13.9881 5.31236 14.181 5.39227C14.3739 5.47218 14.5492 5.5893 14.6969 5.73695C14.8445 5.8846 14.9617 6.05988 15.0416 6.25279C15.1215 6.44571 15.1626 6.65247 15.1626 6.86128C15.1626 7.07009 15.1215 7.27685 15.0416 7.46976C14.9617 7.66268 14.8445 7.83796 14.6969 7.98561L12.3508 10.3321L14.6965 12.6782Z" />
</svg>
