<svg viewBox="0 0 12 12" fill="none" xmlns="http://www.w3.org/2000/svg">
<g clip-path="url(#clip0_19_11720)">
<path d="M10.125 2.25005H7.875V1.68755C7.875 1.56443 7.85075 1.44252 7.80364 1.32878C7.75652 1.21504 7.68747 1.11169 7.60041 1.02463C7.51336 0.937578 7.41001 0.868522 7.29627 0.821409C7.18252 0.774295 7.06061 0.750046 6.9375 0.750046H5.0625C4.81386 0.750046 4.5754 0.848818 4.39959 1.02463C4.22377 1.20045 4.125 1.43891 4.125 1.68755V2.25005H1.875C1.77554 2.25005 1.68016 2.28955 1.60983 2.35988C1.53951 2.43021 1.5 2.52559 1.5 2.62505C1.5 2.7245 1.53951 2.81988 1.60983 2.89021C1.68016 2.96054 1.77554 3.00005 1.875 3.00005H2.2735L2.7185 10.1465C2.752 10.776 3.2345 11.25 3.8435 11.25H8.156C8.7685 11.25 9.241 10.7865 9.281 10.1485L9.7265 3.00005H10.125C10.2245 3.00005 10.3198 2.96054 10.3902 2.89021C10.4605 2.81988 10.5 2.7245 10.5 2.62505C10.5 2.52559 10.4605 2.43021 10.3902 2.35988C10.3198 2.28955 10.2245 2.25005 10.125 2.25005ZM4.5135 9.75005H4.5C4.40284 9.75011 4.30945 9.71246 4.2395 9.64503C4.16955 9.57759 4.1285 9.48564 4.125 9.38855L3.9375 4.13855C3.93392 4.03909 3.96999 3.94228 4.03779 3.86943C4.10558 3.79657 4.19954 3.75363 4.299 3.75005C4.39846 3.74647 4.49526 3.78254 4.56812 3.85033C4.64098 3.91813 4.68392 4.01209 4.6875 4.11155L4.875 9.36155C4.87681 9.4108 4.86888 9.45993 4.85169 9.50611C4.83449 9.5523 4.80836 9.59465 4.77478 9.63073C4.74121 9.66682 4.70085 9.69593 4.65602 9.7164C4.61119 9.73687 4.56276 9.7483 4.5135 9.75005ZM6.375 9.37505C6.375 9.4745 6.33549 9.56989 6.26516 9.64021C6.19484 9.71054 6.09946 9.75005 6 9.75005C5.90054 9.75005 5.80516 9.71054 5.73484 9.64021C5.66451 9.56989 5.625 9.4745 5.625 9.37505V4.12505C5.625 4.02559 5.66451 3.93021 5.73484 3.85988C5.80516 3.78955 5.90054 3.75005 6 3.75005C6.09946 3.75005 6.19484 3.78955 6.26516 3.85988C6.33549 3.93021 6.375 4.02559 6.375 4.12505V9.37505ZM7.125 2.25005H4.875V1.68755C4.87466 1.66283 4.87928 1.6383 4.88859 1.6154C4.89789 1.5925 4.91169 1.57169 4.92917 1.55421C4.94665 1.53674 4.96745 1.52294 4.99035 1.51363C5.01325 1.50433 5.03778 1.49971 5.0625 1.50005H6.9375C6.9622 1.49978 6.9867 1.50445 7.00957 1.51377C7.03244 1.5231 7.05321 1.5369 7.07068 1.55437C7.08814 1.57183 7.10194 1.59261 7.11127 1.61548C7.1206 1.63835 7.12527 1.66285 7.125 1.68755V2.25005ZM7.875 9.38855C7.8715 9.48564 7.83045 9.57759 7.7605 9.64503C7.69055 9.71246 7.59716 9.75011 7.5 9.75005H7.4865C7.43724 9.7483 7.38881 9.73687 7.34398 9.7164C7.29915 9.69593 7.25879 9.66682 7.22522 9.63073C7.19164 9.59465 7.16551 9.5523 7.14831 9.50611C7.13112 9.45993 7.12319 9.4108 7.125 9.36155L7.3125 4.11155C7.31427 4.0623 7.32573 4.01389 7.34621 3.96907C7.36669 3.92425 7.39581 3.8839 7.43188 3.85033C7.46796 3.81677 7.51029 3.79063 7.55647 3.77342C7.60264 3.75622 7.65175 3.74827 7.701 3.75005C7.75025 3.75182 7.79866 3.76327 7.84348 3.78376C7.8883 3.80424 7.92864 3.83335 7.96221 3.86943C7.99578 3.9055 8.02191 3.94784 8.03912 3.99401C8.05633 4.04019 8.06427 4.0893 8.0625 4.13855L7.875 9.38855Z" fill="#FF3C5F"/>
</g>
<defs>
<clipPath id="clip0_19_11720">
<rect width="12" height="12" fill="white"/>
</clipPath>
</defs>
</svg>
