<svg viewBox="0 0 28 28" xmlns="http://www.w3.org/2000/svg"><path d="m11.7080025 5.83765246 2.4105.8854-2.0047 5.45820004c-.1876.5134-1.2049 2.1197-1.9134 2.4474l-.1719.469c-.0438.1188-.1564.1932-.2758.1932-.0337 0-.0675-.0063-.1013-.0182-.1519-.0562-.2307-.2244-.1744-.3776l.1625-.4434c-.3595-.6984-.0913-2.7269.0663-3.1558zm3.4885-5.77521c-.6628-.24262-1.4388.25887-1.6608.86478l-1.4519 3.95563 2.4099.8841 1.45-3.95494c.1826-.49523-.0831-1.50633-.7472-1.74957zm-4.3614 5.57071c.0675.025.1369.0369.2045.0369.2388 0 .4633-.1463.5515-.3839l1.5319-4.13195c.1132-.30452-.0425-.6428-.347-.75535-.307-.11131-.6428.04252-.756.34703l-1.5319 4.13197c-.1132.3045.0425.6428.347.7553zm-2.4662 7.74800004c-.1582-.1494-.3551-.3358-.674-.4777-.2626-.1169-.5184-.1225-.7054-.1269-.0193 0-.0418-.0007-.0644-.0013-.1169-.3201-.3539-.5215-.7097-.6003-.4708-.0994-.8466.1226-1.1074.2939.0232-.1313.0613-.2876.0895-.4002.09-.3626.1825-.7378.1138-1.0892-.0544-.2776-.2889-.484-.5716-.504-.7284-.0406-1.3237.3514-1.84832.706-.55089.372-.90418.594-1.25559.4683-.42895-.1526-.4721-1.3137-.26575-2.34800004.18446-.9317.52775-2.6662 1.40753-3.4541.29639-.2651.72534-.5521 1.07801-.4127.41452.1626.75722.8454.83352 1.6589.0319.3433.3314.5953.6809.564.344-.0319.5966-.337.5641-.6809-.1239-1.3256-.7454-2.3624-1.6214-2.7069-.52465-.2039-1.35879-.2589-2.36989.6459-1.09988999.9849-1.50632999 2.655-1.80085 4.1426-.14757.7428-.50711 3.20770004 1.07363 3.76990004.96295.3433 1.74519-.1864 2.37361-.6103.11506-.0775.22824-.1538.33829-.222-.10443.4533-.16946.9386.10441 1.3475.4083.6141.9855.681 1.7146.2007.0281-.0181.0606-.0394.0913-.0606.0675.1413.1869.297.4039.4033.2626.1288.5252.1351.7166.1401.0819.0018.1938.0043.2276.0193.1175.0519.187.1157.322.2433.1013.0957.2082.1951.3439.2976.1126.0844.2439.1245.374.1245.19 0 .3783-.087.5008-.2502.207-.2763.1507-.6684-.1257-.8754-.0906-.07-.1625-.1394-.232-.2051z" fill="#fff" transform="translate(5.999997 6.354248)"/></svg>