<svg viewBox="0 0 28 28" xmlns="http://www.w3.org/2000/svg"><g fill="#fff" fill-rule="evenodd" transform="translate(6.306629 6.54565)"><path d="m14.8603712 13.84055h-2.1208v-12.77774c-.0037-.28098-.1157-.54969-.3126-.75021-.0982-.09899-.2151-.17756-.3439-.23121-.1287-.05365-.2668-.08139-.4063-.08139h-8.49285002c-.28307.00047-.55447.11284-.75503.3126-.19554.201-.30582.4698-.30779.75021v6.39134h3.16917c.5634.0025 1.1028.2281 1.5003.6273.3974.3993.6205.9397.6205 1.5031v5.3237h7.44930002c.1416 0 .2774-.0563.3775-.1564s.1563-.2359.1563-.3775c0-.1415-.0562-.2773-.1563-.3774s-.2359-.1564-.3775-.1564zm-4.2464-5.8526c-.1058.0009-.2095-.0296-.2979-.0876-.0884-.0581-.1575-.1412-.1987-.2386-.0411-.0975-.0524-.2049-.0323-.3088.02-.1039.0705-.1994.1449-.2746.0745-.0751.1696-.1264.2733-.1474.1036-.021.2112-.0107.309.0295.0979.0403.1815.1087.2404.1966s.0903.1913.0903.2971c0 .1407-.0556.2758-.1546.3757-.0991.1-.2337.1568-.3744.1581z"/><path d="m5.29007118 8.51685h-4.22724c-.13997 0-.27857.0276-.40783.0814-.12926001.0537-.24664.1324-.34539.2316-.09876.0992-.17694.2169-.23007.3464s-.08015.2682-.07953077.4082v4.2609c0 .2819.11199077.5522.31130077.7515.19932.1993.46965.3113.75152.3113h5.29004978v-5.3237c.00059022-.14-.02640978-.2787-.07950978-.4082-.0532-.1295-.1314-.2472-.2301-.3464-.0988-.0992-.2161-.1779-.3454-.2316-.1293-.0538-.2679-.0814-.4078-.0814zm-1.73132 2.6642h-.77426c-.13222-.0126-.25499-.074-.34434-.1722-.08935-.0983-.13886-.2264-.13886-.3592s.04951-.2608.13886-.3591.21212-.1597.34434-.1723h.7935c.07403-.007.14868.0015.21928.025s.1354.0615.1905.1115c.055.05.0989.111.129.179s.0456.1416.0456.2159c0 .0744-.0155.148-.0456.216s-.074.129-.129.179c-.0551.05-.1199.088-.1905.1115s-.14525.032-.21928.0249z"/></g></svg>