<svg viewBox="0 0 28 28" xmlns="http://www.w3.org/2000/svg"><g fill="#fff" transform="translate(7.257809 6.125)"><path d="m14.605091 1.65548c-.0763-.06036-.1761-.091-.2774-.0852-.1014.0058-.1961.04757-.2632.11614l-.5.44719.5093.45843.5-.45c.0752-.06115.1206-.14647.1265-.23751.0058-.09105-.0284-.18051-.0952-.24905z"/><path d="m7.517991 7.5767-.2875.7172.7969-.2587c1.4959-1.3488 4.1375-3.7207 5.6062-5.04283l-.5094-.45843s-4.7831 4.30206-5.6062 5.04276z"/><path d="m11.753091 5.4787v7.9172c-.0002.0746-.0332.146-.0918.1987-.0585.0527-.1379.0824-.2207.0826h-9.99059c-.0828-.0002-.16214-.0299-.22069-.0826-.05856-.0527-.09156-.1241-.09181-.1987v-11.96996c.00024-.07453.03324-.14594.0918-.19864.05855-.0527.1379-.0824.2207-.08261h9.99059c.0828.00021.1622.02991.2207.08261.0586.0527.0916.12411.0918.19864v1.54687c.2811-.25374.8547-.76801 1.1375005-1.02094v-.79312c.0002995-.30643-.1343005-.60047-.3745005-.81768s-.5662-.33986-.9067-.34107h-10.32814c-.34047.00121-.66653.12387-.90669.34107-.24017.21721-.37486.51125-.3745605.81768v13.43255c-.0002995.3064.1343905.6004.3745605.8176s.56622.3399.90669.3411h10.32814c.3405-.0012.6665-.1239.9067-.3411s.3748-.5112.3745005-.8176v-10.1363c-.2869005.2554-.8544005.771-1.1375005 1.0237zm-6.3781 8.9044h2.2406c.0819.0013.16.0316.2174.0842s.0896.1234.0896.1971-.0322.1445-.0896.1971-.1355.0828-.2174.0841h-2.2406c-.0821-.0011-.1604-.0312-.218-.0838s-.0899-.1235-.0899-.1974.0323-.1448.0899-.1974c.0576-.0527.1359-.0828.218-.0839z"/><path d="m3.724191 7.0288c.7572-.4848 1.4364.1233 1.6781.7228.1152.3135.3455.5823.6532.7622.1396.0223.2826.0214.4219-.0028l.4781-1.1841c.016-.0378.0405-.0723.0719-.1013l4.1-3.68996v-1.82812h-9.36567v11.40748h9.36567v-7.0734l-2.7063 2.4356c-.0332.0292-.0725.0521-.1156.0675l-1.4813.4809c-.3454.0915-.7133.0876-1.0562-.0112-.4314-.2354-.7601-.5967-.9313-1.0238-.2-.3825-.3031-.54-.5312-.5681-.4456.0024-.5889.7504-.6532 1.0744-.0116.0729-.0545.1388-.1195.1836-.0649.0448-.1468.065-.2281.0561-.0812-.0088-.1554-.0459-.2067-.1033-.0512-.0574-.0755-.1306-.0675-.2039.0156-.1041.15-1.0181.6937-1.4006z"/></g></svg>