<svg viewBox="0 0 28 28" xmlns="http://www.w3.org/2000/svg"><g fill="#fff" fill-rule="evenodd" transform="translate(6.998047 6.9939)"><path d="m2.79492268 4.2042c0-2.3219 1.88233-4.2042 4.20423-4.2042s4.20430002 1.8823 4.20430002 4.2042c0 2.322-1.88240002 4.2043-4.20430002 4.2043s-4.20423-1.8823-4.20423-4.2043z"/><path d="m2.39826268 10.4427c1.13859-.4773 2.65729-.6324 4.60299-.6324 1.9417 0 3.45810002.1544 4.59570002.6293 1.221.5097 1.9705 1.3756 2.37 2.6351.1484.4681-.2026.9398-.6879.9398h-12.55993002c-.48332 0-.8323-.4696-.68507-.9351.39833-1.2594 1.14516-2.1257 2.36421-2.6367z"/></g></svg>