<svg viewBox="0 0 28 28" xmlns="http://www.w3.org/2000/svg"><g fill="#fff" transform="translate(5.61523 3.999998)"><path d="m11.69267 4.29516201c-.0511-.03125-.1068-.05531-.1646-.07137-.4798-.13422-.9447.24653-.9327.72922l-.0078 3.89919c-.0006.3227-.2628.584-.5859.584h-.0011c-.3236-.0006-.5855-.263-.5849-.5861l.0134-7.00232c.0058-.36723-.3176-.7336-.7539-.72645-.3981 0-.7228.32074-.7272.71625l-.0118 6.67792c-.0006.3228-.2628.5841-.586.5841h-.0009c-.3236-.0006-.5856-.2629-.585-.586l.0137-7.78676c.0029-.36039-.3159-.74277-.7605-.72633-.4007 0-.7256.32434-.7256.72442v7.71687c0 .315-.2424.586-.5576.6008-.3365.0158-.61423-.2519-.61423-.5843v-6.49482c.00418-.38066-.34-.73566-.74789-.72437-.4007 0-.72554.32433-.72554.72441v10.82477999c0 .315-.24246.5861-.55762.6009-.33649.0158-.61426-.2519-.61426-.5843v-3.15599999c0-.7149-.51773-1.3113-1.19848-1.4351-.13668-.0249-.26281.0796-.26312.2184l-.01313 5.55479999c0 3.314 2.70039 6.0102 6.01967 6.0102.9213 0 1.8199-.2088 2.6368-.6068-.8381-.9385-1.3483-2.175-1.3483-3.5284 0-2.729 2.0734-4.9832 4.7298-5.2757l.0105005-5.66613999c.0002995-.25269-.1286005-.48633-.3558005-.625z"/><path d="m12.62507 20.000002c2.2853 0 4.1446-1.8563 4.1446-4.138 0-2.2818-1.8592-4.1381-4.1446-4.1381-2.2853 0-4.1446 1.8563-4.1446 4.1381 0 2.2817 1.8593 4.138 4.1446 4.138zm-1.957-5.2647c-.2288-.2285-.2288-.5988 0-.8273s.5998-.2285.8286 0l1.1284 1.1266 1.1284-1.1266c.2288-.2285.5998-.2285.8286 0 .2289.2285.2289.5988 0 .8273l-1.1284 1.1267 1.1284 1.1266c.2289.2285.2289.5989 0 .8273-.1144.1143-.2643.1714-.4143.1714-.1499 0-.2999-.0571-.4142-.1714l-1.1284-1.1266-1.1284 1.1266c-.1145.1143-.2644.1714-.4143.1714-.15 0-.3-.0571-.4143-.1714-.2289-.2284-.2289-.5988 0-.8273l1.1284-1.1266z"/></g></svg>