<svg viewBox="0 0 28 28" xmlns="http://www.w3.org/2000/svg"><path d="m17.4419 0c-1.3898 0-13.49399 0-14.88376 0-.67814 0-1.3293.26414-1.8093.73321-.47907.46998-.74884 1.10755-.74884 1.77153v9.10816c0 .664.26977 1.3016.74884 1.7715.48.4691 1.13116.7332 1.8093.7332h14.88376c.6781 0 1.3293-.2641 1.8093-.7332.479-.4699.7488-1.1075.7488-1.7715v-9.10816c0-.66398-.2698-1.30155-.7488-1.77153-.48-.46907-1.1312-.73321-1.8093-.73321zm-10.2893 7.3075c.6744-.3407 1.1348-1.0292 1.1348-1.8217 0-1.1312-.9376-2.0493-2.093-2.0493-1.1544 0-2.093.9181-2.093 2.0493 0 .7925.46139 1.481 1.13488 1.8217-.09861.0036-.19535.0282-.28372.0719 0 0-.42977.2104-.79721.3899-.55163.2705-.89954.8224-.89954 1.4254v.8033c0 .378.31256.6831.69768.6831h4.65121c.3851 0 .6976-.3051.6976-.6831v-.7733c0-.6302-.3795-1.2013-.9683-1.4573-.4205-.1821-.9266-.4016-.9266-.4016-.08-.0346-.1665-.0547-.2548-.0583zm4.2427 2.0284h4.6512c.3851 0 .6977-.3061.6977-.6831 0-.3771-.3126-.6832-.6977-.6832h-4.6512c-.3851 0-.6976.3061-.6976.6832 0 .377.3125.6831.6976.6831zm0-3.1879h2.3256c.3851 0 .6977-.306.6977-.6831s-.3126-.6831-.6977-.6831h-2.3256c-.3851 0-.6976.306-.6976.6831s.3125.6831.6976.6831z" fill="#fff" fill-rule="evenodd" transform="translate(4 7)"/></svg>