<svg viewBox="0 0 28 28" xmlns="http://www.w3.org/2000/svg"><path d="m13.6110271 2.66666566c0 .52741606-.1596489 1.04299137-.4587752 1.48152513-.2991263.43853375-.7242821.78033112-1.2216765.98216909-.4973772.20182093-1.0447179.2546358-1.5727836.15174903-.52806559-.1029038-1.01311565-.35687516-1.39382495-.72981625-.3807093-.3729411-.63997505-.84810452-.74500544-1.36538354-.10503039-.51727901-.05113594-1.05345212.15490775-1.54072888.2060437-.48727676.55496113-.90374753 1.0026161-1.19676781.4476722-.29301347.97397924-.44941021 1.51238934-.44941021.7219718 0 1.4144449.28095123 1.9249422.78105349.5104973.50008862.7972103 1.17836779.7972103 1.88560995zm5.444443 2.66667367c.5384273 0 1.0647861-.15640015 1.5123548-.44942043.4477412-.29300324.7966931-.70949105 1.0027196-1.19675078.2060264-.48727676.2599898-1.02344987.1548215-1.54074592-.1049959-.51727901-.3642961-.9924254-.7449709-1.36536649-.3806749-.3729411-.865656-.62692097-1.3937388-.72981456-.5280829-.10289528-1.0754753-.05008552-1.5728698.15174904-.4973944.20183627-.9225502.54363363-1.2216765.98215035-.2991262.43853375-.4587752.95410906-.4587752 1.48152512 0 .70724216.286713 1.38552133.7972103 1.885627.5106698.50008862 1.2030566.78104667 1.924925.78104667zm-16.33324273-5.33333711c-.53841005 0-1.06471713.15639674-1.51238933.44941021-.44767221.29302028-.7965724.70949105-1.0026161 1.19676781-.20604369.48727676-.25995538 1.02344987-.15490775 1.54072888.10503038.51727902.36429614.99244244.74500544 1.36538354.3807093.37294109.86575936.62691245 1.39382499.72981625.52804838.10288677 1.07540636.0500719 1.57281801-.15174903.49742889-.20183797.92258473-.54363534 1.22169376-.98216909.29912627-.43853376.45877522-.95410907.45877522-1.48152513 0-.70724216-.28679916-1.38552133-.79731375-1.88560995-.51051458-.50010226-1.20291863-.78105349-1.92489049-.78105349zm8.16664723 7.55600813c-.5384101 0-1.06471714.15640015-1.51238934.44942043-.44765497.29300325-.7965724.70949105-1.0026161 1.19675078-.20604369.48727676-.25993814 1.02344984-.15490775 1.54074594.10503039.517279.36429614.9924254.74500544 1.3653665s.86575936.6269295 1.39382495.7298162c.5280657.1028868 1.0754064.050089 1.5727836-.151749.4973944-.201838.9225502-.5436353 1.2216765-.9821521.2991263-.4385337.4587752-.954109.4587752-1.4815251 0-.70724214-.286713-1.38552131-.7972103-1.88562697-.5104973-.50008863-1.2029704-.78104668-1.9249422-.78104668zm8.1665955 0c-.5384273 0-1.0646137.15640015-1.5123549.44942043-.4475687.29300325-.7965206.70949105-1.0025471 1.19675078-.2060264.48727676-.2599899 1.02344984-.154994 1.54074594.104996.517279.3642962.9924254.744971 1.3653665.3808472.3729411.8658283.6269295 1.3939112.7298162.5280829.1028868 1.0754753.050089 1.5728697-.151749s.9225503-.5436353 1.2216766-.9821521c.2991262-.4385337.4587752-.954109.4587752-1.4815251 0-.70724214-.2868854-1.38552131-.7973827-1.88562697-.5104974-.50008863-1.2028842-.78104668-1.924925-.78104668zm-16.33324273 0c-.53841005 0-1.06471713.15640015-1.51238933.44942043-.44767221.29300325-.7965724.70949105-1.0026161 1.19675078-.20604369.48727676-.25995538 1.02344984-.15490775 1.54074594.10503038.517279.36429614.9924254.74500544 1.3653665s.86575936.6269295 1.39382499.7298162c.52804838.1028868 1.07540636.050089 1.57281801-.151749.49742889-.201838.92258473-.5436353 1.22169376-.9821521.29912627-.4385337.45877522-.954109.45877522-1.4815251 0-.70724214-.28679916-1.38552131-.79731375-1.88562697-.51051458-.50008863-1.20291863-.78104668-1.92489049-.78104668zm8.16664723 7.55467245c-.5384101 0-1.06471714.1564001-1.51238934.4494204-.44765497.2930203-.7965724.7094059-1.0026161 1.196836-.20604369.4872597-.25993814 1.0234158-.15490775 1.5406607.10503039.517245.36429614.9924084.74500544 1.3653495s.86575936.6269635 1.39382495.7298673c.5280657.1029038 1.0754064.050089 1.5727836-.1518001.4973944-.2018891.9225502-.5436524 1.2216765-.9821861.2991263-.4385338.4587752-.954075.4587752-1.4815422 0-.7072081-.286713-1.3854532-.7972103-1.8854907-.5104973-.5001568-1.2029704-.7811148-1.9249422-.7811148zm8.1665955 0c-.5384273 0-1.0646137.1564001-1.5123549.4494204-.4475687.2930203-.7965206.7094059-1.0025471 1.196836-.2060264.4872597-.2599899 1.0234158-.154994 1.5406607.104996.517245.3642962.9924084.744971 1.3653495.3808472.3729411.8658283.6269635 1.3939112.7298673s1.0754753.050089 1.5728697-.1518001.9225503-.5436524 1.2216766-.9821861c.2991262-.4385338.4587752-.954075.4587752-1.4815422 0-.7072081-.2868854-1.3854532-.7973827-1.8854907-.5104974-.5001568-1.2028842-.7811148-1.924925-.7811148zm-16.33324273 0c-.53841005 0-1.06471713.1564001-1.51238933.4494204-.44767221.2930203-.7965724.7094059-1.0026161 1.196836-.20604369.4872597-.25995538 1.0234158-.15490775 1.5406607.10503038.517245.36429614.9924084.74500544 1.3653495s.86575936.6269635 1.39382499.7298673c.52804838.1029038 1.07540636.050089 1.57281801-.1518001.49742889-.2018891.92258473-.5436524 1.22169376-.9821861.29912627-.4385338.45877522-.954075.45877522-1.4815422 0-.7072081-.28679916-1.3854532-.79731375-1.8854907-.51051458-.5001568-1.20291863-.7811148-1.92489049-.7811148zm8.16664723 7.5560694c-.5384101 0-1.06471714.1564002-1.51238934.4494375-.44765497.292867-.7965724.7094229-1.0026161 1.1966826-.20604369.4872598-.25993814 1.0234158-.15490775 1.5406608.10503039.5174153.36429614.9925787.74500544 1.3655198s.86575936.6267932 1.39382495.729697c.5280657.1029038 1.0754064.0500889 1.5727836-.1516298.4973944-.2018891.9225502-.5436523 1.2216765-.9821861.2991263-.4385337.4587752-.954075.4587752-1.4815422 0-.707208-.286713-1.3856235-.7972103-1.885661s-1.2029704-.7809786-1.9249422-.7809786z" transform="translate(3)"/></svg>