<svg viewBox="0 0 20 20" fill="none" xmlns="http://www.w3.org/2000/svg">
<g clip-path="url(#clip0_1_34105)">
<path d="M7.37519 14.75C8.83964 16.2145 11.214 16.2145 12.6785 14.75L12.6785 14.75L15.3552 12.0733C15.8518 11.5937 15.8655 10.8024 15.3859 10.3058C14.9063 9.80926 14.115 9.79551 13.6184 10.2751C13.608 10.2852 13.5978 10.2954 13.5877 10.3058L11.2685 12.6241L11.2494 1.25C11.2494 0.559648 10.6897 0 9.99936 0C9.30901 0 8.74936 0.559648 8.74936 1.25L8.76686 12.6058L6.46604 10.305C5.96948 9.82539 5.17815 9.83914 4.69854 10.3357C4.23069 10.8201 4.23069 11.5881 4.69854 12.0725L7.37519 14.75Z" fill="#4AA3EF"/>
<path d="M18.75 12.082C18.0596 12.082 17.5 12.6417 17.5 13.332V17.1579C17.4995 17.3459 17.3472 17.4982 17.1592 17.4987H2.84082C2.65277 17.4982 2.50043 17.3459 2.5 17.1579V13.332C2.5 12.6417 1.94035 12.082 1.25 12.082C0.559648 12.082 0 12.6417 0 13.332V17.1579C0.00183594 18.7261 1.27266 19.9969 2.84082 19.9987H17.1591C18.7273 19.9969 19.9981 18.7261 20 17.1579V13.3321C20 12.6417 19.4404 12.082 18.75 12.082Z" fill="#4AA3EF"/>
</g>
<defs>
<clipPath id="clip0_1_34105">
<rect width="20" height="20" fill="white"/>
</clipPath>
</defs>
</svg>
