<svg viewBox="0 0 20 20" fill="none" xmlns="http://www.w3.org/2000/svg">
<path d="M10 0C4.47734 0 0 4.47734 0 10C0 15.5227 4.47734 20 10 20C15.5227 20 20 15.5227 20 10C20 4.47734 15.5227 0 10 0ZM14.8598 8.20312L9.25781 13.8066L9.24492 13.8195C9.11379 13.9507 8.95811 14.0547 8.78676 14.1257C8.61541 14.1967 8.43176 14.2332 8.24629 14.2332C8.06082 14.2332 7.87717 14.1967 7.70582 14.1257C7.53447 14.0547 7.37879 13.9507 7.24766 13.8195L7.22227 13.7937L5.1457 11.7188C5.01282 11.5859 4.9074 11.4283 4.83548 11.2547C4.76356 11.0811 4.72654 10.8951 4.72654 10.7072C4.72654 10.5194 4.76356 10.3333 4.83548 10.1598C4.9074 9.9862 5.01282 9.82851 5.1457 9.6957C5.2785 9.56288 5.43617 9.45751 5.60969 9.38562C5.78322 9.31373 5.9692 9.27673 6.15703 9.27673C6.34486 9.27673 6.53085 9.31373 6.70437 9.38562C6.8779 9.45751 7.03556 9.56288 7.16836 9.6957L8.24531 10.7727L12.8367 6.18047C12.9679 6.04929 13.1236 5.94524 13.295 5.87425C13.4664 5.80326 13.65 5.76672 13.8355 5.76672C14.021 5.76672 14.2047 5.80326 14.3761 5.87425C14.5475 5.94524 14.7032 6.04929 14.8344 6.18047L14.8598 6.20625C15.1245 6.47107 15.2733 6.83021 15.2733 7.20469C15.2733 7.57917 15.1245 7.93831 14.8598 8.20312Z" fill="#44D453"/>
</svg>
