<svg viewBox="0 0 20 20" xmlns="http://www.w3.org/2000/svg">

<path d="M10 0C4.48593 0 0 4.48593 0 10C0 15.5141 4.48593 20 10 20C15.5141 20 20 15.5141 20 10C20 4.48593 15.5141 0 10 0ZM15.0393 8.75407L9.67481 14.1193C9.24437 14.5498 8.53963 14.5559 8.10296 14.1193L4.96074 10.9763C4.52667 10.5422 4.52667 9.83852 4.96074 9.40519C5.39407 8.97111 6.09778 8.97111 6.53185 9.40519L8.88889 11.7622L13.4681 7.18296C13.9022 6.74889 14.6059 6.74889 15.0393 7.18296C15.4733 7.6163 15.4733 8.32 15.0393 8.75407Z" />

</svg>
