<svg viewBox="0 0 16 16" xmlns="http://www.w3.org/2000/svg">
<path fill-rule="evenodd" clip-rule="evenodd" d="M15.9486 14.8542H13.6725V1.14063C13.6685 0.839067 13.5483 0.550673 13.337 0.335469C13.2315 0.229235 13.1061 0.144905 12.9679 0.0873295C12.8298 0.029754 12.6815 6.97858e-05 12.5319 -1.52588e-05H3.41701C3.11321 0.000487847 2.82194 0.121081 2.60669 0.335469C2.39683 0.551192 2.27848 0.839679 2.27637 1.14063V7.99998H5.67766C6.28227 8.00271 6.86119 8.24481 7.28775 8.67331C7.71432 9.10181 7.95379 9.68182 7.95379 10.2864V16H15.9486C16.1006 16 16.2463 15.9396 16.3537 15.8322C16.4612 15.7247 16.5215 15.579 16.5215 15.4271C16.5215 15.2751 16.4612 15.1294 16.3537 15.022C16.2463 14.9145 16.1006 14.8542 15.9486 14.8542ZM11.3912 8.57289C11.2777 8.57391 11.1664 8.54118 11.0715 8.47886C10.9766 8.41653 10.9024 8.32741 10.8582 8.22283C10.8141 8.11823 10.802 8.00288 10.8235 7.89141C10.845 7.77994 10.8992 7.67738 10.9791 7.59674C11.059 7.5161 11.1611 7.46102 11.2724 7.4385C11.3836 7.41597 11.4991 7.42701 11.6041 7.47022C11.7091 7.51342 11.7988 7.58684 11.862 7.68117C11.9252 7.77549 11.9589 7.88646 11.9589 7.99998C11.959 8.15104 11.8993 8.29598 11.793 8.40327C11.6867 8.51057 11.5423 8.57153 11.3912 8.57289Z" />
<path fill-rule="evenodd" clip-rule="evenodd" d="M5.67743 9.14059H1.14066C0.99043 9.14059 0.841682 9.17027 0.702955 9.22791C0.564229 9.28556 0.438255 9.37004 0.332269 9.47651C0.226282 9.58297 0.142371 9.70932 0.0853522 9.84831C0.0283339 9.9873 -0.000668082 10.1362 1.16782e-05 10.2864V14.8593C1.16782e-05 15.1618 0.120186 15.452 0.334099 15.6659C0.548011 15.8798 0.838139 16 1.14066 16H6.81808V10.2864C6.81876 10.1362 6.78975 9.9873 6.73274 9.84831C6.67572 9.70932 6.59181 9.58297 6.48582 9.47651C6.37983 9.37004 6.25386 9.28556 6.11513 9.22791C5.97641 9.17027 5.82766 9.14059 5.67743 9.14059ZM3.81937 11.9999H2.9884C2.8465 11.9864 2.71474 11.9205 2.61884 11.815C2.52295 11.7096 2.46981 11.5722 2.46981 11.4296C2.46981 11.2871 2.52295 11.1497 2.61884 11.0442C2.71474 10.9387 2.8465 10.8728 2.9884 10.8593H3.84001C3.91947 10.8517 3.99963 10.8609 4.07535 10.8861C4.15108 10.9113 4.2207 10.9521 4.27975 11.0058C4.3388 11.0595 4.38598 11.1249 4.41827 11.1979C4.45055 11.2709 4.46723 11.3498 4.46723 11.4296C4.46723 11.5094 4.45055 11.5884 4.41827 11.6614C4.38598 11.7344 4.3388 11.7998 4.27975 11.8535C4.2207 11.9072 4.15108 11.948 4.07535 11.9732C3.99963 11.9984 3.91947 12.0075 3.84001 11.9999H3.81937Z" />
</svg>
