<svg viewBox="0 0 20 20" xmlns="http://www.w3.org/2000/svg">
<path d="M15.4318 6.96517C15.3247 6.85795 15.1974 6.77289 15.0574 6.71486C14.9174 6.65682 14.7673 6.62695 14.6157 6.62695C14.4641 6.62695 14.314 6.65682 14.1739 6.71486C14.0339 6.77289 13.9067 6.85795 13.7995 6.96517L10.2718 10.4921C10.1997 10.5642 10.1019 10.6047 9.9999 10.6047C9.89791 10.6047 9.8001 10.5642 9.72798 10.4921L6.20105 6.96517C5.9847 6.74871 5.69122 6.62707 5.38517 6.62699C5.07913 6.62692 4.78559 6.74843 4.56913 6.96478C4.35267 7.18114 4.23103 7.47462 4.23096 7.78067C4.23088 8.08671 4.35239 8.38025 4.56875 8.59671L8.09644 12.1244C8.34645 12.3744 8.64326 12.5728 8.96992 12.7081C9.29658 12.8434 9.6467 12.9131 10.0003 12.9131C10.3539 12.9131 10.704 12.8434 11.0307 12.7081C11.3573 12.5728 11.6541 12.3744 11.9041 12.1244L15.4318 8.59671C15.6481 8.38033 15.7697 8.0869 15.7697 7.78094C15.7697 7.47498 15.6481 7.18155 15.4318 6.96517Z" />
</svg>
