<svg viewBox="0 0 22 22" xmlns="http://www.w3.org/2000/svg">
<path d="M11 13.5C11.663 13.5 12.2989 13.2366 12.7678 12.7678C13.2366 12.2989 13.5 11.663 13.5 11C13.5 10.337 13.2366 9.70107 12.7678 9.23223C12.2989 8.76339 11.663 8.5 11 8.5C10.337 8.5 9.70107 8.76339 9.23223 9.23223C8.76339 9.70107 8.5 10.337 8.5 11C8.5 11.663 8.76339 12.2989 9.23223 12.7678C9.70107 13.2366 10.337 13.5 11 13.5Z" />
<path d="M20.1752 10.32C19.141 8.72167 17.8002 7.36417 16.2969 6.39333C14.6335 5.31833 12.7977 4.75 10.9877 4.75C9.32687 4.75 7.69354 5.225 6.13354 6.16083C4.54187 7.115 3.10021 8.50917 1.84937 10.3042C1.708 10.507 1.63014 10.7473 1.62569 10.9945C1.62124 11.2417 1.6904 11.4847 1.82437 11.6925C2.85604 13.3067 4.18271 14.6667 5.66271 15.6242C7.32937 16.7033 9.12187 17.25 10.9877 17.25C12.8127 17.25 14.6519 16.6867 16.3077 15.62C17.8102 14.6533 19.1494 13.29 20.1785 11.6783C20.3079 11.4752 20.3762 11.2393 20.3755 10.9986C20.3747 10.7578 20.3058 10.5223 20.1752 10.32ZM11.0002 14.75C10.0056 14.75 9.05182 14.3549 8.34856 13.6516C7.6453 12.9484 7.25021 11.9946 7.25021 11C7.25021 10.0054 7.6453 9.05161 8.34856 8.34835C9.05182 7.64509 10.0056 7.25 11.0002 7.25C11.9948 7.25 12.9486 7.64509 13.6519 8.34835C14.3551 9.05161 14.7502 10.0054 14.7502 11C14.7502 11.9946 14.3551 12.9484 13.6519 13.6516C12.9486 14.3549 11.9948 14.75 11.0002 14.75Z" />
</svg>
