<svg viewBox="0 0 16 16" xmlns="http://www.w3.org/2000/svg"><path d="m8.66502471 15.9999531c-.14425 0-.2846-.0467-.4-.1333l-2.66667-2c-.0828-.0621-.15-.1426-.19628-.2352-.04629-.0925-.07038-.1946-.07038-.2981v-3.74668998l-4.67734-5.262c-.33219-.37474-.54908-.83745-.62461-1.33251-.07553-.49505-.00649-1.00139.19883-1.45814.20532-.45676.53818-.844507.95857-1.116636s.91043-.41706085 1.41121-.41737712h9.46671999c.5007.00058736.9906.14575912 1.4108.41807112.4203.272312.7529.660172.958 1.116982s.2739.96313.1982 1.45811-.2928.95757-.625 1.33217l-4.67539999 5.26133v5.74668998c0 .1768-.0702.3464-.1952.4714-.1251.125-.2946.1952-.47145.1952z" transform="translate(.68 -.001953)"/></svg>