<svg viewBox="0 0 12 13" xmlns="http://www.w3.org/2000/svg">
<path d="M10.486 7.15519L9.40643 7.41371C9.27063 7.44845 9.14072 7.50332 9.02098 7.5765L8.14297 7.03476C8.23779 6.68469 8.23779 6.31548 8.14297 5.9654L9.02098 5.42366C9.14072 5.49685 9.27063 5.55172 9.40643 5.58646C9.40643 5.58646 10.5882 5.86306 10.6392 5.86306C11.0028 5.85957 11.2948 5.56048 11.2913 5.19501C11.2885 4.89316 11.0827 4.63151 10.7911 4.55899L9.70977 4.29915C9.68522 4.29315 9.66422 4.27715 9.65182 4.25504C9.63853 4.23375 9.63442 4.20796 9.64042 4.18358L9.89767 3.09833C10.0029 2.7485 9.80601 2.37918 9.45789 2.27343C9.10977 2.16768 8.74223 2.36553 8.637 2.71536C8.62919 2.7413 8.62299 2.76767 8.6184 2.79438L8.36115 3.87962C8.33097 4.01563 8.32105 4.15537 8.33174 4.29431L7.45373 4.83825C7.22803 4.64293 6.96493 4.49609 6.68064 4.40681V3.36787C6.80524 3.30443 6.9195 3.22231 7.01955 3.12435L7.80493 2.33556C8.06206 2.07705 8.06196 1.65802 7.8047 1.39966C7.54745 1.14127 7.13046 1.14137 6.87335 1.39989L6.0884 2.18909C6.05207 2.22564 5.99315 2.22568 5.95678 2.18917L5.9567 2.18909L5.17088 1.39986C4.91362 1.14135 4.49656 1.14135 4.2393 1.39986C3.98205 1.65838 3.98205 2.07749 4.2393 2.336L5.02469 3.12479C5.12475 3.22258 5.23904 3.30455 5.36359 3.36787V4.40681C5.07993 4.4969 4.81759 4.64432 4.5927 4.84002L3.71248 4.29431C3.72347 4.15436 3.71355 4.01353 3.68307 3.87653L3.42581 2.79438C3.34716 2.43757 2.99554 2.21239 2.64047 2.29143C2.2854 2.37047 2.06132 2.72381 2.13997 3.08062C2.14148 3.08743 2.14309 3.09422 2.14481 3.10097L2.40206 4.18621C2.40806 4.21062 2.40394 4.23641 2.39065 4.25768C2.37825 4.27981 2.35726 4.29578 2.33271 4.30179L1.25318 4.55897C0.899411 4.64385 0.681092 5.00082 0.765555 5.35629C0.836234 5.65383 1.10066 5.86391 1.40506 5.86437C1.45598 5.86437 2.63778 5.58777 2.63778 5.58777C2.77358 5.55303 2.90349 5.49816 3.02323 5.42497L3.90124 5.96671C3.80642 6.31679 3.80642 6.68599 3.90124 7.03607L3.02323 7.57781C2.90349 7.50463 2.77358 7.44976 2.63778 7.41502L1.55825 7.1565C1.21067 7.04897 0.842145 7.24497 0.735134 7.59426C0.628124 7.94355 0.823173 8.31387 1.17076 8.42141C1.19777 8.42976 1.2253 8.43636 1.25314 8.44116L2.33266 8.69967C2.35722 8.70567 2.37821 8.72166 2.39061 8.74378C2.4039 8.76507 2.40801 8.79086 2.40202 8.81524L2.14479 9.90051C2.05993 10.256 2.2779 10.6133 2.63165 10.6986C2.98539 10.7838 3.34096 10.5648 3.42581 10.2093L3.68307 9.12407C3.71359 8.98693 3.72351 8.84596 3.71248 8.70586L4.5927 8.16192C4.81759 8.35761 5.07993 8.50504 5.36359 8.59513V9.6323C5.23908 9.69607 5.12484 9.77831 5.02469 9.87625L4.2393 10.6641C3.98205 10.9227 3.98205 11.3418 4.2393 11.6003C4.49656 11.8588 4.91362 11.8588 5.17088 11.6003L5.95583 10.8111C5.99216 10.7745 6.05108 10.7745 6.08745 10.811L6.08754 10.8111L6.87249 11.6003C7.12974 11.8588 7.54681 11.8588 7.80406 11.6003C8.06132 11.3418 8.06132 10.9227 7.80406 10.6641L7.01868 9.87536C6.91874 9.77779 6.80478 9.69586 6.68064 9.63227V8.59334C6.96431 8.50325 7.22665 8.35582 7.45154 8.16013L8.32955 8.70407C8.31855 8.84402 8.32847 8.98485 8.35896 9.12185L8.61621 10.2071C8.70107 10.5626 9.05663 10.7816 9.41038 10.6963C9.76412 10.6111 9.98209 10.2538 9.89724 9.89828L9.63998 8.81304C9.63399 8.78864 9.6381 8.76284 9.65139 8.74158C9.66379 8.71944 9.68479 8.70347 9.70934 8.69747L10.7889 8.43896C11.1426 8.35368 11.3606 7.99638 11.2757 7.6409C11.1909 7.28543 10.8353 7.06639 10.4816 7.15166L10.486 7.15519ZM6.02211 7.38239C5.53719 7.38239 5.1441 6.98737 5.1441 6.50008C5.1441 6.0128 5.53719 5.61778 6.02211 5.61778C6.50702 5.61778 6.90012 6.0128 6.90012 6.50008C6.90012 6.98737 6.50702 7.38239 6.02211 7.38239Z" />
</svg>
