<svg viewBox="0 0 16 16" xmlns="http://www.w3.org/2000/svg">
<g clip-path="url(#clip0_210_20770)">
<path d="M9.94607 15.2003H2.09807C1.70676 15.1998 1.33161 15.0441 1.05491 14.7674C0.778206 14.4907 0.622547 14.1156 0.62207 13.7243L0.62207 5.87627C0.622547 5.48496 0.778206 5.10981 1.05491 4.8331C1.33161 4.5564 1.70676 4.40074 2.09807 4.40027H9.94607C10.3374 4.40074 10.7125 4.5564 10.9892 4.8331C11.2659 5.10981 11.4216 5.48496 11.4221 5.87627V13.7243C11.4216 14.1156 11.2659 14.4907 10.9892 14.7674C10.7125 15.0441 10.3374 15.1998 9.94607 15.2003ZM2.09807 5.60027C2.06171 5.59987 2.02564 5.60673 1.99198 5.62046C1.95831 5.63419 1.92772 5.6545 1.90201 5.68021C1.8763 5.70592 1.85599 5.73651 1.84226 5.77017C1.82853 5.80384 1.82167 5.83991 1.82207 5.87627V13.7243C1.82167 13.7606 1.82853 13.7967 1.84226 13.8304C1.85599 13.864 1.8763 13.8946 1.90201 13.9203C1.92772 13.946 1.95831 13.9663 1.99198 13.9801C2.02564 13.9938 2.06171 14.0007 2.09807 14.0003H9.94607C9.98243 14.0007 10.0185 13.9938 10.0522 13.9801C10.0858 13.9663 10.1164 13.946 10.1421 13.9203C10.1678 13.8946 10.1882 13.864 10.2019 13.8304C10.2156 13.7967 10.2225 13.7606 10.2221 13.7243V5.87627C10.2225 5.83991 10.2156 5.80384 10.2019 5.77017C10.1882 5.73651 10.1678 5.70592 10.1421 5.68021C10.1164 5.6545 10.0858 5.63419 10.0522 5.62046C10.0185 5.60673 9.98243 5.59987 9.94607 5.60027H2.09807Z" />
<path d="M3.02169 13.4C2.90315 13.3994 2.78745 13.3637 2.68919 13.2974C2.59092 13.231 2.51451 13.1371 2.46958 13.0274C2.42464 12.9177 2.41321 12.7972 2.43673 12.681C2.46024 12.5648 2.51764 12.4582 2.60169 12.3746L6.03309 8.95999C6.0886 8.90286 6.15494 8.85736 6.22822 8.82614C6.30151 8.79492 6.38028 8.7786 6.45994 8.77815C6.53959 8.77769 6.61854 8.7931 6.69218 8.82348C6.76582 8.85385 6.83268 8.89859 6.88885 8.95508C6.94501 9.01156 6.98937 9.07867 7.01933 9.15248C7.04929 9.22629 7.06425 9.30532 7.06334 9.38498C7.06244 9.46463 7.04567 9.54331 7.01404 9.61642C6.9824 9.68952 6.93653 9.7556 6.87909 9.81079L3.44469 13.2254C3.33229 13.3372 3.18022 13.4 3.02169 13.4Z" />
<path d="M6.62148 12.8003C6.46235 12.8003 6.30974 12.7371 6.19722 12.6246C6.0847 12.5121 6.02148 12.3595 6.02148 12.2003V9.80034H3.62148C3.46235 9.80034 3.30974 9.73713 3.19722 9.62461C3.0847 9.51208 3.02148 9.35947 3.02148 9.20034C3.02148 9.04121 3.0847 8.8886 3.19722 8.77608C3.30974 8.66356 3.46235 8.60034 3.62148 8.60034H6.62148C6.78061 8.60034 6.93323 8.66356 7.04575 8.77608C7.15827 8.8886 7.22148 9.04121 7.22148 9.20034V12.2003C7.22148 12.3595 7.15827 12.5121 7.04575 12.6246C6.93323 12.7371 6.78061 12.8003 6.62148 12.8003Z" />
<path d="M13.5457 11.6003H10.8217C10.6625 11.6003 10.5099 11.5371 10.3974 11.4246C10.2849 11.312 10.2217 11.1594 10.2217 11.0003V5.87629C10.2221 5.83994 10.2152 5.80387 10.2015 5.7702C10.1878 5.73653 10.1674 5.70595 10.1417 5.68024C10.116 5.65453 10.0854 5.63421 10.0518 5.62048C10.0181 5.60676 9.98204 5.59989 9.94568 5.60029H4.82168C4.66255 5.60029 4.50994 5.53708 4.39742 5.42456C4.28489 5.31203 4.22168 5.15942 4.22168 5.00029V2.27629C4.22216 1.88498 4.37782 1.50983 4.65452 1.23313C4.93122 0.956429 5.30637 0.800769 5.69768 0.800293H13.5457C13.937 0.800769 14.3121 0.956429 14.5888 1.23313C14.8655 1.50983 15.0212 1.88498 15.0217 2.27629V10.1243C15.0212 10.5156 14.8655 10.8908 14.5888 11.1675C14.3121 11.4442 13.937 11.5998 13.5457 11.6003ZM11.4217 10.4003H13.5457C13.582 10.4007 13.6181 10.3938 13.6518 10.3801C13.6854 10.3664 13.716 10.3461 13.7417 10.3203C13.7674 10.2946 13.7878 10.2641 13.8015 10.2304C13.8152 10.1967 13.8221 10.1606 13.8217 10.1243V2.27629C13.8221 2.23994 13.8152 2.20387 13.8015 2.1702C13.7878 2.13653 13.7674 2.10595 13.7417 2.08024C13.716 2.05453 13.6854 2.03421 13.6518 2.02048C13.6181 2.00676 13.582 1.99989 13.5457 2.00029H5.69768C5.66132 1.99989 5.62525 2.00676 5.59159 2.02048C5.55792 2.03421 5.52733 2.05453 5.50162 2.08024C5.47591 2.10595 5.4556 2.13653 5.44187 2.1702C5.42814 2.20387 5.42128 2.23994 5.42168 2.27629V4.40029H9.94568C10.337 4.40077 10.7121 4.55643 10.9888 4.83313C11.2655 5.10983 11.4212 5.48498 11.4217 5.87629V10.4003Z" />
</g>
<defs>
<clipPath id="clip0_210_20770">
<rect width="14.4" height="14.4" fill="white" transform="translate(0.62207 0.800049)"/>
</clipPath>
</defs>
</svg>
