<svg viewBox="0 0 16 16" xmlns="http://www.w3.org/2000/svg">
<path fill-rule="evenodd" clip-rule="evenodd" d="M0.565796 7.93213H3.26905V15.9998H0.565796V7.93213Z" />
<path fill-rule="evenodd" clip-rule="evenodd" d="M4.62103 4.5957H7.32429V16.0004H4.62103V4.5957Z" />
<path fill-rule="evenodd" clip-rule="evenodd" d="M8.6759 7.93213H11.3792V15.9998H8.6759V7.93213Z" />
<path fill-rule="evenodd" clip-rule="evenodd" d="M12.7308 4.46875H15.4341V16H12.7308V4.46875Z" />
<path d="M1.9174 6.07638C2.64065 6.07638 3.22695 5.49007 3.22695 4.76683C3.22695 4.04358 2.64065 3.45728 1.9174 3.45728C1.19416 3.45728 0.607849 4.04358 0.607849 4.76683C0.607849 5.49007 1.19416 6.07638 1.9174 6.07638Z" />
<path d="M5.9727 2.72799C6.69594 2.72799 7.28225 2.14168 7.28225 1.41844C7.28225 0.695193 6.69594 0.108887 5.9727 0.108887C5.24945 0.108887 4.66315 0.695193 4.66315 1.41844C4.66315 2.14168 5.24945 2.72799 5.9727 2.72799Z" />
<path d="M10.0276 6.0859C10.7508 6.0859 11.3371 5.49959 11.3371 4.77635C11.3371 4.0531 10.7508 3.4668 10.0276 3.4668C9.30432 3.4668 8.71802 4.0531 8.71802 4.77635C8.71802 5.49959 9.30432 6.0859 10.0276 6.0859Z" />
<path d="M14.0824 2.6191C14.8057 2.6191 15.392 2.0328 15.392 1.30955C15.392 0.586306 14.8057 0 14.0824 0C13.3592 0 12.7729 0.586306 12.7729 1.30955C12.7729 2.0328 13.3592 2.6191 14.0824 2.6191Z" />
<path d="M2.32123 3.61982L4.86832 1.71289L5.29333 2.27956L2.74624 4.1865L2.32123 3.61982Z" />
<path d="M7.20725 1.59229L9.46339 3.84783L8.96337 4.35061L6.70728 2.09507L7.20725 1.59229Z" />
<path d="M10.6907 3.98053L12.9803 1.69092L13.4831 2.1937L11.1935 4.48331L10.6907 3.98053Z" />
</svg>
