<svg viewBox="0 0 20 20" xmlns="http://www.w3.org/2000/svg">
<path fill-rule="evenodd" clip-rule="evenodd" d="M10.76 8.39906C11.08 7.91906 11.52 7.55906 12.04 7.33906C12.78 7.01906 13.32 6.53906 13.7 5.81906C12.12 6.01906 10.98 5.93906 10.24 5.65906C8.98 5.17906 7.56 5.01906 6.02 5.11906C6.1 5.35906 6.18 5.59906 6.3 5.81906C6.66 6.53906 7.22 7.03906 7.96 7.33906C8.48 7.55906 8.94 7.93906 9.24 8.39906C10.12 9.53906 9.94 9.81906 10.76 8.39906ZM5.66 17.4191L4.8 17.3991C4.76 15.9191 4.96 14.6991 5.44 13.7791C5.9 12.8791 6.6 12.2191 7.56 11.8191C7.92 11.6591 8.22 11.4191 8.44 11.0991C8.66 10.7791 8.76 10.4191 8.76 10.0191C8.76 9.61906 8.64 9.25906 8.44 8.93906C8.22 8.61906 7.92 8.37906 7.56 8.21906C6.6 7.79906 5.9 7.15906 5.44 6.25906C4.98 5.29906 4.76 4.07906 4.8 2.59906H15.2C15.24 4.07906 15.04 5.29906 14.56 6.21906C14.1 7.11906 13.4 7.77906 12.44 8.17906C12.08 8.33906 11.78 8.57906 11.56 8.89906C11.34 9.21906 11.22 9.57906 11.22 9.97906C11.22 10.3791 11.34 10.7391 11.54 11.0591C11.76 11.3791 12.06 11.6191 12.42 11.7791C13.38 12.1991 14.08 12.8391 14.54 13.7391C15.02 14.6791 15.22 15.8991 15.18 17.3591L14.44 17.3991C12.84 15.0191 11.26 13.6391 9.7 13.5591C8.5 13.4991 7.14 14.8591 5.66 17.4191ZM16.96 17.4191C17.54 17.4191 18 17.8791 18 18.4591C18 19.0391 17.54 19.4991 16.96 19.4991H3.04C2.46 19.4991 2 19.0391 2 18.4591C2 17.8791 2.46 17.4191 3.04 17.4191H3.7C3.64 15.7591 3.9 14.3791 4.46 13.2791C5.04 12.1391 5.92 11.3191 7.14 10.7991C7.3 10.7391 7.44 10.6191 7.52 10.4791C7.6 10.3391 7.66 10.1791 7.66 10.0191C7.66 9.85906 7.6 9.69906 7.52 9.55906C7.42 9.41906 7.3 9.31906 7.14 9.23906C5.94 8.71906 5.04 7.89906 4.46 6.75906C3.9 5.65906 3.66 4.27906 3.7 2.61906H3.04C2.46 2.61906 2 2.15906 2 1.57906C2 0.999062 2.46 0.539062 3.04 0.539062H16.96C17.54 0.539062 18 0.999062 18 1.57906C18 2.15906 17.54 2.61906 16.96 2.61906H16.3C16.36 4.27906 16.1 5.65906 15.54 6.75906C14.96 7.89906 14.08 8.71906 12.86 9.23906C12.7 9.29906 12.56 9.41906 12.48 9.55906C12.4 9.69906 12.34 9.85906 12.34 10.0191C12.34 10.1791 12.4 10.3391 12.48 10.4791C12.58 10.6191 12.72 10.7391 12.88 10.7991C14.08 11.3191 14.98 12.1391 15.56 13.2791C16.12 14.3791 16.36 15.7591 16.32 17.4191H16.96Z" />
</svg>
