<svg viewBox="0 0 17 18" xmlns="http://www.w3.org/2000/svg">
<path d="M16.715 8.36467L9.06518 1.56479C8.90952 1.42619 8.70837 1.34961 8.49994 1.34961C8.29152 1.34961 8.09036 1.42619 7.9347 1.56479L0.284844 8.36467C0.201463 8.43889 0.133518 8.52882 0.0848901 8.62931C0.0362618 8.72979 0.00790203 8.83887 0.00142991 8.95032C-0.00504222 9.06177 0.0105001 9.1734 0.0471695 9.27884C0.0838389 9.38428 0.140917 9.48146 0.215146 9.56484C0.289374 9.64822 0.379299 9.71617 0.479785 9.7648C0.580272 9.81343 0.689353 9.84179 0.8008 9.84826C0.912246 9.85473 1.02388 9.83919 1.12932 9.80252C1.23476 9.76585 1.33194 9.70877 1.41532 9.63454L1.70007 9.37955V15.7995C1.70007 16.0249 1.78962 16.2411 1.94902 16.4005C2.10843 16.5599 2.32462 16.6495 2.55005 16.6495H5.94999C6.17542 16.6495 6.39162 16.5599 6.55102 16.4005C6.71042 16.2411 6.79997 16.0249 6.79997 15.7995V13.2495C6.79997 13.0241 6.88953 12.8079 7.04893 12.6485C7.20833 12.4891 7.42453 12.3995 7.64996 12.3995H9.34993C9.57536 12.3995 9.79155 12.4891 9.95096 12.6485C10.1104 12.8079 10.1999 13.0241 10.1999 13.2495V15.7995C10.1999 16.0249 10.2895 16.2411 10.4489 16.4005C10.6083 16.5599 10.8245 16.6495 11.0499 16.6495H14.4498C14.6753 16.6495 14.8915 16.5599 15.0509 16.4005C15.2103 16.2411 15.2998 16.0249 15.2998 15.7995V9.38125L15.5846 9.63624C15.6679 9.71047 15.7651 9.76755 15.8706 9.80422C15.976 9.84089 16.0876 9.85643 16.1991 9.84996C16.3105 9.84349 16.4196 9.81513 16.5201 9.7665C16.6206 9.71787 16.7105 9.64993 16.7847 9.56654C16.859 9.48316 16.916 9.38598 16.9527 9.28054C16.9894 9.1751 17.0049 9.06347 16.9985 8.95202C16.992 8.84057 16.9636 8.73149 16.915 8.631C16.8664 8.53052 16.7984 8.44059 16.715 8.36637V8.36467Z" />
</svg>
