<svg viewBox="0 0 12 13" xmlns="http://www.w3.org/2000/svg">
<path d="M4.4689 8.55583C4.06313 8.79011 3.81104 9.22673 3.81104 9.69529V12.4758C3.91777 12.4462 4.0208 12.4031 4.11734 12.3474L6.26098 11.1098C6.66675 10.8755 6.91885 10.4389 6.91885 9.97033V7.49505C6.91885 7.38358 6.9046 7.27281 6.87687 7.16559L4.4689 8.55583Z" />
<path d="M11.9579 2.74786L9.54993 4.13811C9.14416 4.37239 8.89209 4.80898 8.89209 5.27754V8.05805C8.99882 8.02845 9.10183 7.98542 9.19837 7.92966L11.342 6.69202C11.7478 6.45774 11.9999 6.02115 11.9999 5.55258V3.0773C11.9999 2.96583 11.9856 2.85509 11.9579 2.74786Z" />
<path d="M6.52484 6.55689C6.44656 6.47976 6.35817 6.41182 6.26084 6.35561L4.1172 5.11797C3.71142 4.88369 3.20724 4.88369 2.80146 5.11797L0.657822 6.35561C0.560486 6.41182 0.472104 6.47976 0.393799 6.55689L2.80146 7.94695C3.06797 8.10081 3.29107 8.31168 3.45933 8.55878C3.62759 8.31166 3.85069 8.10079 4.11722 7.94692L6.52484 6.55689Z" />
<path d="M2.44995 8.55583L0.0419766 7.16559C0.0142266 7.27281 0 7.38356 0 7.49503V9.97028C0 10.4388 0.25207 10.8755 0.657867 11.1097L2.80151 12.3474C2.89805 12.4031 3.00108 12.4462 3.10781 12.4757V9.69527C3.10781 9.22671 2.85574 8.79009 2.44995 8.55583Z" />
<path d="M11.6061 2.13886C11.5278 2.06172 11.4394 1.9938 11.3421 1.9376L9.19845 0.699933C8.79268 0.465675 8.28851 0.465652 7.88274 0.699933L5.7391 1.93757C5.64176 1.99378 5.55338 2.0617 5.4751 2.13883L7.88276 3.52889C8.14927 3.68275 8.37237 3.8936 8.54063 4.14072C8.70889 3.8936 8.93199 3.68273 9.1985 3.52889L11.6061 2.13886Z" />
<path d="M7.53124 4.13811L5.12328 2.74786C5.09553 2.85509 5.0813 2.96583 5.0813 3.0773V4.86291L6.61249 5.74695C7.23513 6.10641 7.62192 6.77635 7.62192 7.49534V7.77905L7.88281 7.92968C7.97935 7.98542 8.08238 8.02847 8.18911 8.05807V5.27754C8.18909 4.809 7.93702 4.37239 7.53124 4.13811Z" />

</svg>
