<svg viewBox="0 0 14 15" xmlns="http://www.w3.org/2000/svg">
<path d="M12.3261 3.84773H10.8652L10.0587 2.63034C9.75435 2.17382 9.22174 1.8999 8.67391 1.8999H5.32609C4.77826 1.8999 4.24565 2.17382 3.9413 2.63034L3.13478 3.84773H1.67391C0.745652 3.84773 0 4.59338 0 5.52164V11.426C0 12.3542 0.745652 13.0999 1.67391 13.0999H12.3261C13.2543 13.0999 14 12.3542 14 11.426V5.52164C14 4.59338 13.2543 3.84773 12.3261 3.84773ZM7 11.7303C4.91522 11.7303 3.22609 10.0412 3.22609 7.95642C3.22609 5.87164 4.91522 4.19773 7 4.19773C9.08478 4.19773 10.7739 5.88686 10.7739 7.97164C10.7739 10.0412 9.08478 11.7303 7 11.7303ZM12.113 6.20642C12.0978 6.20642 12.0826 6.20642 12.0522 6.20642H11.4435C11.1696 6.19121 10.9565 5.96295 10.9717 5.68903C10.987 5.43034 11.1848 5.23251 11.4435 5.21729H12.0522C12.3261 5.20208 12.5543 5.41512 12.5696 5.68903C12.5848 5.96295 12.387 6.19121 12.113 6.20642Z" />
<path d="M7.00002 5.87183C5.8435 5.87183 4.90002 6.8153 4.90002 7.97183C4.90002 9.12835 5.8435 10.0566 7.00002 10.0566C8.15655 10.0566 9.10002 9.11313 9.10002 7.95661C9.10002 6.80009 8.15655 5.87183 7.00002 5.87183Z" />
</svg>
