<svg viewBox="0 0 14 14" xmlns="http://www.w3.org/2000/svg">
<path d="M13.6225 6.08932C13.6222 6.089 13.6219 6.08868 13.6216 6.08836L7.91069 0.377686C7.66727 0.134155 7.34363 0 6.99937 0C6.65512 0 6.33148 0.134048 6.08795 0.377579L0.38005 6.08537C0.378127 6.0873 0.376205 6.08932 0.374282 6.09125C-0.125596 6.59401 -0.124741 7.40973 0.376739 7.91121C0.605849 8.14043 0.908446 8.27319 1.23198 8.28708C1.24512 8.28836 1.25836 8.289 1.27171 8.289H1.49933V12.4917C1.49933 13.3233 2.17598 14 3.00783 14H5.24211C5.46855 14 5.65227 13.8164 5.65227 13.5898V10.2949C5.65227 9.91542 5.96095 9.60674 6.34045 9.60674H7.65829C8.0378 9.60674 8.34648 9.91542 8.34648 10.2949V13.5898C8.34648 13.8164 8.53009 14 8.75664 14H10.9909C11.8228 14 12.4994 13.3233 12.4994 12.4917V8.289H12.7105C13.0546 8.289 13.3783 8.15495 13.6219 7.91142C14.1239 7.40909 14.1241 6.59198 13.6225 6.08932Z" />

</svg>
