<svg viewBox="0 0 16 16" xmlns="http://www.w3.org/2000/svg">
<path d="M4.66667 0H2.66667C1.196 0 0 1.196 0 2.66667V4.66667C0 6.13733 1.196 7.33333 2.66667 7.33333H4.66667C6.13733 7.33333 7.33333 6.13733 7.33333 4.66667V2.66667C7.33333 1.196 6.13733 0 4.66667 0ZM4.66667 4C4.66667 4.368 4.368 4.66667 4 4.66667H3.33333C2.96533 4.66667 2.66667 4.368 2.66667 4V3.33333C2.66667 2.96533 2.96533 2.66667 3.33333 2.66667H4C4.368 2.66667 4.66667 2.96533 4.66667 3.33333V4ZM13.3333 0H11.3333C9.86267 0 8.66667 1.196 8.66667 2.66667V4.66667C8.66667 6.13733 9.86267 7.33333 11.3333 7.33333H13.3333C14.804 7.33333 16 6.13733 16 4.66667V2.66667C16 1.196 14.804 0 13.3333 0ZM13.3333 4C13.3333 4.368 13.0347 4.66667 12.6667 4.66667H12C11.632 4.66667 11.3333 4.368 11.3333 4V3.33333C11.3333 2.96533 11.632 2.66667 12 2.66667H12.6667C13.0347 2.66667 13.3333 2.96533 13.3333 3.33333V4ZM4.66667 8.66667H2.66667C1.196 8.66667 0 9.86267 0 11.3333V13.3333C0 14.804 1.196 16 2.66667 16H4.66667C6.13733 16 7.33333 14.804 7.33333 13.3333V11.3333C7.33333 9.86267 6.13733 8.66667 4.66667 8.66667ZM4.66667 12.6667C4.66667 13.0347 4.368 13.3333 4 13.3333H3.33333C2.96533 13.3333 2.66667 13.0347 2.66667 12.6667V12C2.66667 11.632 2.96533 11.3333 3.33333 11.3333H4C4.368 11.3333 4.66667 11.632 4.66667 12V12.6667ZM10.3333 11.3333H9.66667C9.11467 11.3333 8.66667 10.8853 8.66667 10.3333V9.66667C8.66667 9.11467 9.11467 8.66667 9.66667 8.66667H10.3333C10.8853 8.66667 11.3333 9.11467 11.3333 9.66667V10.3333C11.3333 10.8853 10.8853 11.3333 10.3333 11.3333ZM12.3333 13.3333C11.7813 13.3333 11.3333 12.8853 11.3333 12.3333C11.3333 11.7813 11.7813 11.3333 12.3333 11.3333C12.8853 11.3333 13.3333 11.7813 13.3333 12.3333C13.3333 12.8853 12.8853 13.3333 12.3333 13.3333ZM10.3333 16H9.66667C9.11467 16 8.66667 15.552 8.66667 15V14.3333C8.66667 13.7813 9.11467 13.3333 9.66667 13.3333H10.3333C10.8853 13.3333 11.3333 13.7813 11.3333 14.3333V15C11.3333 15.552 10.8853 16 10.3333 16ZM15 11.3333H14.3333C13.7813 11.3333 13.3333 10.8853 13.3333 10.3333V9.66667C13.3333 9.11467 13.7813 8.66667 14.3333 8.66667H15C15.552 8.66667 16 9.11467 16 9.66667V10.3333C16 10.8853 15.552 11.3333 15 11.3333Z" />
</svg>
