<svg viewBox="0 0 16 16" xmlns="http://www.w3.org/2000/svg">
<path d="M8.55669 0.0187284C6.24002 -0.134605 3.97336 0.710728 2.33869 2.34739C0.704023 3.98473 -0.14131 6.25206 0.0193566 8.5694C0.31269 12.8054 4.05402 16.0001 8.72202 16.0001H12.6667C14.5047 16.0001 16 14.5047 16 12.6667V8.22673C15.9994 3.9074 12.73 0.302728 8.55669 0.0187284ZM7.93469 12.6667C7.38269 12.6667 6.93469 12.2187 6.93469 11.6667C6.93469 11.1147 7.38269 10.6667 7.93469 10.6667C8.48669 10.6667 8.93469 11.1147 8.93469 11.6667C8.93469 12.2187 8.48669 12.6667 7.93469 12.6667ZM9.22002 8.3254C8.87269 8.51673 8.60136 8.9594 8.60136 9.3334C8.60136 9.70206 8.30269 10.0001 7.93469 10.0001C7.56669 10.0001 7.26802 9.70206 7.26802 9.3334C7.26802 8.47673 7.80602 7.58206 8.57669 7.1574C9.08536 6.8774 9.34802 6.3214 9.24602 5.74073C9.15402 5.21673 8.70602 4.76873 8.18202 4.67673C7.77869 4.60539 7.38469 4.70939 7.07736 4.96673C6.77469 5.2214 6.60136 5.5934 6.60136 5.98806C6.60136 6.35673 6.30269 6.65473 5.93469 6.65473C5.56669 6.65473 5.26802 6.35673 5.26802 5.98806C5.26802 5.19806 5.61536 4.45406 6.22002 3.94606C6.82536 3.43806 7.62469 3.2274 8.41269 3.3634C9.48802 3.55206 10.3714 4.43473 10.56 5.51073C10.7587 6.64339 10.2207 7.77473 9.22069 8.32606L9.22002 8.3254Z" />
</svg>
