<svg viewBox="0 0 18 18"  xmlns="http://www.w3.org/2000/svg">
    <defs>
        <linearGradient x1="49.9583507%" y1="0%" x2="49.9583507%" y2="99.2092184%" id="linearGradient-telegram">
            <stop stop-color="#2AABEE" offset="0%"></stop>
            <stop stop-color="#229ED9" offset="100%"></stop>
        </linearGradient>
    </defs>
    <path d="M9.00375,18.0075 C13.9764,18.0075 18.0075,13.9764 18.0075,9.00375 C18.0075,4.03112 13.9764,0 9.00375,0 C4.03112,0 0,4.03112 0,9.00375 C0,13.9764 4.03112,18.0075 9.00375,18.0075 Z" fill="url(#linearGradient-telegram)" fill-rule="nonzero"></path>
    <path d="M4.07175,8.90663 C6.69566,7.76711 8.44243,7.00992 9.31956,6.64257 C11.816,5.60051 12.3408,5.42058 12.6782,5.41309 C12.7531,5.41309 12.9181,5.42808 13.0305,5.51804 C13.1205,5.59301 13.143,5.69047 13.158,5.76544 C13.173,5.84041 13.188,5.99784 13.173,6.11779 C13.038,7.5422 12.4533,10.9983 12.1534,12.5876 C12.0259,13.2623 11.7785,13.4872 11.5386,13.5097 C11.0139,13.5547 10.6165,13.1649 10.1142,12.835 C9.31956,12.3177 8.87725,11.9953 8.10507,11.4856 C7.21294,10.9008 7.7902,10.5784 8.29999,10.0537 C8.43493,9.91871 10.7365,7.81958 10.7815,7.63216 C10.789,7.60967 10.7889,7.51971 10.7365,7.47473 C10.684,7.42975 10.609,7.44474 10.5491,7.45973 C10.4666,7.47473 9.20711,8.31438 6.75563,9.97119 C6.39578,10.2186 6.07342,10.3385 5.78104,10.331 C5.45867,10.3235 4.84393,10.1511 4.37912,10.0012 C3.81686,9.82125 3.36704,9.72379 3.40453,9.40892 C3.42702,9.24399 3.65192,9.07906 4.07175,8.90663 Z" fill="#FFFFFF"></path>
</svg>