<svg viewBox="0 0 17 17" xmlns="http://www.w3.org/2000/svg"><path d="m1.00410455 5.240319c3.93586-1.70929 6.55602-2.84507 7.87172-3.39609 3.74465995-1.563096 4.53185995-1.832984 5.03785995-1.844229.1125 0 .3599.02249.5286.157434.1349.112453.1687.258643.1911.371096.0225.112453.045.348604.0225.528529-.2024 2.13661-1.0795 7.3207-1.5293 9.7047-.1912 1.0121-.5623 1.3494-.9221 1.3832-.7872.0674-1.3832-.5173-2.1367-1.0121-1.19195995-.7759-1.85542995-1.25947-3.01369995-2.02416-1.33819-.87713-.4723-1.36068.29238-2.14785.20242-.20242 3.65471995-3.3511 3.72221995-3.63224.0112-.03373.0112-.16868-.0675-.23615s-.1912-.04498-.2811-.02249c-.1237.02249-2.01293995 1.28197-5.69014995 3.76718-.53978.3711-1.02333.55102-1.46189.53978-.48355-.01125-1.40567-.26989-2.10288-.4948-.843396-.26989-1.5181144-.41607-1.461888-.88838.033736-.24739.371095-.49479 1.000828-.75343z" fill-rule="evenodd" transform="translate(1.2 2.4)"/></svg>