<svg viewBox="0 0 20 20" xmlns="http://www.w3.org/2000/svg">
<path d="M8.33318 16.6667C10.2556 16.669 12.1192 16.004 13.6057 14.785L18.5773 19.7558C18.7345 19.9076 18.945 19.9916 19.1635 19.9897C19.382 19.9878 19.591 19.9002 19.7455 19.7457C19.9 19.5912 19.9877 19.3822 19.9896 19.1637C19.9915 18.9452 19.9075 18.7347 19.7557 18.5775L14.784 13.6067C15.9814 12.1415 16.6445 10.3125 16.6643 8.42036C16.684 6.52826 16.0593 4.68577 14.8927 3.19592C13.7262 1.70607 12.0874 0.657573 10.2458 0.222882C8.40418 -0.211809 6.46948 -0.00681291 4.75986 0.804154C3.05025 1.61512 1.66753 2.98377 0.839124 4.685C0.0107139 6.38623 -0.214058 8.31874 0.201775 10.1647C0.617608 12.0106 1.64929 13.6601 3.12713 14.8418C4.60497 16.0235 6.44098 16.6671 8.33318 16.6667ZM5.83318 7.50001H7.49985V5.83334C7.49985 5.61233 7.58765 5.40037 7.74393 5.24409C7.90021 5.08781 8.11217 5.00001 8.33318 5.00001C8.5542 5.00001 8.76616 5.08781 8.92244 5.24409C9.07872 5.40037 9.16652 5.61233 9.16652 5.83334V7.50001H10.8332C11.0542 7.50001 11.2662 7.58781 11.4224 7.74409C11.5787 7.90037 11.6665 8.11233 11.6665 8.33334C11.6665 8.55435 11.5787 8.76632 11.4224 8.9226C11.2662 9.07888 11.0542 9.16667 10.8332 9.16667H9.16652V10.8333C9.16652 11.0544 9.07872 11.2663 8.92244 11.4226C8.76616 11.5789 8.5542 11.6667 8.33318 11.6667C8.11217 11.6667 7.90021 11.5789 7.74393 11.4226C7.58765 11.2663 7.49985 11.0544 7.49985 10.8333V9.16667H5.83318C5.61217 9.16667 5.40021 9.07888 5.24393 8.9226C5.08765 8.76632 4.99985 8.55435 4.99985 8.33334C4.99985 8.11233 5.08765 7.90037 5.24393 7.74409C5.40021 7.58781 5.61217 7.50001 5.83318 7.50001Z" />
</svg>
