<svg viewBox="0 0 16 16" xmlns="http://www.w3.org/2000/svg">
<path fill-rule="evenodd" clip-rule="evenodd" d="M8 0.5C4.69573 0.5 2 3.07641 2 6.5C2 7.38868 2.27308 8.3828 2.6655 9.33935C3.06229 10.3066 3.60301 11.2879 4.18846 12.166C4.77256 13.0422 5.41597 13.8379 6.02794 14.4243C6.33323 14.7169 6.6464 14.9726 6.9545 15.1596C7.24835 15.3381 7.61188 15.5 8 15.5C8.38812 15.5 8.75165 15.3381 9.0455 15.1596C9.3536 14.9726 9.6668 14.7169 9.97205 14.4243C10.5841 13.8379 11.2275 13.0422 11.8116 12.166C12.397 11.2879 12.9377 10.3066 13.3345 9.33935C13.7269 8.3828 14 7.38868 14 6.5C14 3.07641 11.3043 0.5 8 0.5ZM8 4.25C6.75733 4.25 5.75 5.25736 5.75 6.5C5.75 7.74267 6.75733 8.75 8 8.75C9.24267 8.75 10.25 7.74267 10.25 6.5C10.25 5.25736 9.24267 4.25 8 4.25Z" />
</svg>
