<svg viewBox="0 0 30 30" xmlns="http://www.w3.org/2000/svg">
<path d="M12.363 9.08191C5.5783 9.08191 6.17048e-05 13.7476 6.17048e-05 19.4827C6.17048e-05 21.7751 0.88928 24.105 2.52 25.9108L0.21721 28.5423C-0.00937189 28.8015 -0.0643328 29.1697 0.0790461 29.4838C0.221546 29.798 0.533968 29.9997 0.878968 29.9997H13.242C18.2514 29.9997 24.726 25.686 24.726 19.4827C24.726 13.7476 19.1478 9.08191 12.363 9.08191ZM7.03114 21.0936C6.06211 21.0936 5.27338 20.3048 5.27338 19.3359C5.27338 18.3668 6.06217 17.5781 7.03114 17.5781C8.0001 17.5781 8.78889 18.3669 8.78889 19.3359C8.78895 20.3048 8.00016 21.0936 7.03114 21.0936ZM12.363 21.0936C11.394 21.0936 10.6053 20.3048 10.6053 19.3359C10.6053 18.3668 11.3941 17.5781 12.363 17.5781C13.332 17.5781 14.1208 18.3669 14.1208 19.3359C14.1208 20.3048 13.3321 21.0936 12.363 21.0936ZM17.695 21.0936C16.7259 21.0936 15.9372 20.3048 15.9372 19.3359C15.9372 18.3668 16.726 17.5781 17.695 17.5781C18.6639 17.5781 19.4527 18.3669 19.4527 19.3359C19.4527 20.3048 18.664 21.0936 17.695 21.0936Z" />
<path d="M29.7874 17.8845L27.7181 15.4701C29.1952 13.8034 29.9994 11.7709 29.9994 9.6681C29.9994 4.3373 24.8737 0.000366211 18.5739 0.000366211C12.8771 0.000366211 8.03721 3.5505 7.18262 8.17126C8.77215 7.63115 10.5547 7.32412 12.3631 7.32412C20.0596 7.32412 26.3829 12.6998 26.4753 19.3358H29.1205C29.8713 19.3359 30.2745 18.4518 29.7874 17.8845Z" />
</svg>
