<svg viewBox="0 0 28 28" xmlns="http://www.w3.org/2000/svg"><path d="m3.82805491 8.71798v-4.1026c0-1.22407.51853-2.39801 1.44153-3.26357.923-.865547 2.17485-1.35181 3.48017-1.35181 1.30532999 0 2.55712999.486263 3.48012999 1.35181.923.86556 1.4416 2.0395 1.4416 3.26357v4.1026c0 1.22408-.5186 2.39802-1.4416 3.26362-.923.8655-2.1748 1.3518-3.48012999 1.3518-1.30532 0-2.55717-.4863-3.48017-1.3518-.923-.8656-1.44153-2.03954-1.44153-3.26362zm13.67145619 0c.0009738-.13528-.0266262-.26941-.0811262-.39466s-.135-.23915-.2366-.33513c-.1017-.09599-.2226-.17217-.3558-.22416-.1331-.05198-.276-.07874-.4202-.07874-.1443 0-.2871.02676-.4203.07874-.1332.05199-.2541.12817-.3558.22416-.1016.09598-.1821.20988-.2366.33513s-.0821.25938-.0811.39466c0 1.63212-.6913 3.19732-1.922 4.35142s-2.8998 1.8024-4.64022999 1.8024c-1.74042 0-3.40956-.6483-4.64022-1.8024-1.23067-1.1541-1.92205-2.7193-1.92205-4.35142.00099-.13528-.02657-.26941-.08109-.39466s-.13493-.23915-.23659-.33513c-.10166-.09599-.22256-.17217-.35575-.22416-.13318-.05198-.27602-.07874-.42029-.07874-.14426 0-.2871.02676-.42028.07874-.133189.05199-.254093.12817-.355753.22416-.101659.09598-.182065.20988-.236587.33513-.054521.12525-.082082.25938-.0811206.39466 0 4.17612 3.3468806 7.62672 7.6560306 8.13402v1.0967h-3.28113c-.29006 0-.56825.1081-.77336.3004-.2051.1924-.32033.4533-.32033.7253s.11523.5329.32033.7252c.20511.1923.4833.3004.77336.3004h8.74965999c.2901 0 .5682-.1081.7733-.3004.2052-.1923.3204-.4532.3204-.7252s-.1152-.5329-.3204-.7253c-.2051-.1923-.4832-.3004-.7733-.3004h-3.28109999v-1.0967c4.30909999-.5074 7.65602619-3.9579 7.65602619-8.13402z" transform="translate(5 4)"/></svg>