<svg viewBox="0 0 14 15" xmlns="http://www.w3.org/2000/svg">
<path d="M7 1.5C3.68629 1.5 1 4.18629 1 7.5C1 10.8137 3.68629 13.5 7 13.5C10.3137 13.5 13 10.8137 13 7.5C12.9964 4.18777 10.3122 1.50359 7 1.5ZM7 3C7.93382 3.00009 8.8442 3.29243 9.60351 3.83599L3.33599 10.103C1.89452 8.0832 2.36336 5.27728 4.38316 3.8358C5.1468 3.29084 6.06184 2.99857 7 3ZM7 12C6.06632 12 5.1561 11.7076 4.39701 11.164L10.664 4.89652C12.1057 6.91612 11.6373 9.72209 9.61769 11.1638C8.85386 11.7091 7.93848 12.0015 7 12Z" />
</svg>
