<svg viewBox="0 0 20 20" xmlns="http://www.w3.org/2000/svg">
<rect width="20" height="20" rx="10" />
<path d="M10 10.875C10.116 10.875 10.2273 10.8289 10.3094 10.7469C10.3914 10.6648 10.4375 10.5535 10.4375 10.4375C10.4375 10.3215 10.3914 10.2102 10.3094 10.1281C10.2273 10.0461 10.116 10 10 10C9.88397 10 9.77269 10.0461 9.69064 10.1281C9.60859 10.2102 9.5625 10.3215 9.5625 10.4375C9.5625 10.5535 9.60859 10.6648 9.69064 10.7469C9.77269 10.8289 9.88397 10.875 10 10.875Z" fill="white"/>
<path d="M10.6563 5.22833V4.96875C10.6563 4.7947 10.5871 4.62778 10.464 4.50471C10.341 4.38164 10.1741 4.3125 10 4.3125C9.82595 4.3125 9.65903 4.38164 9.53596 4.50471C9.41289 4.62778 9.34375 4.7947 9.34375 4.96875V5.22833C8.51496 5.33232 7.7232 5.63358 7.03492 6.10683L6.74617 5.81633C6.62287 5.69303 6.45563 5.62376 6.28125 5.62376C6.10687 5.62376 5.93964 5.69303 5.81634 5.81633C5.69303 5.93964 5.62376 6.10687 5.62376 6.28125C5.62376 6.45563 5.69303 6.62286 5.81634 6.74617L6.05142 6.98125C5.21152 7.93661 4.74882 9.16544 4.75 10.4375C4.75 13.3326 7.10492 15.6875 10 15.6875C12.8951 15.6875 15.25 13.3326 15.25 10.4375C15.25 7.76467 13.2422 5.55208 10.6563 5.22833ZM10 11.75C9.69048 11.7499 9.39096 11.6404 9.15436 11.4408C8.91775 11.2413 8.75928 10.9645 8.70693 10.6595C8.65459 10.3544 8.71174 10.0407 8.8683 9.77365C9.02485 9.50664 9.27073 9.30355 9.5625 9.20025V7.15625C9.5625 7.04022 9.6086 6.92894 9.69064 6.84689C9.77269 6.76484 9.88397 6.71875 10 6.71875C10.116 6.71875 10.2273 6.76484 10.3094 6.84689C10.3914 6.92894 10.4375 7.04022 10.4375 7.15625V9.20025C10.7293 9.30355 10.9752 9.50664 11.1317 9.77365C11.2883 10.0407 11.3454 10.3544 11.2931 10.6595C11.2407 10.9645 11.0823 11.2413 10.8456 11.4408C10.609 11.6404 10.3095 11.7499 10 11.75Z" fill="white"/>
</svg>
