<svg viewBox="0 0 20 20" xmlns="http://www.w3.org/2000/svg">
<rect width="20" height="20" rx="10" />
<path d="M10.0012 4.07617C8.82973 4.07617 7.68456 4.42355 6.71052 5.07439C5.73647 5.72523 4.9773 6.65028 4.52899 7.73258C4.08069 8.81489 3.96339 10.0058 4.19194 11.1548C4.42048 12.3037 4.9846 13.3591 5.81296 14.1875C6.64131 15.0159 7.6967 15.58 8.84567 15.8085C9.99463 16.0371 11.1856 15.9198 12.2679 15.4715C13.3502 15.0232 14.2752 14.264 14.9261 13.2899C15.5769 12.3159 15.9243 11.1707 15.9243 9.99925C15.9226 8.42887 15.298 6.9233 14.1876 5.81288C13.0772 4.70245 11.5716 4.07787 10.0012 4.07617ZM10.4948 9.93952C10.4948 10.0232 10.4736 10.1055 10.4331 10.1787C10.3926 10.2519 10.3342 10.3137 10.2633 10.3581L8.36792 11.5427C8.31282 11.5771 8.25148 11.6004 8.18741 11.6111C8.12334 11.6218 8.05778 11.6198 7.99448 11.6051C7.93118 11.5905 7.87139 11.5636 7.8185 11.5259C7.76562 11.4881 7.72069 11.4403 7.68627 11.3852C7.65185 11.3302 7.62862 11.2688 7.6179 11.2047C7.60719 11.1407 7.6092 11.0751 7.62382 11.0118C7.63844 10.9485 7.66539 10.8887 7.70312 10.8358C7.74085 10.783 7.78863 10.738 7.84372 10.7036L9.50761 9.66607V7.5313C9.50761 7.40039 9.55962 7.27485 9.65218 7.18228C9.74475 7.08971 9.8703 7.03771 10.0012 7.03771C10.1321 7.03771 10.2577 7.08971 10.3502 7.18228C10.4428 7.27485 10.4948 7.40039 10.4948 7.5313V9.93952Z" fill="white"/>
</svg>
