<svg viewBox="0 0 20 20" xmlns="http://www.w3.org/2000/svg">
<rect width="20" height="20" rx="10" />
<path d="M11.051 4.0537C10.9784 4.04039 10.9037 4.04314 10.8323 4.06178C10.7609 4.08042 10.6945 4.11448 10.6377 4.16156C10.581 4.20863 10.5353 4.26757 10.504 4.33419C10.4726 4.40082 10.4563 4.47349 10.4563 4.54708V5.99207C9.84658 5.91145 9.22643 5.97186 8.64392 6.16862C8.0614 6.36538 7.53217 6.69321 7.09726 7.12668C6.66235 7.56015 6.33344 8.08763 6.13603 8.66822C5.93862 9.24881 5.878 9.86692 5.9589 10.4746H4.50911C4.43528 10.4747 4.36236 10.4909 4.29552 10.5221C4.22868 10.5534 4.16954 10.5989 4.12231 10.6554C4.07508 10.712 4.0409 10.7782 4.0222 10.8494C4.0035 10.9206 4.00074 10.995 4.0141 11.0674C4.21352 12.1472 4.70532 13.1522 5.43632 13.9737C6.16733 14.7951 7.10972 15.4017 8.16161 15.728C9.21349 16.0542 10.3349 16.0877 11.4044 15.8247C12.474 15.5617 13.4511 15.0123 14.2301 14.2359C15.0091 13.4595 15.5603 12.4857 15.8241 11.4196C16.088 10.3536 16.0544 9.23592 15.7271 8.18751C15.3998 7.1391 14.7911 6.19982 13.9669 5.47123C13.1428 4.74264 12.1345 4.25247 11.051 4.0537ZM9.95273 10.9765C9.77665 10.976 9.60379 10.9294 9.4515 10.8413C9.29922 10.7532 9.17285 10.6268 9.08507 10.4746H7.93844C7.80488 10.4746 7.6768 10.4217 7.58236 10.3276C7.48792 10.2335 7.43487 10.1058 7.43487 9.97271C7.43487 9.83959 7.48792 9.71193 7.58236 9.61781C7.6768 9.52368 7.80488 9.4708 7.93844 9.4708H9.08507C9.17284 9.32044 9.2983 9.19539 9.44915 9.10792V7.46317C9.44915 7.33005 9.50221 7.20239 9.59665 7.10826C9.69109 7.01414 9.81917 6.96126 9.95273 6.96126C10.0863 6.96126 10.2144 7.01414 10.3088 7.10826C10.4032 7.20239 10.4563 7.33005 10.4563 7.46317V9.10792C10.6484 9.2179 10.7986 9.3881 10.8835 9.59201C10.9684 9.79593 10.9833 10.0221 10.9259 10.2353C10.8684 10.4486 10.7418 10.6369 10.5658 10.7709C10.3898 10.905 10.1742 10.9773 9.95273 10.9765ZM8.93148 4C9.03108 4 9.12844 4.02944 9.21125 4.08459C9.29406 4.13974 9.35861 4.21812 9.39672 4.30984C9.43484 4.40155 9.44481 4.50247 9.42538 4.59983C9.40595 4.69719 9.35799 4.78662 9.28756 4.85681C9.21714 4.927 9.12741 4.97481 9.02972 4.99417C8.93204 5.01354 8.83079 5.0036 8.73877 4.96561C8.64676 4.92762 8.56811 4.86329 8.51278 4.78075C8.45744 4.69822 8.42791 4.60118 8.42791 4.50191C8.42791 4.36879 8.48097 4.24113 8.5754 4.14701C8.66984 4.05288 8.79793 4 8.93148 4ZM6.86684 4.88135C6.96643 4.88135 7.06379 4.91079 7.14661 4.96594C7.22942 5.02109 7.29396 5.09948 7.33208 5.19119C7.37019 5.2829 7.38016 5.38382 7.36073 5.48118C7.3413 5.57854 7.29334 5.66797 7.22292 5.73816C7.15249 5.80835 7.06276 5.85616 6.96508 5.87552C6.8674 5.89489 6.76614 5.88495 6.67413 5.84696C6.58211 5.80897 6.50346 5.74464 6.44813 5.6621C6.3928 5.57957 6.36326 5.48253 6.36326 5.38326C6.363 5.25023 6.41573 5.12254 6.50987 5.02824C6.60401 4.93394 6.73186 4.88075 6.86533 4.88035L6.86684 4.88135ZM5.30929 6.37955C5.40888 6.37955 5.50625 6.40898 5.58906 6.46413C5.67187 6.51928 5.73641 6.59767 5.77453 6.68938C5.81264 6.7811 5.82261 6.88201 5.80318 6.97937C5.78375 7.07673 5.73579 7.16616 5.66537 7.23636C5.59494 7.30655 5.50521 7.35435 5.40753 7.37372C5.30985 7.39309 5.20859 7.38315 5.11658 7.34516C5.02456 7.30717 4.94592 7.24284 4.89058 7.1603C4.83525 7.07776 4.80572 6.98072 4.80572 6.88146C4.80572 6.74834 4.85877 6.62068 4.95321 6.52655C5.04765 6.43243 5.17573 6.37955 5.30929 6.37955ZM4.50357 8.471C4.60317 8.471 4.70053 8.50043 4.78334 8.55559C4.86615 8.61074 4.9307 8.68912 4.96881 8.78083C5.00693 8.87255 5.0169 8.97346 4.99747 9.07082C4.97804 9.16818 4.93008 9.25762 4.85965 9.32781C4.78923 9.398 4.6995 9.44581 4.60181 9.46517C4.50413 9.48454 4.40288 9.4746 4.31086 9.43661C4.21885 9.39862 4.1402 9.33429 4.08487 9.25175C4.02953 9.16921 4 9.07218 4 8.97291C4 8.83997 4.05292 8.71246 4.14714 8.61836C4.24136 8.52426 4.36918 8.47126 4.50257 8.471H4.50357Z" fill="#090909"/>
</svg>
