<svg viewBox="0 0 20 20" xmlns="http://www.w3.org/2000/svg">
<rect width="20" height="20" rx="10" />
<path d="M8.32709 16.5636C8.25374 16.5637 8.18126 16.5477 8.11476 16.5168C8.04826 16.4858 7.98936 16.4407 7.94219 16.3845C7.89503 16.3284 7.86076 16.2625 7.84179 16.1917C7.82283 16.1208 7.81963 16.0467 7.83242 15.9744V15.9715L8.60009 11.7511H5.62509C5.54245 11.7511 5.46149 11.7277 5.3916 11.6837C5.3217 11.6396 5.26572 11.5766 5.23014 11.502C5.19455 11.4274 5.18082 11.3443 5.19053 11.2622C5.20024 11.1801 5.233 11.1025 5.285 11.0383L11.2776 3.62995C11.3458 3.54333 11.4405 3.48144 11.5472 3.45371C11.6538 3.42599 11.7667 3.43398 11.8684 3.47644C11.9701 3.5189 12.0552 3.59351 12.1105 3.68886C12.1658 3.78421 12.1884 3.89505 12.1748 4.00445C12.1748 4.01261 12.1724 4.02078 12.1713 4.02895L11.4001 8.25111H14.3751C14.4576 8.25118 14.5385 8.2746 14.6082 8.31866C14.678 8.36272 14.7339 8.42562 14.7695 8.5001C14.8051 8.57458 14.8188 8.6576 14.8092 8.73958C14.7996 8.82155 14.767 8.89913 14.7152 8.96336L8.72142 16.3717C8.67437 16.4313 8.61447 16.4795 8.54619 16.5127C8.47792 16.546 8.40302 16.5634 8.32709 16.5636Z" fill="white"/>
</svg>
