<svg viewBox="0 0 20 20" xmlns="http://www.w3.org/2000/svg">
<rect width="20" height="20" rx="10" />
<path d="M7.05917 12.9202C7.30375 14.3603 4.77917 14.3596 5.02417 12.9202H7.05917ZM14.3333 8.20389C14.2505 7.98665 14.0916 7.79766 13.8792 7.66362C13.6668 7.52958 13.4116 7.45726 13.1496 7.45688H11.6667V9.6422H14.8837L14.3333 8.20389ZM7.94083 12.9202C7.69625 14.3603 10.2208 14.3596 9.97583 12.9202H7.94083ZM9.58333 6H6.25C5.91848 6 5.60054 6.11512 5.36612 6.32003C5.1317 6.52495 5 6.80287 5 7.09266V12.1917H10.8333V7.09266C10.8333 6.80287 10.7016 6.52495 10.4672 6.32003C10.2328 6.11512 9.91485 6 9.58333 6ZM15 10.3706H11.6667V12.1917H15V10.3706ZM12.1075 12.9202C11.8629 14.3603 14.3875 14.3596 14.1425 12.9202H12.1075Z" fill="white"/>
</svg>
