<svg viewBox="0 0 20 20" xmlns="http://www.w3.org/2000/svg">
<rect width="20" height="20" rx="10" />
<path d="M10 4C8.4087 4 6.88258 4.63214 5.75736 5.75736C4.63214 6.88258 4 8.4087 4 10C4 11.5913 4.63214 13.1174 5.75736 14.2426C6.88258 15.3679 8.4087 16 10 16C11.5913 16 13.1174 15.3679 14.2426 14.2426C15.3679 13.1174 16 11.5913 16 10C16 8.4087 15.3679 6.88258 14.2426 5.75736C13.1174 4.63214 11.5913 4 10 4ZM10 15.0769C7.20185 15.0769 4.92308 12.8 4.92308 10C4.92069 9.31718 5.0572 8.64102 5.32433 8.01262C5.59145 7.38421 5.9836 6.81671 6.47692 6.34462L10.6634 9.33662L10.1157 10.2018L6.50954 7.57723C6.13415 8.24 5.73969 8.904 5.73969 10C5.741 11.1295 6.19027 12.2124 6.98895 13.0111C7.78763 13.8097 8.8705 14.259 10 14.2603C11.1295 14.259 12.2124 13.8097 13.0111 13.0111C13.8097 12.2124 14.259 11.1295 14.2603 10C14.2592 8.94113 13.8641 7.92056 13.1521 7.13686C12.44 6.35316 11.4619 5.86237 10.408 5.76V7.34585H9.592V4.92C9.71446 4.92185 9.84985 4.92308 10 4.92308C12.8 4.92308 15.0769 7.20185 15.0769 10C15.0769 12.7982 12.8 15.0769 10 15.0769Z" fill="white"/>
</svg>
