<svg viewBox="0 0 30 30" fill="none" xmlns="http://www.w3.org/2000/svg">
<circle cx="15" cy="15" r="15" fill="#FFCF23"/>
<path d="M23.3135 16.2455C23.4527 16.5881 23.2878 16.9787 22.9452 17.1179L21.0845 17.8746L22.8066 18.9093C23.1278 19.0928 23.2394 19.5018 23.056 19.8229C22.8726 20.1441 22.4636 20.2557 22.1424 20.0724C22.1338 20.0674 22.1253 20.0623 22.1168 20.057L20.3949 19.0224L20.6003 21.0212C20.6322 21.3897 20.3593 21.7142 19.9908 21.746C19.6307 21.7772 19.3109 21.5168 19.2682 21.1579L18.9602 18.1602L15.6695 16.1834V20.0223L18.0802 21.8303C18.3761 22.0522 18.436 22.472 18.2141 22.7678C17.9922 23.0637 17.5725 23.1237 17.2766 22.9017L15.6694 21.6964V23.7054C15.6694 24.0752 15.3696 24.375 14.9998 24.375C14.63 24.375 14.3301 24.0752 14.3301 23.7054V21.6964L12.723 22.9017C12.4271 23.1237 12.0074 23.0637 11.7854 22.7678C11.5635 22.472 11.6235 22.0522 11.9193 21.8303L14.3301 20.0223V16.1834L11.0397 18.1607L10.7316 21.1584C10.6998 21.5269 10.3753 21.7997 10.0068 21.7679C9.63833 21.7361 9.36544 21.4116 9.39728 21.0431C9.39792 21.036 9.39862 21.0288 9.3995 21.0217L9.60497 19.0228L7.88302 20.0574C7.57036 20.255 7.15674 20.1617 6.95921 19.849C6.76167 19.5363 6.85498 19.1227 7.16765 18.9252C7.17605 18.9199 7.18462 18.9148 7.19325 18.9098L8.91531 17.8751L7.05462 17.1183C6.71425 16.9736 6.55562 16.5804 6.70032 16.2401C6.84175 15.9073 7.22177 15.747 7.55881 15.8777L10.3503 17.0129L13.6998 14.9999L10.35 12.9872L7.55852 14.1227C7.21372 14.2565 6.82577 14.0854 6.69198 13.7406C6.56122 13.4035 6.7216 13.0235 7.05433 12.8821L8.91502 12.1254L7.19308 11.0904C6.8719 10.907 6.76027 10.4979 6.94363 10.1768C7.12706 9.85565 7.53606 9.74402 7.85718 9.92739C7.86582 9.93234 7.87433 9.93748 7.88279 9.94278L9.60473 10.9774L9.39927 8.97855C9.36153 8.61066 9.62917 8.28178 9.99706 8.24405C10.365 8.20632 10.6938 8.47395 10.7316 8.84185L11.0396 11.8395L14.3302 13.8166V9.97766L11.9195 8.16963C11.6235 7.94783 11.5634 7.52815 11.7852 7.23217C12.007 6.93619 12.4267 6.87606 12.7227 7.09785C12.7228 7.09797 12.723 7.09809 12.7231 7.0982L14.3303 8.30354V6.29465C14.3302 5.92483 14.6301 5.625 14.9999 5.625C15.3697 5.625 15.6695 5.92483 15.6695 6.29465V8.3036L17.2767 7.09826C17.5726 6.87635 17.9923 6.9363 18.2142 7.23217C18.4361 7.52804 18.3762 7.94778 18.0803 8.16969L15.6696 9.97772V13.8166L18.9602 11.8393L19.2682 8.84161C19.3118 8.47436 19.645 8.21203 20.0122 8.25566C20.3712 8.29829 20.6315 8.61813 20.6003 8.97826L20.3949 10.9771L22.1168 9.94249C22.4295 9.74496 22.8431 9.83827 23.0406 10.151C23.2382 10.4637 23.1448 10.8773 22.8321 11.0748C22.8237 11.0801 22.8152 11.0852 22.8065 11.0902L21.0844 12.1249L22.9451 12.8817C23.2855 13.0264 23.4441 13.4196 23.2994 13.7599C23.158 14.0927 22.778 14.253 22.4409 14.1223L19.6495 12.9871L16.2999 15.0001L19.6498 17.0128L22.4412 15.8777C22.7832 15.7381 23.1736 15.9023 23.313 16.2443C23.3132 16.2447 23.3134 16.2451 23.3135 16.2455Z" fill="#162854"/>
</svg>
