<svg viewBox="0 0 30 30" fill="none" xmlns="http://www.w3.org/2000/svg">
<circle cx="15" cy="15" r="15" fill="#FFCF23"/>
<path d="M22.9812 13.8985L21.0926 12.01V7.05688C21.0926 6.78385 20.8713 6.5625 20.5982 6.5625H18.48C18.2069 6.5625 17.9856 6.78385 17.9856 7.05688V8.90314L16.1011 7.01875C15.8069 6.72453 15.4157 6.5625 14.9996 6.5625C14.5835 6.5625 14.1923 6.72453 13.8981 7.01875L7.01804 13.8986C6.41065 14.5059 6.41065 15.4941 7.01804 16.1015C7.31228 16.3957 7.70345 16.5577 8.11954 16.5577C8.20672 16.5577 8.29268 16.5502 8.37703 16.5363V21.6193C8.37703 22.6219 9.19272 23.4375 10.1953 23.4375H13.411C13.684 23.4375 13.9054 23.2161 13.9054 22.9431V19.2012H16.0939V22.9431C16.0939 23.2161 16.3153 23.4375 16.5883 23.4375H19.8039C20.8066 23.4375 21.6222 22.6218 21.6222 21.6193V16.5362C21.7065 16.5502 21.7925 16.5577 21.8796 16.5577H21.8797C22.2958 16.5577 22.6869 16.3957 22.9812 16.1014C23.2754 15.8072 23.4375 15.4161 23.4375 15C23.4374 14.5839 23.2754 14.1927 22.9812 13.8985ZM18.9744 7.55127H20.1038V11.0213L18.9744 9.89185V7.55127ZM19.8039 22.4487H17.0827V18.7068C17.0827 18.4337 16.8613 18.2124 16.5883 18.2124H13.4109C13.1379 18.2124 12.9165 18.4337 12.9165 18.7068V22.4487H10.1953C9.73792 22.4487 9.3658 22.0766 9.3658 21.6193V15.9566L14.9996 10.3231L20.6334 15.9567V21.6193C20.6334 22.0766 20.2613 22.4487 19.8039 22.4487ZM22.282 15.4022C22.1745 15.5098 22.0316 15.569 21.8797 15.569C21.7278 15.5689 21.5849 15.5098 21.4774 15.4023C21.4774 15.4023 21.4774 15.4023 21.4773 15.4022L15.3492 9.27439C15.1562 9.08129 14.8432 9.08135 14.65 9.27439L8.52192 15.4022C8.52185 15.4022 8.52182 15.4023 8.52175 15.4023C8.4143 15.5098 8.27149 15.569 8.11954 15.569C7.96759 15.569 7.82471 15.5098 7.71723 15.4023C7.49541 15.1805 7.49541 14.8195 7.71723 14.5977L14.5973 7.71791C14.7047 7.61046 14.8476 7.55127 14.9996 7.55127C15.1516 7.55127 15.2945 7.61046 15.4019 7.71791L18.1304 10.4462L22.282 14.5977C22.5038 14.8195 22.5038 15.1805 22.282 15.4022Z" fill="#162854"/>
</svg>
