<svg viewBox="0 0 18 18" xmlns="http://www.w3.org/2000/svg">
<path d="M6 2C5.46957 2 4.96086 2.2151 4.58579 2.59799C4.21071 2.98088 4 3.50018 4 4.04167V13.9583C4 14.4998 4.21071 15.0191 4.58579 15.402C4.96086 15.7849 5.46957 16 6 16C6.53043 16 7.03914 15.7849 7.41421 15.402C7.78929 15.0191 8 14.4998 8 13.9583V4.04167C8 3.50018 7.78929 2.98088 7.41421 2.59799C7.03914 2.2151 6.53043 2 6 2Z" />
<path d="M12 2C11.4696 2 10.9609 2.2151 10.5858 2.59799C10.2107 2.98088 10 3.50018 10 4.04167V13.9583C10 14.4998 10.2107 15.0191 10.5858 15.402C10.9609 15.7849 11.4696 16 12 16C12.5304 16 13.0391 15.7849 13.4142 15.402C13.7893 15.0191 14 14.4998 14 13.9583V4.04167C14 3.50018 13.7893 2.98088 13.4142 2.59799C13.0391 2.2151 12.5304 2 12 2Z" />
</svg>
