<svg viewBox="0 0 14 15" xmlns="http://www.w3.org/2000/svg">
<path d="M7 0.5C3.14031 0.5 0 3.64031 0 7.5C0 11.3597 3.14031 14.5 7 14.5C10.8597 14.5 14 11.3597 14 7.5C14 3.64031 10.8597 0.5 7 0.5ZM9.69231 8.03846H7.53846V10.1923C7.53846 10.3351 7.48173 10.4721 7.38075 10.5731C7.27977 10.674 7.14281 10.7308 7 10.7308C6.85719 10.7308 6.72023 10.674 6.61925 10.5731C6.51827 10.4721 6.46154 10.3351 6.46154 10.1923V8.03846H4.30769C4.16488 8.03846 4.02792 7.98173 3.92694 7.88075C3.82596 7.77977 3.76923 7.64281 3.76923 7.5C3.76923 7.35719 3.82596 7.22023 3.92694 7.11925C4.02792 7.01827 4.16488 6.96154 4.30769 6.96154H6.46154V4.80769C6.46154 4.66488 6.51827 4.52792 6.61925 4.42694C6.72023 4.32596 6.85719 4.26923 7 4.26923C7.14281 4.26923 7.27977 4.32596 7.38075 4.42694C7.48173 4.52792 7.53846 4.66488 7.53846 4.80769V6.96154H9.69231C9.83512 6.96154 9.97208 7.01827 10.0731 7.11925C10.174 7.22023 10.2308 7.35719 10.2308 7.5C10.2308 7.64281 10.174 7.77977 10.0731 7.88075C9.97208 7.98173 9.83512 8.03846 9.69231 8.03846Z" />
</svg>
