<svg viewBox="0 0 22 22" xmlns="http://www.w3.org/2000/svg">
<path d="M13.2917 0.6875H4.125C3.21415 0.69022 2.34139 1.05326 1.69733 1.69733C1.05326 2.34139 0.69022 3.21415 0.6875 4.125V13.2917C0.69022 14.2025 1.05326 15.0753 1.69733 15.7193C2.34139 16.3634 3.21415 16.7264 4.125 16.7292H13.2917C14.2025 16.7264 15.0753 16.3634 15.7193 15.7193C16.3634 15.0753 16.7264 14.2025 16.7292 13.2917V4.125C16.7264 3.21415 16.3634 2.34139 15.7193 1.69733C15.0753 1.05326 14.2025 0.69022 13.2917 0.6875ZM11 9.85417H9.85417V11C9.85417 11.3039 9.73344 11.5953 9.51856 11.8102C9.30367 12.0251 9.01223 12.1458 8.70833 12.1458C8.40444 12.1458 8.11299 12.0251 7.89811 11.8102C7.68322 11.5953 7.5625 11.3039 7.5625 11V9.85417H6.41667C6.11277 9.85417 5.82133 9.73344 5.60644 9.51856C5.39155 9.30367 5.27083 9.01223 5.27083 8.70833C5.27083 8.40444 5.39155 8.11299 5.60644 7.89811C5.82133 7.68322 6.11277 7.5625 6.41667 7.5625H7.5625V6.41667C7.5625 6.11277 7.68322 5.82133 7.89811 5.60644C8.11299 5.39155 8.40444 5.27083 8.70833 5.27083C9.01223 5.27083 9.30367 5.39155 9.51856 5.60644C9.73344 5.82133 9.85417 6.11277 9.85417 6.41667V7.5625H11C11.3039 7.5625 11.5953 7.68322 11.8102 7.89811C12.0251 8.11299 12.1458 8.40444 12.1458 8.70833C12.1458 9.01223 12.0251 9.30367 11.8102 9.51856C11.5953 9.73344 11.3039 9.85417 11 9.85417Z" />
<path d="M15.5833 21.3125H5.27083C4.96694 21.3125 4.67549 21.1918 4.46061 20.9769C4.24572 20.762 4.125 20.4706 4.125 20.1667C4.125 19.8628 4.24572 19.5713 4.46061 19.3564C4.67549 19.1416 4.96694 19.0208 5.27083 19.0208H15.5833C16.495 19.0208 17.3694 18.6587 18.014 18.014C18.6587 17.3694 19.0208 16.495 19.0208 15.5833V5.27083C19.0208 4.96694 19.1416 4.67549 19.3564 4.46061C19.5713 4.24572 19.8628 4.125 20.1667 4.125C20.4706 4.125 20.762 4.24572 20.9769 4.46061C21.1918 4.67549 21.3125 4.96694 21.3125 5.27083V15.5833C21.3107 17.1022 20.7065 18.5584 19.6325 19.6325C18.5584 20.7065 17.1022 21.3107 15.5833 21.3125Z" />
</svg>
