<svg viewBox="0 0 22 22" xmlns="http://www.w3.org/2000/svg">
<path d="M14.5277 0H7.47227C3.35156 0 0 3.35156 0 7.47227V14.5277C0 18.6484 3.35156 22 7.47227 22H14.5277C18.6484 22 22 18.6484 22 14.5277V7.47227C22 3.35156 18.6484 0 14.5277 0ZM15.4945 12.4008H12.4051V15.4945C12.4051 16.268 11.7777 16.8953 11.0043 16.8953C10.2309 16.8953 9.60352 16.268 9.60352 15.4945V12.4008H6.50977C5.73633 12.4008 5.10898 11.7734 5.10898 11C5.10898 10.2266 5.73633 9.59922 6.50977 9.59922H9.60352V6.50547C9.60352 5.73203 10.2309 5.10469 11.0043 5.10469C11.7777 5.10469 12.4051 5.73203 12.4051 6.50547V9.59922H15.4988C16.2723 9.59922 16.8996 10.2266 16.8996 11C16.8996 11.7734 16.268 12.4008 15.4945 12.4008Z" />
</svg>
