<svg viewBox="0 0 16 16" xmlns="http://www.w3.org/2000/svg">
<path d="M8 6.99988C8.26522 6.99988 8.51957 6.89452 8.70711 6.70698C8.89464 6.51945 9 6.26509 9 5.99988C9 5.73466 8.89464 5.48031 8.70711 5.29277C8.51957 5.10523 8.26522 4.99988 8 4.99988C7.73478 4.99988 7.48043 5.10523 7.29289 5.29277C7.10536 5.48031 7 5.73466 7 5.99988C7 6.26509 7.10536 6.51945 7.29289 6.70698C7.48043 6.89452 7.73478 6.99988 8 6.99988Z" />
<path d="M8.00049 0.998047C5.24382 0.998047 3.00049 3.14338 3.00049 5.77938C3.00049 7.03471 3.57249 8.70405 4.70049 10.7414C5.60716 12.3767 6.65582 13.856 7.20049 14.592C7.29277 14.7177 7.41333 14.8199 7.55243 14.8903C7.69152 14.9608 7.84524 14.9975 8.00116 14.9975C8.15707 14.9975 8.31079 14.9608 8.44988 14.8903C8.58898 14.8199 8.70954 14.7177 8.80182 14.592C9.34582 13.856 10.3952 12.3767 11.3018 10.7414C12.4285 8.70471 13.0005 7.03471 13.0005 5.77938C13.0005 3.14338 10.7572 0.998047 8.00049 0.998047ZM8.00049 7.99805C7.73482 8.0029 7.47084 7.95476 7.22398 7.85645C6.97712 7.75813 6.75233 7.61161 6.56273 7.42544C6.37313 7.23928 6.22253 7.0172 6.11973 6.77217C6.01692 6.52715 5.96398 6.2641 5.96398 5.99838C5.96398 5.73266 6.01692 5.46961 6.11973 5.22459C6.22253 4.97956 6.37313 4.75748 6.56273 4.57132C6.75233 4.38515 6.97712 4.23863 7.22398 4.14031C7.47084 4.042 7.73482 3.99386 8.00049 3.99871C8.52451 4.00828 9.02384 4.22317 9.39104 4.59714C9.75824 4.9711 9.96398 5.47427 9.96398 5.99838C9.96398 6.52249 9.75824 7.02566 9.39104 7.39962C9.02384 7.77359 8.52451 7.98848 8.00049 7.99805Z" />
</svg>
