<svg viewBox="0 0 18 19" xmlns="http://www.w3.org/2000/svg">
<path d="M14.8648 3.98047V3.13672C14.8648 1.68283 13.6796 0.5 12.2229 0.5H5.74149C4.28476 0.5 3.09961 1.68283 3.09961 3.13672V3.98047H14.8648Z" />
<path d="M4.15625 11.7148V16.0039V16.918V17.4453C4.15625 18.0278 4.62936 18.5 5.213 18.5H12.7512C13.3348 18.5 13.8079 18.0278 13.8079 17.4453V16.918V16.0039V11.7148H4.15625ZM10.3911 16.2148H7.57308C7.28128 16.2148 7.0447 15.9787 7.0447 15.6875C7.0447 15.3963 7.28128 15.1602 7.57308 15.1602H10.3911C10.6829 15.1602 10.9195 15.3963 10.9195 15.6875C10.9195 15.9787 10.6829 16.2148 10.3911 16.2148ZM10.3911 13.9648H7.57308C7.28128 13.9648 7.0447 13.7287 7.0447 13.4375C7.0447 13.1463 7.28128 12.9102 7.57308 12.9102H10.3911C10.6829 12.9102 10.9195 13.1463 10.9195 13.4375C10.9195 13.7287 10.6829 13.9648 10.3911 13.9648Z" />
<path d="M15.3581 5.03516H2.64188C1.18515 5.03516 0 6.21799 0 7.67188V11.8906C0 13.3445 1.18515 14.5273 2.64188 14.5273H3.0998V11.7148H2.78278C2.49097 11.7148 2.2544 11.4787 2.2544 11.1875C2.2544 10.8963 2.49097 10.6602 2.78278 10.6602H3.62818H14.3366H15.182C15.4738 10.6602 15.7104 10.8963 15.7104 11.1875C15.7104 11.4787 15.4738 11.7148 15.182 11.7148H14.865V14.5273H15.3581C16.8149 14.5273 18 13.3445 18 11.8906V7.67188C18 6.21799 16.8149 5.03516 15.3581 5.03516ZM4.47358 8.33984H2.78278C2.49097 8.33984 2.2544 8.10373 2.2544 7.8125C2.2544 7.52127 2.49097 7.28516 2.78278 7.28516H4.47358C4.76539 7.28516 5.00196 7.52127 5.00196 7.8125C5.00196 8.10373 4.76539 8.33984 4.47358 8.33984Z" />
</svg>
