<svg viewBox="0 0 20 20" xmlns="http://www.w3.org/2000/svg">
<path d="M10 3C6.13522 3 3 6.13522 3 10C3 13.8648 6.13522 17 10 17C13.8648 17 17 13.8648 17 10C17 6.13522 13.8648 3 10 3ZM9.78144 14.0833C9.68369 14.0865 9.58628 14.07 9.49503 14.0348C9.40377 13.9996 9.32053 13.9464 9.25024 13.8784C9.17996 13.8104 9.12407 13.7289 9.08591 13.6388C9.04774 13.5488 9.02807 13.452 9.02807 13.3542C9.02807 13.2564 9.04774 13.1595 9.08591 13.0695C9.12407 12.9794 9.17996 12.898 9.25024 12.8299C9.32053 12.7619 9.40377 12.7087 9.49503 12.6735C9.58628 12.6383 9.68369 12.6218 9.78144 12.625C9.97071 12.6312 10.1502 12.7107 10.2819 12.8468C10.4136 12.9829 10.4872 13.1648 10.4872 13.3542C10.4872 13.5435 10.4136 13.7255 10.2819 13.8615C10.1502 13.9976 9.97071 14.0772 9.78144 14.0833ZM11.0002 10.3648C10.4091 10.7614 10.3282 11.1247 10.3282 11.4583C10.3282 11.5938 10.2744 11.7236 10.1787 11.8194C10.0829 11.9151 9.95303 11.9689 9.81761 11.9689C9.68219 11.9689 9.55231 11.9151 9.45655 11.8194C9.3608 11.7236 9.307 11.5938 9.307 11.4583C9.307 10.6596 9.67489 10.0241 10.4309 9.51622C11.134 9.04489 11.5314 8.74622 11.5314 8.08822C11.5314 7.64178 11.2763 7.30267 10.7474 7.05067C10.623 6.99156 10.3469 6.934 10.0062 6.93789C9.57844 6.94333 9.24711 7.046 8.99122 7.25133C8.509 7.63944 8.46856 8.06178 8.46856 8.068C8.46529 8.135 8.44885 8.20071 8.42019 8.26136C8.39153 8.32201 8.35121 8.37642 8.30152 8.42149C8.25183 8.46656 8.19375 8.5014 8.13059 8.52402C8.06744 8.54664 8.00045 8.5566 7.93344 8.55333C7.86644 8.55007 7.80074 8.53363 7.74009 8.50497C7.67943 8.47631 7.62502 8.43598 7.57995 8.38629C7.53489 8.3366 7.50005 8.27852 7.47742 8.21537C7.4548 8.15222 7.44484 8.08523 7.44811 8.01822C7.452 7.92955 7.51344 7.13156 8.35033 6.458C8.78589 6.10878 9.33811 5.92756 9.99145 5.919C10.4542 5.91356 10.8898 5.99211 11.1846 6.13133C12.0673 6.549 12.5519 7.24511 12.5519 8.08822C12.5519 9.32178 11.7274 9.87556 11.0002 10.3648Z" />
</svg>
