<svg viewBox="0 0 20 20" xmlns="http://www.w3.org/2000/svg">
<path d="M19.4141 0H0.585938C0.262299 0 0 0.262299 0 0.585938V4.3515C0 4.67514 0.262299 4.93744 0.585938 4.93744H19.4141C19.7377 4.93744 20 4.67514 20 4.3515V0.585938C20 0.262299 19.7377 0 19.4141 0Z" />
<path d="M19.4141 15.0626H10C9.67636 15.0626 9.41406 15.3249 9.41406 15.6485V19.4141C9.41406 19.7377 9.67636 20 10 20H19.4141C19.7377 20 20 19.7377 20 19.4141V15.6485C20 15.3249 19.7377 15.0626 19.4141 15.0626Z" />
<path d="M4.76593 15.2341C4.59839 15.0665 4.34631 15.0163 4.12735 15.1071C3.90839 15.1977 3.76556 15.4114 3.76556 15.6483V16.9453H0.585938C0.262299 16.9453 0 17.2078 0 17.5313C0 17.8549 0.262299 18.1172 0.585938 18.1172H3.76556V19.4141C3.76556 19.651 3.90839 19.8646 4.12735 19.9554C4.19983 19.9855 4.27597 20 4.3515 20C4.50394 20 4.65378 19.9405 4.76593 19.8283L6.64856 17.9457C6.87744 17.7168 6.87744 17.3459 6.64856 17.117L4.76593 15.2341Z" />
<path d="M19.4141 7.53128H0.585938C0.262299 7.53128 0 7.79358 0 8.11722V11.8828C0 12.2064 0.262299 12.4687 0.585938 12.4687H19.4141C19.7377 12.4687 20 12.2064 20 11.8828V8.11722C20 7.79358 19.7377 7.53128 19.4141 7.53128Z" />
</svg>
