<svg viewBox="0 0 26 26" xmlns="http://www.w3.org/2000/svg">
<path d="M18.6467 6.95947C17.1079 5.51865 15.111 4.72886 12.9925 4.73071C9.17986 4.73408 5.88841 7.34824 4.97962 10.9745C4.91346 11.2385 4.6783 11.4249 4.40613 11.4249H1.58558C1.21653 11.4249 0.936161 11.0898 1.00442 10.7271C2.06941 5.07153 7.03494 0.792969 13 0.792969C16.2707 0.792969 19.2409 2.07944 21.4324 4.17378L23.1904 2.41582C23.9346 1.67163 25.207 2.19868 25.207 3.25117V9.8498C25.207 10.5022 24.6781 11.0312 24.0257 11.0312H17.427C16.3746 11.0312 15.8475 9.75874 16.5917 9.0145L18.6467 6.95947Z" />
<path d="M1.97432 14.9679H8.57295C9.62539 14.9679 10.1525 16.2404 9.4083 16.9846L7.35327 19.0396C8.89204 20.4805 10.8891 21.2703 13.0077 21.2684C16.8183 21.2649 20.1111 18.6525 21.0204 15.0246C21.0865 14.7606 21.3217 14.5742 21.5938 14.5742H24.4145C24.7835 14.5742 25.0639 14.9093 24.9956 15.272C23.9306 20.9275 18.965 25.2061 13 25.2061C9.7293 25.2061 6.75908 23.9196 4.56753 21.8252L2.80957 23.5832C2.06538 24.3274 0.792969 23.8003 0.792969 22.7479V16.1492C0.792969 15.4968 1.32187 14.9679 1.97432 14.9679Z" />
</svg>
