<svg viewBox="0 0 20 20" xmlns="http://www.w3.org/2000/svg">
<path fill-rule="evenodd" clip-rule="evenodd" d="M20 10C20 4.48067 15.5193 0 10 0C4.48067 0 0 4.48067 0 10C0 15.5193 4.48067 20 10 20C15.5193 20 20 15.5193 20 10ZM13.2113 7.61933H8C7.116 7.61933 6.268 7.97 5.64266 8.59534C5.018 9.22067 4.66667 10.0687 4.66667 10.9527V11.3333C4.66667 12.2173 5.018 13.0653 5.64266 13.6907C6.268 14.3153 7.116 14.6667 8 14.6667H12.6667C13.0347 14.6667 13.3333 14.368 13.3333 14C13.3333 13.632 13.0347 13.3333 12.6667 13.3333C12.6667 13.3333 10.0973 13.3333 8 13.3333C7.46933 13.3333 6.96067 13.1227 6.586 12.7473C6.21067 12.3727 6 11.864 6 11.3333V10.9527C6 10.422 6.21067 9.91334 6.586 9.538C6.96067 9.16334 7.46933 8.95267 8 8.95267H13.2673L12.208 10.2247C11.9727 10.5073 12.0113 10.928 12.294 11.164C12.5767 11.3993 12.9973 11.3607 13.2327 11.078L15.1787 8.74066C15.3853 8.49266 15.3847 8.132 15.1767 7.88466L13.2307 5.57067C12.994 5.28934 12.5727 5.25267 12.2913 5.49C12.01 5.72667 11.9733 6.14733 12.21 6.42933L13.2113 7.61933Z" />
</svg>
