<svg viewBox="0 0 22 22" xmlns="http://www.w3.org/2000/svg">

<path d="M5.59617 5.94116L3.69018 6.08841C3.15982 6.12941 2.68747 6.40737 2.39417 6.85102L0.196033 10.1756C-0.0264148 10.512 -0.0617778 10.9331 0.101373 11.3019C0.264567 11.6707 0.599936 11.9278 0.998468 11.9895L2.74363 12.2598C3.15187 10.0933 4.12915 7.93219 5.59617 5.94116Z" />
<path d="M9.74011 19.2564L10.0104 21.0015C10.0722 21.4 10.3292 21.7354 10.698 21.8986C10.8514 21.9665 11.0139 22 11.1755 22C11.4025 22 11.6279 21.9338 11.8244 21.8039L15.149 19.6058C15.5927 19.3125 15.8706 18.8401 15.9115 18.3098L16.0588 16.4038C14.0677 17.8709 11.9066 18.8482 9.74011 19.2564Z" />
<path d="M9.08381 18.0467C9.14439 18.0467 9.20532 18.0417 9.26612 18.0316C10.1738 17.8798 11.0486 17.6242 11.8832 17.2895L4.71044 10.1168C4.3758 10.9513 4.12014 11.8261 3.96837 12.7339C3.90856 13.0917 4.02857 13.4562 4.28505 13.7127L8.2873 17.7149C8.50025 17.9278 8.78767 18.0467 9.08381 18.0467Z" />
<path d="M20.2458 9.75396C22.001 6.36057 22.066 2.7746 21.9743 1.09282C21.9428 0.516566 21.4834 0.057148 20.9071 0.0257381C20.6333 0.0107851 20.3088 0 19.943 0C18.0624 0 15.0868 0.284838 12.246 1.75423C9.98835 2.92198 7.02795 5.49325 5.28137 8.87238C5.302 8.88849 5.32215 8.90559 5.34114 8.92458L13.0755 16.6589C13.0944 16.6779 13.1115 16.698 13.1276 16.7186C16.5067 14.972 19.078 12.0116 20.2458 9.75396ZM12.7916 4.6509C14.048 3.39446 16.0925 3.39433 17.3491 4.6509C17.9577 5.25955 18.2929 6.06886 18.2929 6.92965C18.2929 7.79043 17.9577 8.59974 17.3491 9.20839C16.7209 9.83654 15.8955 10.1507 15.0703 10.1508C14.245 10.1508 13.4199 9.83672 12.7916 9.20839C12.1829 8.59974 11.8477 7.79043 11.8477 6.92965C11.8477 6.06886 12.1829 5.25955 12.7916 4.6509Z" />
<path d="M13.703 8.29686C14.4569 9.05075 15.6837 9.05079 16.4376 8.29686C16.8028 7.93163 17.0039 7.44608 17.0039 6.9296C17.0039 6.41311 16.8028 5.92757 16.4376 5.56237C16.0607 5.18541 15.5655 4.99695 15.0703 4.99695C14.5752 4.99695 14.08 5.18541 13.7031 5.56237C13.3379 5.92757 13.1367 6.41311 13.1367 6.9296C13.1367 7.44608 13.3379 7.93167 13.703 8.29686Z" />
<path d="M0.657614 18.1301C0.822571 18.1301 0.987528 18.0672 1.11334 17.9413L3.21765 15.837C3.46936 15.5853 3.46936 15.1772 3.21765 14.9255C2.96598 14.6738 2.55786 14.6738 2.30615 14.9255L0.201845 17.0298C-0.0498662 17.2815 -0.0498662 17.6896 0.201845 17.9413C0.3277 18.0671 0.492657 18.1301 0.657614 18.1301Z" />
<path d="M5.14612 16.8539C4.89446 16.6022 4.48634 16.6022 4.23463 16.8539L0.188905 20.8997C-0.0628057 21.1514 -0.0628057 21.5595 0.188905 21.8112C0.314761 21.937 0.479718 21.9999 0.644675 21.9999C0.809632 21.9999 0.974589 21.937 1.1004 21.8111L5.14608 17.7654C5.39783 17.5137 5.39783 17.1057 5.14612 16.8539Z" />
<path d="M6.16304 18.7824L4.05878 20.8867C3.80707 21.1384 3.80707 21.5465 4.05878 21.7982C4.18463 21.9241 4.34959 21.987 4.5145 21.987C4.67942 21.987 4.84442 21.9241 4.97023 21.7982L7.07454 19.6939C7.32625 19.4422 7.32625 19.0341 7.07454 18.7824C6.82287 18.5307 6.41476 18.5307 6.16304 18.7824Z" />

</svg>
