<svg viewBox="0 0 21 21" xmlns="http://www.w3.org/2000/svg">
<path d="M17.625 18.75H13.875C12.825 18.75 12 17.925 12 16.875V13.125C12 12.075 12.825 11.25 13.875 11.25H17.625C18.675 11.25 19.5 12.075 19.5 13.125V16.875C19.5 17.925 18.675 18.75 17.625 18.75ZM7.125 18.75H3.375C2.325 18.75 1.5 17.925 1.5 16.875V13.125C1.5 12.075 2.325 11.25 3.375 11.25H7.125C8.175 11.25 9 12.075 9 13.125V16.875C9 17.925 8.175 18.75 7.125 18.75ZM3.375 12.75C3.15 12.75 3 12.9 3 13.125V16.875C3 17.1 3.15 17.25 3.375 17.25H7.125C7.35 17.25 7.5 17.1 7.5 16.875V13.125C7.5 12.9 7.35 12.75 7.125 12.75H3.375ZM15.75 9.75C15.525 9.75 15.375 9.675 15.225 9.525L13.725 8.025C13.425 7.725 13.425 7.275 13.725 6.975C14.025 6.675 14.475 6.675 14.775 6.975L14.85 7.05C14.325 5.1 12.525 3.75 10.5 3.75C8.025 3.75 6 5.775 6 8.25V9C6 9.45 5.7 9.75 5.25 9.75C4.8 9.75 4.5 9.45 4.5 9V8.25C4.5 4.95 7.2 2.25 10.5 2.25C13.5 2.25 15.975 4.425 16.425 7.275L16.725 6.975C17.025 6.675 17.475 6.675 17.775 6.975C18.075 7.275 18.075 7.725 17.775 8.025L16.275 9.525C16.125 9.675 15.975 9.75 15.75 9.75Z" />
</svg>
