<svg viewBox="0 0 16 16" xmlns="http://www.w3.org/2000/svg">
<path d="M1.07707 12C1.62851 12.9571 2.85142 13.2859 3.80848 12.7344C3.80914 12.7341 3.80976 12.7337 3.81042 12.7333L4.10707 12.562C4.66707 13.0411 5.31076 13.4127 6.00573 13.658V14C6.00573 15.1046 6.90117 16 8.00573 16C9.11029 16 10.0057 15.1046 10.0057 14V13.658C10.7008 13.4123 11.3445 13.0403 11.9044 12.5607L12.2024 12.7327C13.1597 13.2849 14.3834 12.9566 14.9357 11.9993C15.488 11.042 15.1597 9.81825 14.2024 9.26597L13.9064 9.09531C14.0396 8.37028 14.0396 7.62703 13.9064 6.90197L14.2024 6.73131C15.1597 6.17903 15.488 4.95528 14.9357 3.99797C14.3834 3.04069 13.1597 2.71234 12.2024 3.26463L11.9057 3.43597C11.3452 2.95744 10.701 2.58656 10.0057 2.342V2C10.0057 0.895437 9.11029 0 8.00573 0C6.90117 0 6.00573 0.895437 6.00573 2V2.342C5.31067 2.58772 4.66695 2.95972 4.10707 3.43934L3.80907 3.26669C2.85176 2.71438 1.62801 3.04272 1.07573 4C0.523448 4.95728 0.851761 6.18106 1.80907 6.73334L2.10507 6.904C1.97182 7.62903 1.97182 8.37228 2.10507 9.09734L1.80907 9.268C0.854417 9.82175 0.527167 11.0431 1.07707 12ZM8.00573 5.33334C9.47848 5.33334 10.6724 6.52725 10.6724 8C10.6724 9.47275 9.47848 10.6667 8.00573 10.6667C6.53298 10.6667 5.33907 9.47275 5.33907 8C5.33907 6.52725 6.53298 5.33334 8.00573 5.33334Z" />
</svg>
