<svg viewBox="0 0 16 16" xmlns="http://www.w3.org/2000/svg">
<path d="M14.3392 8.4626C14.1651 8.4626 13.9981 8.53177 13.875 8.65488C13.7519 8.77798 13.6827 8.94496 13.6827 9.11906V11.7616C13.6821 12.2719 13.4791 12.7613 13.1182 13.1221C12.7573 13.483 12.268 13.686 11.7577 13.6866H4.23797C3.72759 13.686 3.23828 13.483 2.87739 13.1221C2.51649 12.7613 2.31349 12.2719 2.31291 11.7616V4.24187C2.31349 3.73149 2.51649 3.24218 2.87739 2.88129C3.23828 2.5204 3.72759 2.3174 4.23797 2.31682H6.88047C7.05457 2.31682 7.22155 2.24765 7.34465 2.12455C7.46776 2.00144 7.53693 1.83446 7.53693 1.66036C7.53693 1.48626 7.46776 1.31929 7.34465 1.19618C7.22155 1.07307 7.05457 1.00391 6.88047 1.00391H4.23797C3.37951 1.00492 2.55651 1.34639 1.9495 1.9534C1.34248 2.56042 1.00101 3.38342 1 4.24187V11.7616C1.00101 12.62 1.34248 13.443 1.9495 14.05C2.55651 14.657 3.37951 14.9985 4.23797 14.9995H11.7577C12.6161 14.9985 13.4391 14.657 14.0461 14.05C14.6531 13.443 14.9946 12.62 14.9956 11.7616V9.11906C14.9956 8.94496 14.9265 8.77798 14.8034 8.65488C14.6802 8.53177 14.5133 8.4626 14.3392 8.4626Z" />
<path d="M14.3254 1H10.2444C10.0725 0.999967 9.90748 1.06736 9.78473 1.1877C9.66199 1.30805 9.59134 1.47173 9.58798 1.6436C9.58114 2.01204 9.89104 2.31291 10.2592 2.31291H12.7573L7.52917 7.54267C7.40607 7.66578 7.33691 7.83274 7.33691 8.00684C7.33691 8.18093 7.40607 8.3479 7.52917 8.47101C7.65228 8.59411 7.81924 8.66326 7.99334 8.66326C8.16743 8.66326 8.3344 8.59411 8.45751 8.47101L13.6873 3.24289V5.75C13.6873 5.9241 13.7564 6.09107 13.8795 6.21418C14.0026 6.33729 14.1696 6.40646 14.3437 6.40646C14.5178 6.40646 14.6848 6.33729 14.8079 6.21418C14.931 6.09107 15.0002 5.9241 15.0002 5.75V1.67451C15.0002 1.58591 14.9827 1.49817 14.9488 1.41632C14.9149 1.33447 14.8652 1.2601 14.8025 1.19746C14.7399 1.13482 14.6655 1.08515 14.5836 1.05127C14.5017 1.01738 14.414 0.999964 14.3254 1Z" />
</svg>
