<svg viewBox="0 0 22 22" xmlns="http://www.w3.org/2000/svg">
<path d="M11 0C4.95816 0 0 4.95816 0 11C0 17.0418 4.95816 22 11 22C17.0418 22 22 17.0418 22 11C22 4.95816 17.0418 0 11 0ZM15.5117 7.13281C15.5117 7.48907 15.2234 7.77734 14.8672 7.77734C14.5109 7.77734 14.2227 7.48907 14.2227 7.13281V6.48828H8.42188L11.5155 10.6135C11.6873 10.8426 11.6873 11.1574 11.5155 11.3865L8.42188 15.5117H14.2227V14.8672C14.2227 14.5109 14.5109 14.2227 14.8672 14.2227C15.2234 14.2227 15.5117 14.5109 15.5117 14.8672V16.1562C15.5117 16.5125 15.2234 16.8008 14.8672 16.8008H7.13281C6.88858 16.8008 6.66579 16.6629 6.55626 16.4445C6.44737 16.2261 6.47066 15.9649 6.61732 15.7698L10.1943 11L6.61732 6.23021C6.47066 6.03509 6.44737 5.77388 6.55626 5.55547C6.66579 5.33706 6.88858 5.19922 7.13281 5.19922H14.8672C15.2234 5.19922 15.5117 5.4875 15.5117 5.84375V7.13281Z" />
</svg>
