<svg viewBox="0 0 16 16" xmlns="http://www.w3.org/2000/svg">
<path d="M11.708 6.19228L14.1185 7.07769L12.1138 12.5359C11.9262 13.0492 10.9089 14.6556 10.2004 14.9833L10.0285 15.4522C9.9847 15.571 9.87215 15.6455 9.75272 15.6455C9.71895 15.6455 9.68519 15.6392 9.65142 15.6273C9.49948 15.571 9.42069 15.4028 9.47696 15.2496L9.63954 14.8063C9.28 14.1079 9.54825 12.0794 9.70582 11.6505L11.708 6.19228ZM15.1965 0.41707C14.5337 0.174456 13.7577 0.675941 13.5357 1.28185L12.0838 5.23745L14.4937 6.12162L15.9437 2.16664C16.1263 1.67141 15.8606 0.660309 15.1965 0.41707ZM10.8351 5.98781C10.9026 6.01282 10.972 6.0247 11.0396 6.0247C11.2784 6.0247 11.5029 5.87838 11.5911 5.64077L13.123 1.50883C13.2362 1.20431 13.0805 0.86603 12.776 0.753477C12.469 0.642175 12.1332 0.795997 12.02 1.10052L10.4881 5.23245C10.3749 5.53697 10.5306 5.87525 10.8351 5.98781ZM8.36895 13.7358C8.21075 13.5864 8.01378 13.4 7.69488 13.2581C7.43226 13.1412 7.17651 13.1355 6.98955 13.1312C6.97016 13.1312 6.94765 13.1305 6.92514 13.1299C6.80821 12.8098 6.57123 12.6084 6.21544 12.5296C5.74459 12.4302 5.36879 12.6522 5.10804 12.8235C5.13118 12.6922 5.16932 12.5359 5.19746 12.4233C5.2875 12.0607 5.38004 11.6855 5.31126 11.3341C5.25686 11.0564 5.02238 10.8501 4.73974 10.8301C4.01128 10.7894 3.416 11.1815 2.89138 11.536C2.34049 11.9081 1.9872 12.1301 1.63579 12.0044C1.20684 11.8518 1.16369 10.6906 1.37004 9.6564C1.5545 8.72471 1.89779 6.99015 2.77757 6.20228C3.07396 5.93716 3.50291 5.65015 3.85558 5.78959C4.27015 5.95216 4.61281 6.63498 4.68909 7.44849C4.72098 7.79178 5.0205 8.04377 5.37004 8.01251C5.71395 7.98062 5.96657 7.67547 5.93405 7.33156C5.81025 6.00594 5.1887 4.9692 4.31267 4.62467C3.78805 4.42082 2.95391 4.3658 1.94281 5.2706C0.842917 6.25543 0.436476 7.92559 0.141963 9.41316C-0.0056062 10.156 -0.36515 12.6209 1.21559 13.1831C2.17854 13.5263 2.96078 12.9967 3.5892 12.5728C3.70426 12.4952 3.81744 12.4189 3.92749 12.3508C3.82306 12.8041 3.75803 13.2894 4.03191 13.6983C4.44023 14.3123 5.01737 14.3792 5.74647 13.899C5.7746 13.8809 5.80712 13.8596 5.83776 13.8384C5.90529 13.9797 6.02472 14.1354 6.2417 14.2417C6.50432 14.3705 6.76694 14.3767 6.95828 14.3817C7.0402 14.3836 7.15212 14.3861 7.18589 14.4011C7.30344 14.453 7.37285 14.5168 7.50792 14.6444C7.60921 14.74 7.71614 14.8395 7.85183 14.942C7.96438 15.0264 8.09569 15.0664 8.22575 15.0664C8.41584 15.0664 8.60406 14.9795 8.72661 14.8163C8.93359 14.5399 8.87731 14.1479 8.60093 13.9409C8.51026 13.8709 8.43835 13.8015 8.36895 13.7358Z" />
</svg>
