<svg viewBox="0 0 20 20" fill="none" xmlns="http://www.w3.org/2000/svg">
<rect width="20" height="20" rx="10" fill="#4AA3EF"/>
<path d="M12.3175 8.87021L13.8241 9.42359L12.5711 12.835C12.4539 13.1558 11.8181 14.1598 11.3753 14.3646L11.2678 14.6577C11.2404 14.7319 11.1701 14.7784 11.0954 14.7784C11.0743 14.7784 11.0532 14.7745 11.0321 14.7671C10.9372 14.7319 10.8879 14.6268 10.9231 14.5311L11.0247 14.254C10.8 13.8175 10.9677 12.5497 11.0661 12.2816L12.3175 8.87021ZM14.4978 5.2607C14.0836 5.10907 13.5986 5.4225 13.4598 5.80119L12.5524 8.27345L14.0586 8.82605L14.9648 6.35419C15.079 6.04467 14.9129 5.41273 14.4978 5.2607ZM11.7719 8.74242C11.8141 8.75805 11.8575 8.76547 11.8997 8.76547C12.049 8.76547 12.1893 8.67402 12.2444 8.52552L13.2019 5.94306C13.2726 5.75273 13.1753 5.54131 12.985 5.47096C12.7931 5.4014 12.5833 5.49753 12.5125 5.68786L11.555 8.27032C11.4843 8.46064 11.5816 8.67207 11.7719 8.74242ZM10.2306 13.5849C10.1317 13.4915 10.0086 13.3751 9.8093 13.2863C9.64516 13.2133 9.48532 13.2097 9.36847 13.207C9.35635 13.207 9.34228 13.2066 9.32821 13.2062C9.25513 13.0061 9.10702 12.8803 8.88465 12.8311C8.59037 12.7689 8.35549 12.9076 8.19253 13.0147C8.20699 12.9327 8.23083 12.835 8.24841 12.7646C8.30469 12.5379 8.36253 12.3035 8.31954 12.0838C8.28554 11.9103 8.13899 11.7813 7.96234 11.7688C7.50705 11.7434 7.135 11.9885 6.80711 12.2101C6.46281 12.4426 6.242 12.5813 6.02237 12.5028C5.75427 12.4074 5.72731 11.6817 5.85627 11.0353C5.97156 10.453 6.18612 9.36888 6.73598 8.87646C6.92123 8.71076 7.18932 8.53138 7.40974 8.61853C7.66884 8.72014 7.88301 9.1469 7.93068 9.65534C7.95062 9.8699 8.13781 10.0274 8.35627 10.0079C8.57122 9.98792 8.72911 9.79721 8.70878 9.58226C8.6314 8.75375 8.24294 8.10579 7.69542 7.89045C7.36753 7.76305 6.84619 7.72866 6.21425 8.29416C5.52682 8.90968 5.2728 9.95353 5.08873 10.8833C4.9965 11.3475 4.77178 12.8881 5.75974 13.2394C6.36159 13.454 6.85049 13.123 7.24325 12.858C7.31516 12.8096 7.3859 12.7619 7.45468 12.7193C7.38942 13.0026 7.34877 13.3059 7.51994 13.5615C7.77514 13.9452 8.13586 13.9871 8.59154 13.6869C8.60913 13.6756 8.62945 13.6623 8.6486 13.649C8.69081 13.7373 8.76545 13.8346 8.90106 13.9011C9.0652 13.9816 9.22934 13.9855 9.34893 13.9886C9.40012 13.9898 9.47008 13.9914 9.49118 14.0007C9.56465 14.0332 9.60803 14.073 9.69245 14.1528C9.75576 14.2126 9.82259 14.2747 9.90739 14.3388C9.97774 14.3915 10.0598 14.4166 10.1411 14.4166C10.2599 14.4166 10.3775 14.3622 10.4541 14.2602C10.5835 14.0875 10.5483 13.8425 10.3756 13.7131C10.3189 13.6693 10.274 13.626 10.2306 13.5849Z" fill="white"/>
</svg>
