<svg viewBox="0 0 13 13" fill="none" xmlns="http://www.w3.org/2000/svg">
<g clip-path="url(#clip0_19_9007)">
<path d="M11 0.5H2C1.17275 0.5 0.5 1.17275 0.5 2V8.75C0.5 9.57725 1.17275 10.25 2 10.25H2.75V12.125C2.75 12.2705 2.834 12.4025 2.966 12.4648C3.01625 12.488 3.071 12.5 3.125 12.5C3.21125 12.5 3.29675 12.4707 3.365 12.413L5.96075 10.25H11C11.8273 10.25 12.5 9.57725 12.5 8.75V2C12.5 1.17275 11.8273 0.5 11 0.5ZM9.9935 7.2305C9.9545 7.244 9.91475 7.25 9.875 7.25C9.7595 7.25 9.647 7.196 9.57575 7.1L9.35075 6.80075C8.858 6.14225 8.07275 5.75 7.25 5.75H5.75V6.875C5.75 7.0265 5.6585 7.16375 5.51825 7.2215C5.37875 7.28 5.2175 7.24775 5.1095 7.1405L2.8595 4.8905C2.71325 4.74425 2.71325 4.5065 2.8595 4.36025L5.1095 2.11025C5.2175 2.00225 5.378 1.97 5.51825 2.0285C5.6585 2.08625 5.75 2.2235 5.75 2.375V3.5H6.875C8.73575 3.5 10.25 5.01425 10.25 6.875C10.25 7.03625 10.1465 7.1795 9.9935 7.2305Z" fill="#162854"/>
</g>
<defs>
<clipPath id="clip0_19_9007">
<rect width="12" height="12" fill="white" transform="translate(0.5 0.5)"/>
</clipPath>
</defs>
</svg>
