<svg viewBox="0 0 13 13" fill="none" xmlns="http://www.w3.org/2000/svg">
<g clip-path="url(#clip0_19_9013)">
<path d="M11 0.5H2C1.17275 0.5 0.5 1.17275 0.5 2V8.75C0.5 9.57725 1.17275 10.25 2 10.25H2.75V12.125C2.75 12.2705 2.834 12.4025 2.966 12.4648C3.01625 12.488 3.071 12.5 3.125 12.5C3.21125 12.5 3.29675 12.4707 3.365 12.413L5.96075 10.25H11C11.8273 10.25 12.5 9.57725 12.5 8.75V2C12.5 1.17275 11.8273 0.5 11 0.5ZM10.1405 4.8905L7.8905 7.1405C7.7825 7.24775 7.62125 7.28 7.48175 7.2215C7.3415 7.16375 7.25 7.0265 7.25 6.875V5.75H5.75C4.92725 5.75 4.142 6.14225 3.64925 6.80075L3.42425 7.1C3.353 7.196 3.2405 7.25 3.125 7.25C3.08525 7.25 3.0455 7.244 3.0065 7.2305C2.8535 7.1795 2.75 7.03625 2.75 6.875C2.75 5.01425 4.26425 3.5 6.125 3.5H7.25V2.375C7.25 2.2235 7.3415 2.08625 7.48175 2.0285C7.622 1.97 7.7825 2.00225 7.8905 2.1095L10.1405 4.3595C10.2867 4.5065 10.2867 4.7435 10.1405 4.8905Z" fill="#162854"/>
</g>
<defs>
<clipPath id="clip0_19_9013">
<rect width="12" height="12" fill="white" transform="translate(0.5 0.5)"/>
</clipPath>
</defs>
</svg>
