<svg  viewBox="0 0 28 28" xmlns="http://www.w3.org/2000/svg"><g fill="none" transform="translate(3 4)"><path d="m19.0988938 11.5116375-2.1081.5002c-.2652.0672-.5189.1734-.7527.315l-1.7146-1.0483c.1851-.6774.1851-1.39179996 0-2.06909996l1.7146-1.0483c.2338.1416.4875.2478.7527.315 0 0 2.3078.5352 2.4073.5352.7101-.0067 1.2804-.5855 1.2736-1.2926-.0056-.5841-.4075-1.0904-.977-1.2307l-2.1116-.5028c-.0479-.0116-.0889-.0425-.1131-.0853-.026-.0412-.034-.0911-.0223-.13831l.5024-2.09991c.2055-.6769-.179-1.39154-.8588-1.59616-.6799-.20461-1.3976.17822-1.6031.85512-.0152.05019-.0274.10123-.0363.1529l-.5024 2.09991c-.0589.26317-.0783.53357-.0574.80245l-1.7146 1.0525c-.4408-.378-.9546-.6621-1.5097-.8349v-2.01027c.2433-.12276.4664-.28165.6618-.4712l1.5337-1.52628c.5022-.50021.502-1.31101-.0004-1.81094-.5024-.49997-1.3167-.49977-1.8188.00044l-1.5328 1.52709c-.071.07072-.1861.0708-.2571.00016l-.0001-.00016-1.53459997-1.52713c-.5024-.50021-1.3168-.50021-1.8192 0-.5024.50022-.5024 1.31117 0 1.81139l1.5337 1.52628c.1954.18922.4186.34783.6618.47035v2.01027c-.5539.1743-1.0662.4596-1.5054.8383l-1.71891-1.0559c.02147-.27085.0021-.54334-.05743-.80844l-.50237-2.09392c-.15361-.6904-.84025-1.12612-1.53364-.97318-.69338.15294-1.13098.83664-.97738 1.52704.00294.01318.00609.02632.00944.03938l.50237 2.09991c.01171.04721.00368.09711-.02227.13831-.02422.0428-.06522.0737-.11317.0853l-2.10812.4977c-.69085.1642-1.11718.8549-.95224 1.5428.13802.5757.6544.9822 1.24883.9831.09944 0 2.4073-.5353 2.4073-.5353.26519-.0672.51887-.1733.75271-.315l1.7146 1.0483c-.18517.6774-.18517 1.39179996 0 2.06919996l-1.7146 1.0482c-.23384-.1416-.48752-.2478-.75271-.315l-2.10813-.5002c-.67878-.2081-1.39844.1712-1.60741.847-.20897.6759.17192 1.3925.8507 1.6005.05275.0162.10651.029.16087.0382l2.10812.5003c.04795.0116.08895.0425.11317.0853.02595.0412.03398.0911.02227.1383l-.50233 2.0999c-.16571.6879.25995 1.3792.95075 1.5442s1.38516-.2588 1.55087-.9466l.50237-2.0999c.05961-.2654.07898-.5382.05743-.8093l1.71891-1.0525c.4392.3787.9515.6639 1.5054.8383v2.0068c-.2431.1235-.4662.2826-.6618.4721l-1.5337 1.5245c-.5024.5003-.5024 1.3112 0 1.8114s1.3168.5002 1.8192 0l1.53289997-1.5271c.0709-.0707.186-.0708.257-.0002l.0002.0002 1.5328 1.5271c.5024.5002 1.3169.5002 1.8192 0 .5024-.5002.5024-1.3111 0-1.8114l-1.5337-1.5262c-.1952-.1888-.4177-.3473-.6601-.4704v-2.0103c.5539-.1743 1.0662-.4596 1.5054-.8382l1.7146 1.0525c-.0215.2708-.0021.5433.0574.8084l.5024 2.0999c.1657.6878.8601 1.1116 1.5509.9466s1.1164-.8563.9507-1.5442l-.5023-2.0999c-.0118-.0472-.0037-.0971.0222-.1383.0242-.0428.0652-.0737.1132-.0853l2.1081-.5002c.6908-.165 1.1165-.8564.9508-1.5442-.1657-.6879-.8601-1.1117-1.5509-.9467zm-8.7171.4396c-.94699997 0-1.71459997-.7644-1.71459997-1.7073 0-.94279996.7676-1.70719996 1.71459997-1.70719996.9469 0 1.7146.7644 1.7146 1.70719996 0 .9429-.7677 1.7073-1.7146 1.7073z" fill="#827ca1"/><path d="m22.0964938 15.0264375c0 3.1314-2.5627 5.6746-5.7298 5.6746s-5.7298-2.5432-5.7298-5.6746 2.5627-5.67469996 5.7298-5.67469996 5.7298 2.54329996 5.7298 5.67469996z" fill="#827ca1" stroke="#fff" stroke-width=".601989"/><g fill="#fff"><path d="m15.7386938 16.5046375c.1089 0 .1949.0302.2581.0908.0631.0584.0947.1363.0947.2337v.5842h-3.3454v-.3246c0-.0627.0131-.1298.0392-.2012s.0719-.1363.1372-.1947l1.3722-1.3728c.1176-.1169.2199-.2283.3071-.3343.0871-.106.159-.2099.2156-.3116.0566-.1038.0991-.2066.1274-.3083.0283-.1038.0425-.2131.0425-.3278 0-.1882-.0458-.3321-.1372-.4316-.0893-.1017-.2266-.1525-.4117-.1525-.1503 0-.2777.04-.3822.12-.1024.0779-.1732.1753-.2124.2921-.0457.119-.1056.198-.1797.2369-.074.039-.1797.0476-.3169.026l-.5358-.0941c.0349-.2358.1013-.4414.1993-.6166.1002-.1753.2233-.3213.3692-.4382.1481-.1168.3169-.2033.5064-.2596.1895-.0584.3931-.0876.6109-.0876.2352 0 .4465.0346.6338.1038.1895.0671.3507.1612.4835.2824.1329.1211.2342.2661.3039.4349.0718.1666.1078.3505.1078.5517 0 .1731-.0251.3332-.0752.4803-.0479.1471-.1143.2878-.1993.4219-.0849.132-.184.2607-.2973.3862-.111.1233-.2297.2488-.3561.3765l-.9311.9476c.1198-.0367.2385-.0649.3562-.0843.1176-.0195.2265-.0292.3267-.0292z"/><path d="m18.6108938 15.5764375v-1.2333c0-.0757.0022-.1569.0065-.2434.0066-.0887.0153-.1807.0262-.2759l-1.2578 1.7526zm1.3721 0v.5647c0 .0497-.0174.093-.0522.1298-.0327.0368-.0806.0552-.1438.0552h-.294v1.0872h-.8821v-1.0872h-1.9145c-.0631 0-.1209-.0195-.1731-.0585-.0501-.0389-.0817-.0876-.0948-.146l-.1045-.4966 2.2019-2.9403h.9671v2.8917z"/></g></g></svg>