<svg viewBox="0 0 24 24" xmlns="http://www.w3.org/2000/svg">
<rect width="24" height="24" rx="6" />
<path d="M17.819 7.99615L16.0051 6.18224C15.8663 6.04342 15.6412 6.04342 15.5022 6.18224L12.0002 9.68457L8.49808 6.18243C8.35926 6.04361 8.13418 6.04361 7.99518 6.18243L6.18126 7.99634C6.04244 8.13516 6.04244 8.36023 6.18126 8.49924L9.6836 12.0012L6.18145 15.5034C6.04263 15.6422 6.04263 15.8672 6.18145 16.0062L7.99536 17.8202C8.13418 17.959 8.35926 17.959 8.49826 17.8202L12.0002 14.3178L15.5024 17.82C15.6412 17.9588 15.8663 17.9588 16.0053 17.82L17.8192 16.0061C17.958 15.8672 17.958 15.6422 17.8192 15.5032L14.3169 12.0012L17.819 8.49905C17.958 8.36042 17.958 8.13516 17.819 7.99615Z" fill="white"/>
</svg>
