<svg viewBox="0 0 24 24" xmlns="http://www.w3.org/2000/svg">
<rect width="24" height="24" rx="6" />
<path d="M14.7105 9.10055C13.9719 8.40895 13.0134 8.02985 11.9965 8.03074C10.1665 8.03236 8.58655 9.28716 8.15033 11.0278C8.11858 11.1545 8.0057 11.244 7.87506 11.244H6.52119C6.34405 11.244 6.20947 11.0831 6.24224 10.909C6.75344 8.19434 9.13689 6.14062 12.0001 6.14062C13.57 6.14062 14.9957 6.75813 16.0477 7.76341L16.8915 6.91959C17.2487 6.56238 17.8595 6.81537 17.8595 7.32056V10.4879C17.8595 10.8011 17.6056 11.055 17.2924 11.055H14.1251C13.6199 11.055 13.3669 10.4442 13.7241 10.087L14.7105 9.10055Z" fill="white"/>
<path d="M6.70767 12.9429H9.87502C10.3802 12.9429 10.6332 13.5537 10.276 13.9109L9.28957 14.8973C10.0282 15.5889 10.9868 15.968 12.0037 15.9671C13.8328 15.9654 15.4133 14.7115 15.8498 12.9701C15.8815 12.8434 15.9944 12.7539 16.125 12.7539H17.4789C17.6561 12.7539 17.7907 12.9147 17.7579 13.0888C17.2467 15.8035 14.8632 17.8572 12 17.8572C10.4301 17.8572 9.00436 17.2397 7.95241 16.2344L7.10859 17.0782C6.75138 17.4354 6.14062 17.1824 6.14062 16.6772V13.5099C6.14062 13.1967 6.3945 12.9429 6.70767 12.9429Z" fill="white"/>
</svg>
