<svg viewBox="0 0 20 20" fill="none" xmlns="http://www.w3.org/2000/svg">
<path fill-rule="evenodd" clip-rule="evenodd" d="M10.9891 0.714516L13.169 6.1374C13.1872 6.1837 13.2171 6.22394 13.2555 6.25382C13.2945 6.28242 13.3402 6.29927 13.3878 6.30254L19.0274 6.79784C19.2358 6.8147 19.4347 6.89625 19.5986 7.03204C19.7624 7.16782 19.8838 7.35167 19.9471 7.56002C19.9814 7.66995 19.9992 7.78476 20 7.90039V7.91444C19.9994 8.01087 19.9865 8.10678 19.9618 8.19967C19.9051 8.4099 19.7903 8.59792 19.6317 8.74006L15.3475 12.6069C15.3105 12.6391 15.2828 12.6813 15.2674 12.7289C15.2536 12.7769 15.2526 12.828 15.2644 12.8765L16.5563 18.6386C16.6049 18.851 16.5921 19.0737 16.5197 19.2786C16.4472 19.4834 16.3183 19.6612 16.1493 19.7894C15.9803 19.9177 15.7786 19.9907 15.57 19.9992C15.3613 20.0076 15.1548 19.9512 14.9768 19.8371L10.1361 16.7717C10.0954 16.7452 10.0484 16.7312 10.0005 16.7312C9.95251 16.7312 9.90553 16.7452 9.86484 16.7717L5.02412 19.8371C4.84605 19.9509 4.63972 20.0071 4.43115 19.9985C4.22258 19.9899 4.02112 19.9169 3.85219 19.7887C3.68325 19.6605 3.5544 19.4829 3.48188 19.2782C3.40937 19.0736 3.39645 18.851 3.44474 18.6387L4.7366 12.8765C4.74935 12.828 4.74827 12.7767 4.7335 12.7288C4.71872 12.6809 4.6909 12.6386 4.65343 12.607L0.369294 8.74006C0.210677 8.59787 0.0958837 8.40974 0.0393949 8.1994C-0.017094 7.98907 -0.0127477 7.76595 0.0518855 7.55819C0.116519 7.35044 0.238543 7.16735 0.402566 7.03204C0.566589 6.89672 0.765263 6.81523 0.973525 6.79784L6.61327 6.30238C6.66079 6.29907 6.70655 6.28222 6.74557 6.25365C6.78389 6.2237 6.81377 6.18348 6.83205 6.13724L9.02464 0.681839L9.02355 0.681553C9.1038 0.47975 9.23942 0.307324 9.41328 0.186028C9.58714 0.0647314 9.79147 0 10.0005 0C10.2095 0 10.4138 0.0647314 10.5877 0.186028C10.7615 0.307324 10.8971 0.47975 10.9774 0.681553C10.9819 0.692314 10.9858 0.703318 10.9891 0.714516Z" fill="#FCCC21"/>
</svg>
