<svg viewBox="0 0 28 28" xmlns="http://www.w3.org/2000/svg"><path d="m11.8681203 1.04336304c.1799436-.04336304.2257697-.02731894.2648053-.00009137.0502071.03503981.0876312.08599883.1120168.14734048l2.8524888 7.10108718 7.6456295.86192126c.0505877.0017999.0981142.02243646.137074.05471434.0206798.01714223.0386959.03709834.0539624.05917241.0046231.26650396.0314538.40873527-.0460801.47822907l-5.5632954 5.02132789 1.5658313 7.8132236c.0185955.0729833.0152036.150162-.0095903.2203321-.0210046.0593342-.0566047.1123866-.1064697.1501911-.0382905.0290691-.0835932.0471299-.130712.0490491-.0466495.0018776-.0923815-.0118395-.1366186-.0401779l-6.3295461-4.00822-6.6797822 4.0055408c-.04123783.0284064-.08969983.0441003-.13925256.0420571-.04768273-.0019661-.09305946-.0200795-.13144841-.0492127-.04938637-.0374768-.08521736-.090484-.10631593-.1500383-.0239948-.0677056-.02800215-.1413579-.01134844-.2145953l1.67447413-7.4688662-5.66661175-5.36707375c-.05146633-.04341263-.0865663-.10340371-.10428241-.16937064-.01876441-.06986705-.01739853-.14399168.00407142-.21300592.01909826-.06138758.05354787-.11681875.10234601-.15707454.03795299-.03131146.08344105-.05182684.13627364-.05624779l7.36340684-.64688568 3.13779266-7.31372301c.021546-.06052414.0595736-.1135986.1111811-.14960333z" stroke-width="2" transform="translate(2.412109 2)"/></svg>