<svg viewBox="0 0 28 28" xmlns="http://www.w3.org/2000/svg"><path d="m11.5820312.63329837c.567698-.13329837.7131911-.08643746.837049-.00004568.1293836.09029754.2295157.21923269.2898285.37098537l2.741205 6.82405332 7.3356331.82697418c.1511024.01074938.2950622.07001922.4134804.16812787.1025463.08500443.1821612.19562022.2329609.32077915-.0342109.64726781-.0713823.84925167-.2091597.97273412l-5.3521689 4.830769 1.5079304 7.5243085c.0387922.1643398.0295001.3370339-.0264896.4954912-.0540023.1525471-.1490824.2857534-.2754749.3815757-.1205453.0915146-.2641568.144345-.4129362.1504046-.1485448.0059788-.2953109-.0347198-.4242294-.117349l-6.0691945-3.8433509-6.40553537 3.8410883c-.12781883.0831729-.27644441.1249973-.42694757.1187916-.14898342-.0061431-.29254784-.0589998-.41310036-.1504864-.12605724-.0956585-.22128277-.2287221-.27534407-.3813193-.05550342-.1566129-.0652591-.3269991-.02795823-.4909978l1.61234742-7.1917548-5.45252838-5.1643068c-.12143705-.1072024-.20834354-.25045814-.25123761-.41017665-.04327562-.16113158-.03998448-.33206596.00953031-.49122914.04832895-.15534385.13876879-.29291348.26158171-.39422742.11739034-.09684777.25933703-.15599948.41070938-.16864396l7.065555-.62071898 3.01504797-7.02762372c.0581629-.15224615.1588767-.28275898.2894457-.37385236z" stroke="#000" transform="translate(2.412109 2)"/></svg>