<svg viewBox="0 0 18 18" xmlns="http://www.w3.org/2000/svg">
<path d="M8.62678 9.29877V17.4996C8.57994 17.4829 8.53596 17.4587 8.49626 17.4281L2.82791 13.9352C2.57394 13.7863 2.36341 13.5704 2.21834 13.3098C2.06736 13.0382 1.99205 12.7291 2.00066 12.4165V5.20728L8.62678 9.29877Z" />
<path d="M16.7336 5.20728V12.4433C16.7224 12.7414 16.6418 13.0324 16.4985 13.292C16.3623 13.5586 16.1536 13.7789 15.8977 13.9262L10.2293 17.4192L10.1074 17.4817V9.28984L12.946 7.50317V9.9777C12.946 10.1791 13.0239 10.3722 13.1627 10.5146C13.3015 10.657 13.4898 10.737 13.6861 10.737C13.8823 10.737 14.0707 10.657 14.2095 10.5146C14.3483 10.3722 14.4262 10.1791 14.4262 9.9777V6.63662L16.7336 5.20728Z" />
<path d="M12.2229 6.23415L9.36699 8.02081L2.69727 3.91147L2.79304 3.84896L5.45747 2.39282L12.2229 6.23415Z" />
<path d="M16.0275 3.89489L13.6679 5.34209L7.01562 1.51863L8.46108 0.741426C8.7256 0.583976 9.02591 0.500798 9.33179 0.500244C9.63794 0.506748 9.93755 0.592803 10.2025 0.750369L15.836 3.8413C15.9031 3.84346 15.9687 3.86182 16.0275 3.89489Z" />
</svg>
