<svg viewBox="0 0 18 18" xmlns="http://www.w3.org/2000/svg">
<path d="M13.6098 10.4805H13.0684C12.8258 10.4805 12.6289 10.6773 12.6289 10.9199C12.6289 11.1625 12.8258 11.3594 13.0684 11.3594H13.6098C13.8523 11.3594 14.0492 11.1625 14.0492 10.9199C14.0492 10.6773 13.8523 10.4805 13.6098 10.4805Z" />
<path d="M13.6098 11.8867H13.0684C12.8258 11.8867 12.6289 12.0836 12.6289 12.3262C12.6289 12.5688 12.8258 12.7656 13.0684 12.7656H13.6098C13.8523 12.7656 14.0492 12.5688 14.0492 12.3262C14.0492 12.0836 13.8523 11.8867 13.6098 11.8867Z" />
<path d="M13.6098 13.293H13.0684C12.8258 13.293 12.6289 13.4898 12.6289 13.7324C12.6289 13.975 12.8258 14.1719 13.0684 14.1719H13.6098C13.8523 14.1719 14.0492 13.975 14.0492 13.7324C14.0492 13.4898 13.8523 13.293 13.6098 13.293Z" />
<path d="M4.39063 11.3594H4.93203C5.17461 11.3594 5.37148 11.1625 5.37148 10.9199C5.37148 10.6773 5.17461 10.4805 4.93203 10.4805H4.39063C4.14805 10.4805 3.95117 10.6773 3.95117 10.9199C3.95117 11.1625 4.14805 11.3594 4.39063 11.3594Z" />
<path d="M4.39063 12.7656H4.93203C5.17461 12.7656 5.37148 12.5688 5.37148 12.3262C5.37148 12.0836 5.17461 11.8867 4.93203 11.8867H4.39063C4.14805 11.8867 3.95117 12.0836 3.95117 12.3262C3.95117 12.5688 4.14805 12.7656 4.39063 12.7656Z" />
<path d="M4.39063 14.1719H4.93203C5.17461 14.1719 5.37148 13.975 5.37148 13.7324C5.37148 13.4898 5.17461 13.293 4.93203 13.293H4.39063C4.14805 13.293 3.95117 13.4898 3.95117 13.7324C3.95117 13.975 4.14805 14.1719 4.39063 14.1719Z" />
<path d="M16.0662 16.4498H15.4693V10.3836C15.4693 9.72617 15.0474 9.15277 14.4198 8.9573L12.0865 8.22992V6.80469C12.0865 5.98098 11.4161 5.31055 10.5924 5.31055H7.40547C6.58176 5.31055 5.91133 5.98098 5.91133 6.80469V8.22992L3.57801 8.9573C2.95047 9.15312 2.52859 9.72617 2.52859 10.3836V16.4498H1.93164C1.68906 16.4498 1.49219 16.6467 1.49219 16.8893C1.49219 17.1318 1.68906 17.3287 1.93164 17.3287H7.95426C7.95426 17.3287 7.95496 17.3287 7.95531 17.3287H10.0429C10.0429 17.3287 10.0436 17.3287 10.0439 17.3287H16.0662C16.3088 17.3287 16.5057 17.1318 16.5057 16.8893C16.5057 16.6467 16.3088 16.4498 16.0662 16.4498ZM8.9991 14.2487C8.66582 14.2487 8.39477 14.5201 8.39477 14.8534V16.4498H7.51586V14.8534C7.51586 14.0353 8.18137 13.3698 8.9991 13.3698C9.81684 13.3698 10.4823 14.0353 10.4823 14.8534V16.4498H9.60344V14.8534C9.60344 14.5201 9.33238 14.2487 8.9991 14.2487ZM10.1466 10.7858H9.6052C9.36262 10.7858 9.16574 10.5889 9.16574 10.3463C9.16574 10.1038 9.36262 9.90688 9.6052 9.90688H10.1466C10.3892 9.90688 10.5861 10.1034 10.5861 10.3463C10.5861 10.5893 10.3892 10.7858 10.1466 10.7858ZM10.5861 11.7526C10.5861 11.9952 10.3892 12.192 10.1466 12.192H9.6052C9.36262 12.192 9.16574 11.9952 9.16574 11.7526C9.16574 11.51 9.36262 11.3131 9.6052 11.3131H10.1466C10.3892 11.3131 10.5861 11.5096 10.5861 11.7526ZM10.1466 9.37953H9.6052C9.36262 9.37953 9.16574 9.18266 9.16574 8.94008C9.16574 8.6975 9.36262 8.50062 9.6052 8.50062H10.1466C10.3892 8.50062 10.5861 8.69715 10.5861 8.94008C10.5861 9.18301 10.3892 9.37953 10.1466 9.37953ZM10.1466 7.97328H9.6052C9.36262 7.97328 9.16574 7.77641 9.16574 7.53383C9.16574 7.29125 9.36262 7.09437 9.6052 7.09437H10.1466C10.3892 7.09437 10.5861 7.2909 10.5861 7.53383C10.5861 7.77676 10.3892 7.97328 10.1466 7.97328ZM8.39301 10.7858H7.8516C7.60902 10.7858 7.41215 10.5889 7.41215 10.3463C7.41215 10.1038 7.60902 9.90688 7.8516 9.90688H8.39301C8.63559 9.90688 8.83246 10.1034 8.83246 10.3463C8.83246 10.5893 8.63559 10.7858 8.39301 10.7858ZM8.83246 11.7526C8.83246 11.9952 8.63559 12.192 8.39301 12.192H7.8516C7.60902 12.192 7.41215 11.9952 7.41215 11.7526C7.41215 11.51 7.60902 11.3131 7.8516 11.3131H8.39301C8.63559 11.3131 8.83246 11.5096 8.83246 11.7526ZM8.39301 9.37953H7.8516C7.60902 9.37953 7.41215 9.18266 7.41215 8.94008C7.41215 8.6975 7.60902 8.50062 7.8516 8.50062H8.39301C8.63559 8.50062 8.83246 8.69715 8.83246 8.94008C8.83246 9.18301 8.63559 9.37953 8.39301 9.37953ZM8.39301 7.97328H7.8516C7.60902 7.97328 7.41215 7.77641 7.41215 7.53383C7.41215 7.29125 7.60902 7.09437 7.8516 7.09437H8.39301C8.63559 7.09437 8.83246 7.2909 8.83246 7.53383C8.83246 7.77676 8.63559 7.97328 8.39301 7.97328ZM3.40785 10.3836C3.40785 10.1129 3.58152 9.87699 3.83992 9.79613L5.91168 9.15031V16.4498H5.09922V15.6032C5.09922 15.3607 4.90234 15.1638 4.65977 15.1638C4.41719 15.1638 4.22031 15.3607 4.22031 15.6032V16.4498H3.40785V10.3836ZM13.7782 16.4498V15.6032C13.7782 15.3607 13.5814 15.1638 13.3388 15.1638C13.0962 15.1638 12.8993 15.3607 12.8993 15.6032V16.4498H12.0869V9.15031L14.1586 9.79613C14.417 9.87664 14.5907 10.1129 14.5907 10.3836V16.4498H13.7782Z" />
<path d="M3.51527 6.69512C3.60105 6.7809 3.71355 6.82379 3.82605 6.82379C3.93855 6.82379 4.05105 6.7809 4.13684 6.69512L5.32617 5.50578C5.49773 5.33422 5.49773 5.05578 5.32617 4.88422C5.15461 4.71266 4.87617 4.71266 4.70461 4.88422L4.26551 5.32332V3.40625C4.26551 3.16367 4.06863 2.9668 3.82605 2.9668C3.58348 2.9668 3.3866 3.16367 3.3866 3.40625V5.32332L2.9475 4.88422C2.77594 4.71266 2.4975 4.71266 2.32594 4.88422C2.15437 5.05578 2.15437 5.33422 2.32594 5.50578L3.51527 6.69512Z" />
<path d="M8.69301 4.4002C8.77879 4.48598 8.89129 4.52887 9.00379 4.52887C9.11629 4.52887 9.22879 4.48598 9.31457 4.4002L10.5039 3.21086C10.6755 3.0393 10.6755 2.76086 10.5039 2.5893C10.3323 2.41773 10.0539 2.41773 9.88234 2.5893L9.44324 3.0284V1.11133C9.44324 0.86875 9.24637 0.671875 9.00379 0.671875C8.76121 0.671875 8.56434 0.86875 8.56434 1.11133V3.0284L8.12523 2.5893C7.95367 2.41773 7.67523 2.41773 7.50367 2.5893C7.33211 2.76086 7.33211 3.0393 7.50367 3.21086L8.69301 4.4002Z" />
<path d="M13.8668 6.72637C13.9526 6.81215 14.0651 6.85504 14.1776 6.85504C14.2901 6.85504 14.4026 6.81215 14.4884 6.72637L15.6777 5.53703C15.8493 5.36547 15.8493 5.08703 15.6777 4.91547C15.5062 4.74391 15.2277 4.74391 15.0562 4.91547L14.6171 5.35457V3.4375C14.6171 3.19492 14.4202 2.99805 14.1776 2.99805C13.935 2.99805 13.7382 3.19492 13.7382 3.4375V5.35457L13.2991 4.91547C13.1275 4.74391 12.8491 4.74391 12.6775 4.91547C12.5059 5.08703 12.5059 5.36547 12.6775 5.53703L13.8668 6.72637Z" />
</svg>
