<svg viewBox="0 0 18 18" xmlns="http://www.w3.org/2000/svg">
<path d="M14.9458 3.09549L14.9242 3.07388C13.6245 1.77425 11.8963 1.05859 10.0582 1.05859C8.22008 1.05859 6.4919 1.77425 5.19203 3.07388C3.8919 4.37377 3.17578 6.10228 3.17578 7.94076C3.17578 9.77936 3.8919 11.5079 5.19216 12.8079L5.21523 12.831C6.5127 14.1162 8.23175 14.8233 10.0577 14.8233H10.0733C11.9056 14.8192 13.6284 14.1034 14.9242 12.8079C16.2203 11.5119 16.9363 9.78889 16.9405 7.95614C16.9445 6.12377 16.2366 4.39805 14.9458 3.09549ZM10.06 11.1985C9.79104 11.1985 9.57296 10.9798 9.57296 10.7103C9.57296 10.4407 9.79104 10.2221 10.06 10.2221C10.3289 10.2221 10.5468 10.4407 10.5468 10.7103C10.5468 10.9798 10.3289 11.1985 10.06 11.1985ZM10.9601 8.32744C10.5622 8.63748 10.5418 8.85116 10.5333 9.30458C10.5283 9.57089 10.3114 9.78355 10.0467 9.78355C10.0436 9.78355 10.0406 9.78355 10.0374 9.78355C9.7686 9.77847 9.5547 9.55589 9.55977 9.2864C9.56852 8.81328 9.58056 8.16537 10.364 7.55547C10.365 7.55471 10.3659 7.55394 10.3669 7.55318C10.9312 7.12061 10.9358 6.60884 10.9344 6.55138C10.9312 6.52202 10.9313 6.51579 10.9341 6.48579C10.9346 6.4535 10.9339 6.16444 10.7479 5.96347C10.6096 5.81399 10.3837 5.73212 10.0764 5.72005C9.68212 5.72132 9.40977 5.81373 9.26675 5.99462C9.07111 6.24198 9.11232 6.65638 9.14478 6.79519C9.24456 7.13561 9.06756 7.35577 8.80257 7.41373C8.53744 7.4717 8.26978 7.37344 8.19916 7.02794C8.17507 6.93095 7.97867 6.06135 8.49712 5.39641C8.83464 4.96333 9.36895 4.7438 10.0849 4.7438C10.0906 4.7438 10.0962 4.74393 10.1018 4.74405C10.6906 4.76465 11.1528 4.95646 11.4755 5.31442C11.9 5.78538 11.912 6.36732 11.9073 6.51732C11.9123 6.72401 11.877 7.62348 10.9601 8.32744Z" />
<path d="M4.48507 13.477C4.24507 13.2366 4.02957 12.9783 3.83989 12.7051L1.3588 15.1894C1.16521 15.3833 1.05859 15.641 1.05859 15.9151C1.05859 16.1892 1.16521 16.4471 1.3588 16.6409C1.55825 16.8406 1.82007 16.9404 2.08199 16.9404C2.34381 16.9404 2.60583 16.8406 2.80518 16.6409L5.29389 14.1492C5.01406 13.9579 4.74967 13.7396 4.5038 13.4958L4.48507 13.477Z" />
</svg>
