<svg viewBox="0 0 18 18" xmlns="http://www.w3.org/2000/svg">
<path d="M9 1.5C7.51664 1.5 6.0666 1.93987 4.83323 2.76398C3.59986 3.58809 2.63856 4.75943 2.07091 6.12987C1.50325 7.50032 1.35472 9.00832 1.64411 10.4632C1.9335 11.918 2.64781 13.2544 3.6967 14.3033C4.7456 15.3522 6.08197 16.0665 7.53683 16.3559C8.99168 16.6453 10.4997 16.4968 11.8701 15.9291C13.2406 15.3614 14.4119 14.4001 15.236 13.1668C16.0601 11.9334 16.5 10.4834 16.5 9C16.5 8.01509 16.306 7.03982 15.9291 6.12987C15.5522 5.21993 14.9997 4.39314 14.3033 3.6967C13.6069 3.00026 12.7801 2.44781 11.8701 2.0709C10.9602 1.69399 9.98492 1.5 9 1.5ZM12.5325 8.0325L8.7825 11.7825C8.71278 11.8528 8.62983 11.9086 8.53844 11.9467C8.44704 11.9847 8.34901 12.0043 8.25 12.0043C8.15099 12.0043 8.05297 11.9847 7.96157 11.9467C7.87018 11.9086 7.78723 11.8528 7.7175 11.7825L5.4675 9.5325C5.39757 9.46257 5.3421 9.37955 5.30426 9.28819C5.26641 9.19682 5.24693 9.09889 5.24693 9C5.24693 8.80027 5.32628 8.60873 5.4675 8.4675C5.60873 8.32627 5.80028 8.24693 6 8.24693C6.19973 8.24693 6.39128 8.32627 6.5325 8.4675L8.25 10.1925L11.4675 6.9675C11.6087 6.82627 11.8003 6.74693 12 6.74693C12.1997 6.74693 12.3913 6.82627 12.5325 6.9675C12.6737 7.10873 12.7531 7.30027 12.7531 7.5C12.7531 7.69973 12.6737 7.89127 12.5325 8.0325Z" />
</svg>
