<svg viewBox="0 0 18 18" xmlns="http://www.w3.org/2000/svg">
<path d="M14.4375 0H11.6917H11.25H4.5H4.05825H1.3125C0.5925 0 0 0.5925 0 1.3125V14.4375C0 15.1575 0.5925 15.75 1.3125 15.75H7.32C6.9525 14.9475 6.75 14.0625 6.75 13.125C6.75 9.6075 9.6075 6.75 13.125 6.75C14.0625 6.75 14.9475 6.9525 15.75 7.32V1.3125C15.75 0.5925 15.1575 0 14.4375 0ZM10.9125 6.705C10.8375 6.735 10.7625 6.75 10.6875 6.75C10.545 6.75 10.41 6.6975 10.305 6.6L7.875 4.335L5.445 6.6C5.28 6.75 5.04 6.795 4.8375 6.705C4.635 6.615 4.5 6.4125 4.5 6.1875V1.125H11.25V6.1875C11.25 6.4125 11.115 6.615 10.9125 6.705Z" />
<path d="M16.9425 10.1025C16.71 9.81 16.44 9.54 16.1475 9.3075C15.3225 8.6475 14.265 8.25 13.125 8.25C10.44 8.25 8.25 10.44 8.25 13.125C8.25 14.265 8.6475 15.3225 9.3075 16.1475C9.54 16.44 9.81 16.71 10.1025 16.9425C10.9275 17.6025 11.985 18 13.125 18C15.81 18 18 15.81 18 13.125C18 11.985 17.6025 10.9275 16.9425 10.1025ZM13.125 16.875C12.2925 16.875 11.5275 16.605 10.905 16.14C10.5975 15.9225 10.3275 15.6525 10.11 15.345C9.645 14.7225 9.375 13.9575 9.375 13.125C9.375 11.055 11.055 9.375 13.125 9.375C13.9575 9.375 14.7225 9.645 15.345 10.11C15.6525 10.3275 15.9225 10.5975 16.14 10.905C16.605 11.5275 16.875 12.2925 16.875 13.125C16.875 15.195 15.195 16.875 13.125 16.875Z" />
<path d="M16.9416 10.1016L16.1391 10.9041L10.9041 16.1391L10.1016 16.9416C9.80914 16.7091 9.53914 16.4391 9.30664 16.1466L10.1091 15.3441L15.3441 10.1091L16.1466 9.30664C16.4391 9.53914 16.7091 9.80914 16.9416 10.1016Z" />
</svg>
