<svg viewBox="0 0 18 18" xmlns="http://www.w3.org/2000/svg">
<path d="M15.1875 3.375H13.5V2.8125C13.4996 2.36507 13.3217 1.93608 13.0053 1.6197C12.6889 1.30331 12.2599 1.1254 11.8125 1.125H6.1875C5.74007 1.1254 5.31108 1.30331 4.9947 1.6197C4.67831 1.93608 4.5004 2.36507 4.5 2.8125V3.375H2.8125C2.21595 3.3756 1.644 3.61284 1.22217 4.03467C0.80034 4.4565 0.563096 5.02845 0.5625 5.625V14.625C0.5625 15.2217 0.799553 15.794 1.22151 16.216C1.64347 16.6379 2.21576 16.875 2.8125 16.875H15.1875C15.7842 16.875 16.3565 16.6379 16.7785 16.216C17.2004 15.794 17.4375 15.2217 17.4375 14.625V5.625C17.4369 5.02845 17.1997 4.4565 16.7778 4.03467C16.356 3.61284 15.7841 3.3756 15.1875 3.375ZM11.8125 10.6875H9.5625V12.9375C9.5625 13.0867 9.50324 13.2298 9.39775 13.3352C9.29226 13.4407 9.14918 13.5 9 13.5C8.85082 13.5 8.70774 13.4407 8.60225 13.3352C8.49676 13.2298 8.4375 13.0867 8.4375 12.9375V10.6875H6.1875C6.03832 10.6875 5.89524 10.6282 5.78975 10.5227C5.68426 10.4173 5.625 10.2742 5.625 10.125C5.625 9.97582 5.68426 9.83274 5.78975 9.72725C5.89524 9.62176 6.03832 9.5625 6.1875 9.5625H8.4375V7.3125C8.4375 7.16332 8.49676 7.02024 8.60225 6.91475C8.70774 6.80926 8.85082 6.75 9 6.75C9.14918 6.75 9.29226 6.80926 9.39775 6.91475C9.50324 7.02024 9.5625 7.16332 9.5625 7.3125V9.5625H11.8125C11.9617 9.5625 12.1048 9.62176 12.2102 9.72725C12.3157 9.83274 12.375 9.97582 12.375 10.125C12.375 10.2742 12.3157 10.4173 12.2102 10.5227C12.1048 10.6282 11.9617 10.6875 11.8125 10.6875ZM12.375 3.375H5.625V2.8125C5.625 2.66332 5.68426 2.52024 5.78975 2.41475C5.89524 2.30926 6.03832 2.25 6.1875 2.25H11.8125C11.9617 2.25 12.1048 2.30926 12.2102 2.41475C12.3157 2.52024 12.375 2.66332 12.375 2.8125V3.375Z" />
</svg>
