<svg viewBox="0 0 18 18" xmlns="http://www.w3.org/2000/svg">
<path d="M11.271 8.01562H6.49217C6.33694 8.01562 6.21094 8.14163 6.21094 8.29686C6.21094 8.45209 6.33694 8.57809 6.49217 8.57809H11.271C11.4264 8.57809 11.5522 8.45209 11.5522 8.29686C11.5522 8.14163 11.4264 8.01562 11.271 8.01562Z" />
<path d="M8.18404 9.42188H6.49217C6.33694 9.42188 6.21094 9.54788 6.21094 9.70311C6.21094 9.85834 6.33694 9.98434 6.49217 9.98434H8.18404C8.33942 9.98434 8.46528 9.85834 8.46528 9.70311C8.46528 9.54788 8.33942 9.42188 8.18404 9.42188Z" />
<path d="M11.2704 9.42188H9.4492C9.29397 9.42188 9.16797 9.54788 9.16797 9.70311C9.16797 9.85834 9.29397 9.98434 9.4492 9.98434H11.2704C11.4258 9.98434 11.5516 9.85834 11.5516 9.70311C11.5516 9.54788 11.4259 9.42188 11.2704 9.42188Z" />
<path d="M16.3125 1.66797C16.3125 0.74679 15.5656 0 14.6444 0H3.35561C2.43429 0 1.6875 0.74679 1.6875 1.66797V16.332C1.6875 17.2532 2.43429 18 3.35561 18H14.6446C15.5658 18 16.3127 17.2532 16.3127 16.332V1.66797H16.3125ZM4.93818 15.047H3.1157C2.84397 15.047 2.62293 14.8261 2.62293 14.5548C2.62293 14.2835 2.84397 14.0626 3.1157 14.0626H4.93818C5.20991 14.0626 5.43095 14.2835 5.43095 14.5548C5.43095 14.8261 5.20991 15.047 4.93818 15.047ZM4.93818 3.93757H3.1157C2.84397 3.93757 2.62293 3.71667 2.62293 3.44537C2.62293 3.17407 2.84397 2.95318 3.1157 2.95318H4.93818C5.20991 2.95318 5.43095 3.17407 5.43095 3.44537C5.43095 3.71667 5.20991 3.93757 4.93818 3.93757ZM12.5157 10.8282H5.48438V7.17198H12.5157V10.8282Z" />
</svg>
