<svg viewBox="0 0 18 18" xmlns="http://www.w3.org/2000/svg">
<path fill-rule="evenodd" clip-rule="evenodd" d="M15.7084 5.68222C15.8469 5.73934 15.9727 5.82329 16.0785 5.92918C16.1845 6.03428 16.2685 6.15924 16.3256 6.29685C16.3828 6.43445 16.4119 6.58197 16.4114 6.73086V14.433C16.4111 14.7658 16.3429 15.0951 16.2111 15.401C16.0793 15.7069 15.8865 15.983 15.6444 16.2126C15.164 16.6793 14.5178 16.9409 13.8458 16.9409H4.1535C2.76389 16.9409 1.58789 15.7709 1.58789 14.3884V6.73086C1.58789 6.42999 1.70803 6.14143 1.92187 5.92868C2.13571 5.71593 2.42574 5.59641 2.72816 5.59641H5.0087V5.02918C5.0087 3.97612 5.42918 2.96618 6.17762 2.22155C6.92607 1.47692 7.94119 1.05859 8.99965 1.05859C10.0581 1.05859 11.0732 1.47692 11.8217 2.22155C12.5701 2.96618 12.9906 3.97612 12.9906 5.02918V5.59641H15.2711C15.4212 5.59593 15.5698 5.62509 15.7084 5.68222ZM6.98392 3.02373C6.44931 3.55561 6.14897 4.27699 6.14897 5.02918V5.59641H11.8503V5.02918C11.8503 4.27699 11.55 3.55561 11.0154 3.02373C10.4808 2.49185 9.7557 2.19305 8.99965 2.19305C8.2436 2.19305 7.51852 2.49185 6.98392 3.02373ZM10.3409 8.78756C10.7314 8.95277 11.085 9.19347 11.3813 9.4957C11.9824 10.0938 12.3201 10.9049 12.32 11.7507C12.32 12.5964 11.9823 13.4076 11.3811 14.0056C10.78 14.6036 9.96471 14.9396 9.11461 14.9395C8.26451 14.9395 7.44923 14.6035 6.84814 14.0054C6.54438 13.7107 6.30247 13.3588 6.13644 12.9703C5.97041 12.5818 5.88355 12.1644 5.88092 11.7422C5.87829 11.3201 5.95992 10.9016 6.1211 10.5111C6.28227 10.1205 6.51977 9.76573 6.81983 9.46723C7.11988 9.16872 7.47652 8.93246 7.86906 8.77213C8.2616 8.61181 8.68222 8.53062 9.10654 8.53327C9.53086 8.53591 9.95043 8.62235 10.3409 8.78756ZM11.1209 13.2632C11.4537 12.8285 11.6336 12.2971 11.6331 11.7507L11.6334 11.7504C11.6334 10.3698 10.504 9.24484 9.11502 9.24484C8.5656 9.2443 8.03123 9.42347 7.5942 9.75476L11.1209 13.2632ZM7.10883 10.238C6.77591 10.6727 6.59582 11.2042 6.59629 11.7507L6.5966 11.7504C6.5966 13.1323 7.72699 14.256 9.11502 14.256C9.6642 14.2565 10.1983 14.0774 10.6352 13.7464L7.10883 10.238Z" />
</svg>
