<svg viewBox="0 0 18 18" xmlns="http://www.w3.org/2000/svg">
<path d="M3.65625 5.625C3.39771 5.625 3.1417 5.57408 2.90284 5.47514C2.66398 5.3762 2.44695 5.23118 2.26413 5.04837C2.08132 4.86555 1.9363 4.64852 1.83736 4.40966C1.73842 4.1708 1.6875 3.91479 1.6875 3.65625C1.6875 3.39771 1.73842 3.1417 1.83736 2.90284C1.9363 2.66398 2.08132 2.44695 2.26413 2.26413C2.44695 2.08132 2.66398 1.9363 2.90284 1.83736C3.1417 1.73842 3.39771 1.6875 3.65625 1.6875C4.1784 1.6875 4.67915 1.89492 5.04837 2.26413C5.41758 2.63335 5.625 3.13411 5.625 3.65625C5.625 4.1784 5.41758 4.67915 5.04837 5.04837C4.67915 5.41758 4.1784 5.625 3.65625 5.625Z" />
<path d="M9 5.625C8.74146 5.625 8.48545 5.57408 8.24659 5.47514C8.00773 5.3762 7.7907 5.23118 7.60788 5.04837C7.42507 4.86555 7.28005 4.64852 7.18111 4.40966C7.08217 4.1708 7.03125 3.91479 7.03125 3.65625C7.03125 3.39771 7.08217 3.1417 7.18111 2.90284C7.28005 2.66398 7.42507 2.44695 7.60788 2.26413C7.7907 2.08132 8.00773 1.9363 8.24659 1.83736C8.48545 1.73842 8.74146 1.6875 9 1.6875C9.52215 1.6875 10.0229 1.89492 10.3921 2.26413C10.7613 2.63335 10.9688 3.13411 10.9688 3.65625C10.9688 4.1784 10.7613 4.67915 10.3921 5.04837C10.0229 5.41758 9.52215 5.625 9 5.625Z" />
<path d="M14.3438 5.625C14.0852 5.625 13.8292 5.57408 13.5903 5.47514C13.3515 5.3762 13.1344 5.23118 12.9516 5.04837C12.7688 4.86555 12.6238 4.64852 12.5249 4.40966C12.4259 4.1708 12.375 3.91479 12.375 3.65625C12.375 3.39771 12.4259 3.1417 12.5249 2.90284C12.6238 2.66398 12.7688 2.44695 12.9516 2.26413C13.1344 2.08132 13.3515 1.9363 13.5903 1.83736C13.8292 1.73842 14.0852 1.6875 14.3438 1.6875C14.8659 1.6875 15.3667 1.89492 15.7359 2.26413C16.1051 2.63335 16.3125 3.13411 16.3125 3.65625C16.3125 4.1784 16.1051 4.67915 15.7359 5.04837C15.3667 5.41758 14.8659 5.625 14.3438 5.625Z" />
<path d="M3.65625 10.9688C3.13411 10.9688 2.63335 10.7613 2.26413 10.3921C1.89492 10.0229 1.6875 9.52215 1.6875 9C1.6875 8.47786 1.89492 7.9771 2.26413 7.60788C2.63335 7.23867 3.13411 7.03125 3.65625 7.03125C4.1784 7.03125 4.67915 7.23867 5.04837 7.60788C5.41758 7.9771 5.625 8.47786 5.625 9C5.625 9.52215 5.41758 10.0229 5.04837 10.3921C4.67915 10.7613 4.1784 10.9688 3.65625 10.9688Z" />
<path d="M9 10.9688C8.47786 10.9688 7.9771 10.7613 7.60788 10.3921C7.23867 10.0229 7.03125 9.52215 7.03125 9C7.03125 8.47786 7.23867 7.9771 7.60788 7.60788C7.9771 7.23867 8.47786 7.03125 9 7.03125C9.52215 7.03125 10.0229 7.23867 10.3921 7.60788C10.7613 7.9771 10.9688 8.47786 10.9688 9C10.9688 9.52215 10.7613 10.0229 10.3921 10.3921C10.0229 10.7613 9.52215 10.9688 9 10.9688Z" />
<path d="M14.3438 10.9688C13.8216 10.9688 13.3208 10.7613 12.9516 10.3921C12.5824 10.0229 12.375 9.52215 12.375 9C12.375 8.47786 12.5824 7.9771 12.9516 7.60788C13.3208 7.23867 13.8216 7.03125 14.3438 7.03125C14.8659 7.03125 15.3667 7.23867 15.7359 7.60788C16.1051 7.9771 16.3125 8.47786 16.3125 9C16.3125 9.52215 16.1051 10.0229 15.7359 10.3921C15.3667 10.7613 14.8659 10.9688 14.3438 10.9688Z" />
<path d="M3.65625 16.3125C3.39771 16.3125 3.1417 16.2616 2.90284 16.1626C2.66398 16.0637 2.44695 15.9187 2.26413 15.7359C2.08132 15.5531 1.9363 15.336 1.83736 15.0972C1.73842 14.8583 1.6875 14.6023 1.6875 14.3438C1.6875 14.0852 1.73842 13.8292 1.83736 13.5903C1.9363 13.3515 2.08132 13.1344 2.26413 12.9516C2.44695 12.7688 2.66398 12.6238 2.90284 12.5249C3.1417 12.4259 3.39771 12.375 3.65625 12.375C4.1784 12.375 4.67915 12.5824 5.04837 12.9516C5.41758 13.3208 5.625 13.8216 5.625 14.3438C5.625 14.8659 5.41758 15.3667 5.04837 15.7359C4.67915 16.1051 4.1784 16.3125 3.65625 16.3125Z" />
<path d="M9 16.3125C8.74146 16.3125 8.48545 16.2616 8.24659 16.1626C8.00773 16.0637 7.7907 15.9187 7.60788 15.7359C7.42507 15.5531 7.28005 15.336 7.18111 15.0972C7.08217 14.8583 7.03125 14.6023 7.03125 14.3438C7.03125 14.0852 7.08217 13.8292 7.18111 13.5903C7.28005 13.3515 7.42507 13.1344 7.60788 12.9516C7.7907 12.7688 8.00773 12.6238 8.24659 12.5249C8.48545 12.4259 8.74146 12.375 9 12.375C9.52215 12.375 10.0229 12.5824 10.3921 12.9516C10.7613 13.3208 10.9688 13.8216 10.9688 14.3438C10.9688 14.8659 10.7613 15.3667 10.3921 15.7359C10.0229 16.1051 9.52215 16.3125 9 16.3125Z" />
<path d="M14.3438 16.3125C14.0852 16.3125 13.8292 16.2616 13.5903 16.1626C13.3515 16.0637 13.1344 15.9187 12.9516 15.7359C12.7688 15.5531 12.6238 15.336 12.5249 15.0972C12.4259 14.8583 12.375 14.6023 12.375 14.3438C12.375 14.0852 12.4259 13.8292 12.5249 13.5903C12.6238 13.3515 12.7688 13.1344 12.9516 12.9516C13.1344 12.7688 13.3515 12.6238 13.5903 12.5249C13.8292 12.4259 14.0852 12.375 14.3438 12.375C14.8659 12.375 15.3667 12.5824 15.7359 12.9516C16.1051 13.3208 16.3125 13.8216 16.3125 14.3438C16.3125 14.8659 16.1051 15.3667 15.7359 15.7359C15.3667 16.1051 14.8659 16.3125 14.3438 16.3125Z" />
</svg>
