<svg viewBox="0 0 17 17" xmlns="http://www.w3.org/2000/svg">
<path d="M13.5469 3.71875H3.51971C3.00891 3.71875 2.51904 3.92166 2.15785 4.28285C1.79666 4.64404 1.59375 5.13391 1.59375 5.64471V10.8906C1.59375 11.3838 1.78965 11.8567 2.13835 12.2054C2.48705 12.5541 2.95999 12.75 3.45312 12.75H3.71875V14.0675C3.71875 14.4226 3.8598 14.7631 4.11086 15.0141C4.36193 15.2652 4.70244 15.4062 5.0575 15.4062H11.9425C12.2976 15.4062 12.6381 15.2652 12.8891 15.0141C13.1402 14.7631 13.2812 14.4226 13.2812 14.0675V12.75H13.5469C14.04 12.75 14.513 12.5541 14.8617 12.2054C15.2104 11.8567 15.4062 11.3838 15.4062 10.8906V5.57812C15.4062 5.08499 15.2104 4.61205 14.8617 4.26335C14.513 3.91465 14.04 3.71875 13.5469 3.71875ZM12.2188 14.0675C12.2184 14.1407 12.1892 14.2107 12.1374 14.2624C12.0857 14.3142 12.0157 14.3434 11.9425 14.3438H5.0575C4.98435 14.3434 4.9143 14.3142 4.86257 14.2624C4.81085 14.2107 4.78162 14.1407 4.78125 14.0675V8.77625C4.78162 8.7031 4.81085 8.63305 4.86257 8.58132C4.9143 8.5296 4.98435 8.50037 5.0575 8.5H11.9425C12.0157 8.50037 12.0857 8.5296 12.1374 8.58132C12.1892 8.63305 12.2184 8.7031 12.2188 8.77625V14.0675ZM13.0822 6.90342C12.9764 6.91473 12.8694 6.90474 12.7675 6.87403C12.6656 6.84332 12.5709 6.79251 12.489 6.7246C12.407 6.65669 12.3395 6.57305 12.2904 6.47863C12.2413 6.38421 12.2117 6.28091 12.2031 6.17483C12.1946 6.06875 12.2074 5.96204 12.2408 5.861C12.2742 5.75996 12.3275 5.66662 12.3976 5.58651C12.4676 5.5064 12.553 5.44113 12.6487 5.39456C12.7444 5.34798 12.8484 5.32104 12.9547 5.31533C13.1621 5.30419 13.3657 5.37446 13.522 5.51118C13.6784 5.6479 13.7752 5.84026 13.7918 6.04729C13.8084 6.25432 13.7435 6.45966 13.611 6.61957C13.4785 6.77948 13.2887 6.88133 13.0822 6.90342Z" />
<path d="M11.4223 1.59375H5.57853C5.13163 1.5945 4.69989 1.75588 4.36206 2.04845C4.02424 2.34102 3.80285 2.74529 3.73828 3.1875H13.2625C13.198 2.74529 12.9766 2.34102 12.6387 2.04845C12.3009 1.75588 11.8692 1.5945 11.4223 1.59375Z" />
</svg>
