<svg viewBox="0 0 18 18" xmlns="http://www.w3.org/2000/svg">
<path d="M8.50664 8.1906H1.32776C1.14706 8.1906 1 8.04217 1 7.85937V3.02634C1 2.94541 1.01367 2.85359 1.08208 2.80194L4.67105 0.0909824C4.74326 0.0364327 4.82597 0 4.91728 0C5.00847 0 5.09102 0.0365122 5.16311 0.0909824L8.75263 2.80194C8.82088 2.85347 8.83436 2.94572 8.83436 3.02634V7.85941C8.83436 8.04225 8.68745 8.1906 8.50664 8.1906ZM8.64545 12.6997H6.22594V11.3656C6.39222 11.4144 6.57916 11.3726 6.71039 11.2399C6.90212 11.0457 6.90247 10.7314 6.71039 10.5375L6.08179 9.9017C5.98981 9.8085 5.86483 9.75629 5.73486 9.75629C5.60434 9.75629 5.47955 9.8085 5.38754 9.9017L4.7589 10.5375C4.56661 10.7314 4.56701 11.0457 4.7589 11.2399C4.88997 11.3727 5.07707 11.4144 5.24374 11.3656V13.1963C5.24374 13.4705 5.46329 13.6929 5.73482 13.6929H8.64541C8.91639 13.6929 9.1365 13.4705 9.1365 13.1963C9.13654 12.9221 8.91643 12.6997 8.64545 12.6997ZM16 9.86555V16.7359C16 16.8797 15.8806 17 15.7384 17H11.5925C11.4504 17 11.3308 16.8797 11.3308 16.7359V9.86555C11.3308 9.72165 11.4503 9.60126 11.5925 9.60126H15.7384C15.8807 9.60122 16 9.72165 16 9.86555ZM13.2446 14.8602C13.2446 14.6174 13.0502 14.4208 12.8101 14.4208H12.7087C12.4684 14.4208 12.2741 14.6172 12.2741 14.8602C12.2741 15.1029 12.4686 15.2996 12.7087 15.2996H12.8101C13.05 15.2996 13.2446 15.1028 13.2446 14.8602ZM13.2446 12.9249C13.2446 12.6823 13.05 12.4855 12.8101 12.4855H12.7087C12.4686 12.4855 12.2741 12.6822 12.2741 12.9249C12.2741 13.1679 12.4684 13.3643 12.7087 13.3643H12.8101C13.0502 13.3643 13.2446 13.1677 13.2446 12.9249ZM13.2446 10.9902C13.2446 10.7475 13.0501 10.5507 12.8101 10.5507H12.7087C12.4685 10.5507 12.2741 10.7473 12.2741 10.9902C12.2741 11.2329 12.4686 11.4296 12.7087 11.4296H12.8101C13.05 11.4295 13.2446 11.2327 13.2446 10.9902ZM15.0568 14.8602C15.0568 14.6175 14.8623 14.4208 14.6223 14.4208H14.5209C14.2808 14.4208 14.0863 14.6174 14.0863 14.8602C14.0863 15.1028 14.281 15.2996 14.5209 15.2996H14.6223C14.862 15.2996 15.0568 15.1027 15.0568 14.8602ZM15.0568 12.9249C15.0568 12.6825 14.862 12.4855 14.6223 12.4855H14.5209C14.281 12.4855 14.0863 12.6824 14.0863 12.9249C14.0863 13.1677 14.2808 13.3643 14.5209 13.3643H14.6223C14.8622 13.3643 15.0568 13.1676 15.0568 12.9249ZM15.0568 10.9902C15.0568 10.7476 14.8621 10.5507 14.6223 10.5507H14.5209C14.2809 10.5507 14.0863 10.7475 14.0863 10.9902C14.0863 11.2327 14.281 11.4296 14.5209 11.4296H14.6223C14.862 11.4295 15.0568 11.2326 15.0568 10.9902ZM13.5224 6.12745C13.3558 6.07842 13.1689 6.12037 13.0376 6.25307C12.8459 6.44696 12.8459 6.76142 13.0376 6.95546L13.6662 7.59111C13.7582 7.68432 13.8832 7.73668 14.0135 7.73668C14.1437 7.73668 14.2687 7.68432 14.3608 7.59111L14.9896 6.95546C15.1812 6.76142 15.1812 6.44711 14.9896 6.25307C14.8582 6.12033 14.6709 6.07842 14.5046 6.12745V4.29671C14.5046 4.02234 14.2847 3.80012 14.0135 3.80012H11.1026C10.8314 3.80012 10.6115 4.02234 10.6115 4.29671C10.6115 4.57093 10.8314 4.7933 11.1026 4.7933H13.5224V6.12745Z" />
</svg>
