<svg viewBox="0 0 18 18" xmlns="http://www.w3.org/2000/svg">
<path d="M2.53397 12H0.75C0.75 12.2984 0.868526 12.5845 1.0795 12.7955C1.29048 13.0065 1.57663 13.125 1.875 13.125H2.07187C2.1087 12.7119 2.2698 12.3197 2.53397 12Z" />
<path d="M11.2508 12H5.7168C5.98094 12.3197 6.14202 12.7119 6.17882 13.125H11.2508C11.3502 13.125 11.4456 13.0855 11.5159 13.0152C11.5863 12.9448 11.6258 12.8494 11.6258 12.75V12.375C11.6258 12.2756 11.5863 12.1802 11.5159 12.1098C11.4456 12.0395 11.3502 12 11.2508 12Z" />
<path d="M4.12499 14.625C4.84986 14.625 5.43748 14.0374 5.43748 13.3125C5.43748 12.5876 4.84986 12 4.12499 12C3.40012 12 2.8125 12.5876 2.8125 13.3125C2.8125 14.0374 3.40012 14.625 4.12499 14.625Z" />
<path d="M17.8319 9.67405L16.391 6.50426C16.2716 6.24234 16.0794 6.02023 15.8374 5.86436C15.5954 5.70849 15.3137 5.62541 15.0258 5.625H12.75C12.6506 5.625 12.5552 5.66451 12.4848 5.73484C12.4145 5.80517 12.375 5.90055 12.375 6.00001V11.8998C12.6468 11.6103 12.9966 11.4055 13.3822 11.3102C13.7677 11.2148 14.1726 11.233 14.548 11.3625C14.9235 11.4919 15.2535 11.7272 15.4984 12.0399C15.7432 12.3526 15.8924 12.7294 15.928 13.125H16.875C17.1734 13.125 17.4595 13.0065 17.6705 12.7955C17.8815 12.5845 18 12.2984 18 12V10.4499C18 10.1823 17.9427 9.91771 17.8319 9.67405ZM16.1222 9.37498H13.6875C13.588 9.37497 13.4927 9.33546 13.4224 9.26514C13.352 9.19482 13.3125 9.09945 13.3125 9V7.49999C13.3125 7.40053 13.352 7.30514 13.4224 7.23482C13.4927 7.16449 13.5881 7.12498 13.6875 7.12498H15.1989C15.3429 7.12496 15.4839 7.16639 15.6049 7.24431C15.726 7.32224 15.8221 7.43337 15.8817 7.56443L16.4637 8.84482C16.4896 8.90195 16.5009 8.96469 16.4963 9.02728C16.4917 9.08987 16.4715 9.15031 16.4375 9.20307C16.4036 9.25583 16.3569 9.29922 16.3018 9.32926C16.2467 9.3593 16.1849 9.37503 16.1222 9.37501V9.37498Z" />
<path d="M13.875 14.625C14.5999 14.625 15.1875 14.0374 15.1875 13.3125C15.1875 12.5876 14.5999 12 13.875 12C13.1501 12 12.5625 12.5876 12.5625 13.3125C12.5625 14.0374 13.1501 14.625 13.875 14.625Z" />
<path d="M10.5002 3.375H1.87513C1.57676 3.375 1.29062 3.49353 1.07964 3.7045C0.86866 3.91548 0.750133 4.20163 0.750133 4.5V9H0.395055C0.208446 9 0.0353013 9.12762 0.00527789 9.31201C-0.00384358 9.36582 -0.00111752 9.42098 0.013266 9.47363C0.0276495 9.52628 0.0533443 9.57516 0.0885587 9.61686C0.123773 9.65856 0.16766 9.69208 0.217158 9.71508C0.266657 9.73808 0.320576 9.75 0.375157 9.75002H1.29273C1.47956 9.75002 1.65266 9.87764 1.68269 10.062C1.69181 10.1158 1.68908 10.171 1.6747 10.2237C1.66032 10.2763 1.63462 10.3252 1.59941 10.3669C1.56419 10.4086 1.52031 10.4421 1.47081 10.4651C1.42131 10.4881 1.36739 10.5 1.31281 10.5H0.395231C0.208446 10.5 0.0353013 10.6277 0.00527789 10.812C-0.00384358 10.8658 -0.00111752 10.921 0.013266 10.9736C0.0276495 11.0263 0.0533443 11.0751 0.0885587 11.1168C0.123773 11.1585 0.16766 11.1921 0.217158 11.2151C0.266657 11.2381 0.320576 11.25 0.375157 11.25H11.2501C11.3496 11.25 11.445 11.2105 11.5153 11.1402C11.5856 11.0698 11.6252 10.9744 11.6252 10.875V4.5C11.6252 4.20163 11.5066 3.91548 11.2957 3.7045C11.0847 3.49353 10.7985 3.375 10.5002 3.375Z" />
</svg>
