<svg viewBox="0 0 18 19" xmlns="http://www.w3.org/2000/svg">
<path d="M17.985 7.96C17.9743 7.91351 17.9586 7.86816 17.938 7.82467L16.168 3.9672C15.758 3.07587 14.766 2.5 13.636 2.5H4.36401C3.23401 2.5 2.24001 3.07587 1.83201 3.9672L0.0600092 7.82467C0.0199254 7.91161 -0.000500553 8.00535 9.31524e-06 8.1V15.8C9.31524e-06 15.9857 0.0790268 16.1637 0.219679 16.295C0.360331 16.4263 0.551097 16.5 0.750009 16.5H2.25001C2.44892 16.5 2.63969 16.4263 2.78034 16.295C2.92099 16.1637 3.00001 15.9857 3.00001 15.8V15.1H15V15.8C15 15.9857 15.079 16.1637 15.2197 16.295C15.3603 16.4263 15.5511 16.5 15.75 16.5H17.25C17.4489 16.5 17.6397 16.4263 17.7803 16.295C17.921 16.1637 18 15.9857 18 15.8V8.1C18 8.05298 17.995 8.00608 17.985 7.96ZM3.75001 12.3C3.35218 12.3 2.97065 12.1525 2.68935 11.8899C2.40804 11.6274 2.25001 11.2713 2.25001 10.9C2.25001 10.5287 2.40804 10.1726 2.68935 9.91005C2.97065 9.6475 3.35218 9.5 3.75001 9.5C4.14783 9.5 4.52936 9.6475 4.81067 9.91005C5.09197 10.1726 5.25001 10.5287 5.25001 10.9C5.25001 11.2713 5.09197 11.6274 4.81067 11.8899C4.52936 12.1525 4.14783 12.3 3.75001 12.3ZM14.25 12.3C13.8522 12.3 13.4706 12.1525 13.1893 11.8899C12.908 11.6274 12.75 11.2713 12.75 10.9C12.75 10.5287 12.908 10.1726 13.1893 9.91005C13.4706 9.6475 13.8522 9.5 14.25 9.5C14.6478 9.5 15.0294 9.6475 15.3107 9.91005C15.592 10.1726 15.75 10.5287 15.75 10.9C15.75 11.2713 15.592 11.6274 15.3107 11.8899C15.0294 12.1525 14.6478 12.3 14.25 12.3ZM1.88701 7.4L3.21001 4.5188C3.38001 4.1492 3.84401 3.9 4.36501 3.9H13.635C14.155 3.9 14.62 4.1492 14.789 4.5188L16.113 7.4H1.88701Z" />
</svg>
