<svg  viewBox="0 0 18 18" xmlns="http://www.w3.org/2000/svg">
<path d="M9.00057 5.86949C8.36482 5.86949 7.74335 6.05309 7.21475 6.39708C6.68615 6.74106 6.27415 7.22998 6.03086 7.80201C5.78757 8.37403 5.72392 9.00347 5.84795 9.61073C5.97197 10.218 6.27811 10.7758 6.72765 11.2136C7.17719 11.6514 7.74994 11.9496 8.37347 12.0704C8.997 12.1911 9.64331 12.1292 10.2307 11.8922C10.818 11.6553 11.32 11.254 11.6732 10.7392C12.0264 10.2244 12.215 9.61916 12.215 9C12.2125 8.17048 11.873 7.37563 11.2707 6.78907C10.6685 6.20251 9.85231 5.87192 9.00057 5.86949ZM15.9385 9C15.9368 9.29218 15.9154 9.58436 15.8734 9.87404L17.8294 11.3658C17.9147 11.4344 17.9721 11.5302 17.9914 11.6362C18.0107 11.7422 17.9907 11.8514 17.9348 11.9443L16.0842 15.0557C16.0279 15.1477 15.94 15.2176 15.8361 15.2528C15.7322 15.2881 15.6188 15.2866 15.5159 15.2485L13.2161 14.3486C12.7371 14.708 12.2128 15.0062 11.6561 15.236L11.3124 17.6152C11.2928 17.7215 11.2359 17.818 11.1515 17.8882C11.0672 17.9583 10.9604 17.9978 10.8495 18H7.14908C7.03993 17.9981 6.93468 17.9601 6.85059 17.8923C6.76649 17.8245 6.70853 17.7309 6.68621 17.6268L6.34334 15.2485C5.78515 15.0215 5.26051 14.7231 4.78329 14.3611L2.48265 15.261C2.37988 15.2993 2.26651 15.3011 2.16255 15.2659C2.05858 15.2308 1.97068 15.1611 1.91435 15.069L0.0637201 11.9569C0.00812763 11.864 -0.0117898 11.755 0.00752143 11.6492C0.0268327 11.5434 0.0841164 11.4477 0.169152 11.3792L2.12607 9.88739C2.08429 9.59331 2.06224 9.29688 2.06007 9C2.06178 8.70782 2.08321 8.41564 2.12607 8.12596L0.169152 6.63417C0.0839033 6.56564 0.026481 6.4698 0.00716349 6.3638C-0.012154 6.2578 0.00789439 6.14857 0.0637201 6.05565L1.91521 2.94435C1.9715 2.85244 2.0592 2.78276 2.16295 2.7475C2.26669 2.71224 2.37987 2.71366 2.48265 2.75151L4.78329 3.65142C5.26235 3.29208 5.78662 2.99387 6.34334 2.76403L6.68621 0.384844C6.7058 0.27848 6.76263 0.182011 6.84702 0.111848C6.93141 0.0416849 7.03815 0.0021612 7.14908 0H10.8503C10.9593 0.00202344 11.0644 0.0399252 11.1485 0.107532C11.2325 0.17514 11.2906 0.268469 11.3132 0.372322L11.6561 2.75151C12.2158 2.97774 12.7413 3.27743 13.2187 3.6389L15.5168 2.73899C15.6196 2.70084 15.7329 2.69918 15.8368 2.73429C15.9407 2.76941 16.0286 2.83905 16.0851 2.93099L17.9366 6.04313C17.9923 6.13614 18.0122 6.24544 17.9927 6.35144C17.9732 6.45744 17.9157 6.55323 17.8303 6.62165L15.8742 8.11344C15.9154 8.40729 15.9368 8.70365 15.9385 9Z" />
</svg>
