<svg viewBox="0 0 18 18" xmlns="http://www.w3.org/2000/svg">
<path d="M15.1875 6.1875H11.25V2.25C11.25 1.80245 11.0722 1.37322 10.7557 1.05676C10.4393 0.74029 10.0101 0.5625 9.5625 0.5625H2.8125C2.36495 0.5625 1.93572 0.74029 1.61926 1.05676C1.30279 1.37322 1.125 1.80245 1.125 2.25V16.875C1.125 17.0242 1.18426 17.1673 1.28975 17.2727C1.39524 17.3782 1.53832 17.4375 1.6875 17.4375H5.34375C5.41834 17.4375 5.48988 17.4079 5.54262 17.3551C5.59537 17.3024 5.625 17.2308 5.625 17.1562V14.6407C5.625 14.3377 5.8575 14.0782 6.1605 14.0632C6.23649 14.0598 6.3124 14.0718 6.38365 14.0984C6.45489 14.1251 6.52001 14.1659 6.57508 14.2184C6.63016 14.2708 6.67404 14.3339 6.7041 14.4038C6.73416 14.4737 6.74977 14.5489 6.75 14.625V17.1562C6.75 17.2308 6.77963 17.3024 6.83238 17.3551C6.88512 17.4079 6.95666 17.4375 7.03125 17.4375H16.3125C16.4617 17.4375 16.6048 17.3782 16.7102 17.2727C16.8157 17.1673 16.875 17.0242 16.875 16.875V7.875C16.875 7.42745 16.6972 6.99823 16.3807 6.68176C16.0643 6.36529 15.6351 6.1875 15.1875 6.1875ZM3.4485 15.183C3.30051 15.2024 3.15088 15.1622 3.03252 15.0713C2.91416 14.9803 2.83677 14.8461 2.81737 14.6981C2.79798 14.5501 2.83817 14.4005 2.9291 14.2821C3.02003 14.1638 3.15426 14.0864 3.30225 14.067C3.45024 14.0476 3.59987 14.0878 3.71823 14.1787C3.83659 14.2697 3.91398 14.4039 3.93338 14.5519C3.95277 14.6999 3.91258 14.8495 3.82165 14.9679C3.73072 15.0862 3.59649 15.1636 3.4485 15.183ZM3.4485 12.3705C3.37522 12.3801 3.30077 12.3752 3.2294 12.356C3.15802 12.3368 3.09112 12.3038 3.03252 12.2588C2.97391 12.2137 2.92475 12.1576 2.88783 12.0936C2.85092 12.0296 2.82698 11.9589 2.81737 11.8856C2.80777 11.8123 2.8127 11.7379 2.83187 11.6665C2.85104 11.5951 2.88408 11.5282 2.9291 11.4696C2.97413 11.411 3.03025 11.3619 3.09428 11.325C3.1583 11.288 3.22897 11.2641 3.30225 11.2545C3.45024 11.2351 3.59987 11.2753 3.71823 11.3662C3.83659 11.4572 3.91398 11.5914 3.93338 11.7394C3.95277 11.8874 3.91258 12.037 3.82165 12.1554C3.73072 12.2737 3.59649 12.3511 3.4485 12.3705ZM3.4485 9.558C3.37522 9.5676 3.30077 9.56268 3.2294 9.54351C3.15802 9.52434 3.09112 9.4913 3.03252 9.44627C2.97391 9.40125 2.92475 9.34512 2.88783 9.2811C2.85092 9.21707 2.82698 9.1464 2.81737 9.07312C2.80777 8.99985 2.8127 8.9254 2.83187 8.85402C2.85104 8.78265 2.88408 8.71575 2.9291 8.65714C2.97413 8.59854 3.03025 8.54937 3.09428 8.51246C3.1583 8.47554 3.22897 8.4516 3.30225 8.442C3.45024 8.42261 3.59987 8.4628 3.71823 8.55373C3.83659 8.64466 3.91398 8.77888 3.93338 8.92688C3.95277 9.07487 3.91258 9.2245 3.82165 9.34286C3.73072 9.46122 3.59649 9.53861 3.4485 9.558ZM3.4485 6.7455C3.37457 6.75662 3.29916 6.75289 3.22668 6.73453C3.15421 6.71617 3.08612 6.68355 3.0264 6.63857C2.96668 6.59359 2.91653 6.53715 2.87887 6.47256C2.84122 6.40798 2.81682 6.33653 2.80709 6.2624C2.79737 6.18827 2.80253 6.11294 2.82226 6.04083C2.84198 5.96871 2.87589 5.90126 2.92199 5.8424C2.9681 5.78354 3.02547 5.73446 3.09076 5.69804C3.15605 5.66161 3.22795 5.63857 3.30225 5.63025C3.44868 5.61386 3.59569 5.65558 3.71168 5.74643C3.82767 5.83729 3.90339 5.97003 3.92254 6.11612C3.9417 6.26221 3.90277 6.40999 3.81413 6.52768C3.72548 6.64537 3.5942 6.72358 3.4485 6.7455ZM3.4485 3.933C3.37457 3.94412 3.29916 3.94039 3.22668 3.92203C3.15421 3.90367 3.08612 3.87105 3.0264 3.82607C2.96668 3.78109 2.91653 3.72465 2.87887 3.66006C2.84122 3.59548 2.81682 3.52403 2.80709 3.4499C2.79737 3.37577 2.80253 3.30044 2.82226 3.22833C2.84198 3.15621 2.87589 3.08876 2.92199 3.0299C2.9681 2.97104 3.02547 2.92196 3.09076 2.88554C3.15605 2.84911 3.22795 2.82607 3.30225 2.81775C3.44868 2.80136 3.59569 2.84308 3.71168 2.93393C3.82767 3.02479 3.90339 3.15753 3.92254 3.30362C3.9417 3.44971 3.90277 3.59749 3.81413 3.71518C3.72548 3.83287 3.5942 3.91108 3.4485 3.933ZM6.261 12.3705C6.18772 12.3801 6.11327 12.3752 6.0419 12.356C5.97052 12.3368 5.90362 12.3038 5.84502 12.2588C5.78641 12.2137 5.73725 12.1576 5.70033 12.0936C5.66342 12.0296 5.63948 11.9589 5.62987 11.8856C5.62027 11.8123 5.6252 11.7379 5.64437 11.6665C5.66354 11.5951 5.69658 11.5282 5.7416 11.4696C5.78663 11.411 5.84275 11.3619 5.90678 11.325C5.9708 11.288 6.04147 11.2641 6.11475 11.2545C6.26274 11.2352 6.41234 11.2755 6.53062 11.3665C6.64891 11.4575 6.72621 11.5918 6.7455 11.7397C6.76479 11.8877 6.72451 12.0373 6.63351 12.1556C6.54251 12.2739 6.40899 12.3512 6.261 12.3705ZM6.261 9.558C6.18772 9.5676 6.11327 9.56268 6.0419 9.54351C5.97052 9.52434 5.90362 9.4913 5.84502 9.44627C5.78641 9.40125 5.73725 9.34512 5.70033 9.2811C5.66342 9.21707 5.63948 9.1464 5.62987 9.07312C5.62027 8.99985 5.6252 8.9254 5.64437 8.85402C5.66354 8.78265 5.69658 8.71575 5.7416 8.65714C5.78663 8.59854 5.84275 8.54937 5.90678 8.51246C5.9708 8.47554 6.04147 8.4516 6.11475 8.442C6.18803 8.43245 6.26247 8.43742 6.33383 8.45664C6.40518 8.47585 6.47205 8.50893 6.53062 8.55399C6.58919 8.59905 6.63832 8.65521 6.67518 8.71925C6.71205 8.78329 6.73595 8.85397 6.7455 8.92725C6.75505 9.00053 6.75008 9.07497 6.73086 9.14633C6.71165 9.21768 6.67857 9.28455 6.63351 9.34312C6.58845 9.40169 6.53229 9.45082 6.46825 9.48768C6.40421 9.52455 6.33428 9.54845 6.261 9.558ZM6.261 6.7455C6.18707 6.75662 6.11166 6.75289 6.03918 6.73453C5.96671 6.71617 5.89862 6.68355 5.8389 6.63857C5.77918 6.59359 5.72903 6.53715 5.69137 6.47256C5.65372 6.40798 5.62932 6.33653 5.61959 6.2624C5.60987 6.18827 5.61503 6.11294 5.63476 6.04083C5.65448 5.96871 5.68839 5.90126 5.73449 5.8424C5.7806 5.78354 5.83797 5.73446 5.90326 5.69804C5.96855 5.66161 6.04045 5.63857 6.11475 5.63025C6.26085 5.6146 6.40728 5.65675 6.52271 5.74767C6.63814 5.8386 6.71341 5.97108 6.73242 6.11678C6.75143 6.26249 6.71267 6.40985 6.62443 6.52734C6.53619 6.64484 6.40623 6.72314 6.261 6.7455ZM6.261 3.933C6.18707 3.94412 6.11166 3.94039 6.03918 3.92203C5.96671 3.90367 5.89862 3.87105 5.8389 3.82607C5.77918 3.78109 5.72903 3.72465 5.69137 3.66006C5.65372 3.59548 5.62932 3.52403 5.61959 3.4499C5.60987 3.37577 5.61503 3.30044 5.63476 3.22833C5.65448 3.15621 5.68839 3.08876 5.73449 3.0299C5.7806 2.97104 5.83797 2.92196 5.90326 2.88554C5.96855 2.84911 6.04045 2.82607 6.11475 2.81775C6.26085 2.8021 6.40728 2.84425 6.52271 2.93517C6.63814 3.0261 6.71341 3.15858 6.73242 3.30428C6.75143 3.44999 6.71267 3.59735 6.62443 3.71484C6.53619 3.83234 6.40623 3.91064 6.261 3.933ZM9.0735 15.183C9.00022 15.1926 8.92577 15.1877 8.8544 15.1685C8.78302 15.1493 8.71612 15.1163 8.65752 15.0713C8.59891 15.0262 8.54975 14.9701 8.51283 14.9061C8.47592 14.8421 8.45198 14.7714 8.44238 14.6981C8.43277 14.6248 8.4377 14.5504 8.45687 14.479C8.47604 14.4076 8.50908 14.3407 8.5541 14.2821C8.59913 14.2235 8.65525 14.1744 8.71928 14.1375C8.7833 14.1005 8.85397 14.0766 8.92725 14.067C9.07524 14.0477 9.22484 14.088 9.34312 14.179C9.46141 14.27 9.53871 14.4043 9.558 14.5522C9.57729 14.7002 9.53701 14.8498 9.44601 14.9681C9.35501 15.0864 9.22149 15.1637 9.0735 15.183ZM9.0735 12.3705C9.00022 12.3801 8.92577 12.3752 8.8544 12.356C8.78302 12.3368 8.71612 12.3038 8.65752 12.2588C8.59891 12.2137 8.54975 12.1576 8.51283 12.0936C8.47592 12.0296 8.45198 11.9589 8.44238 11.8856C8.43277 11.8123 8.4377 11.7379 8.45687 11.6665C8.47604 11.5951 8.50908 11.5282 8.5541 11.4696C8.59913 11.411 8.65525 11.3619 8.71928 11.325C8.7833 11.288 8.85397 11.2641 8.92725 11.2545C9.07524 11.2352 9.22484 11.2755 9.34312 11.3665C9.46141 11.4575 9.53871 11.5918 9.558 11.7397C9.57729 11.8877 9.53701 12.0373 9.44601 12.1556C9.35501 12.2739 9.22149 12.3512 9.0735 12.3705ZM9.0735 9.558C9.00022 9.5676 8.92577 9.56268 8.8544 9.54351C8.78302 9.52434 8.71612 9.4913 8.65752 9.44627C8.59891 9.40125 8.54975 9.34512 8.51283 9.2811C8.47592 9.21707 8.45198 9.1464 8.44238 9.07312C8.43277 8.99985 8.4377 8.9254 8.45687 8.85402C8.47604 8.78265 8.50908 8.71575 8.5541 8.65714C8.59913 8.59854 8.65525 8.54937 8.71928 8.51246C8.7833 8.47554 8.85397 8.4516 8.92725 8.442C9.00053 8.43245 9.07497 8.43742 9.14633 8.45664C9.21768 8.47585 9.28455 8.50893 9.34312 8.55399C9.40169 8.59905 9.45082 8.65521 9.48768 8.71925C9.52455 8.78329 9.54845 8.85397 9.558 8.92725C9.56755 9.00053 9.56258 9.07497 9.54336 9.14633C9.52415 9.21768 9.49107 9.28455 9.44601 9.34312C9.40095 9.40169 9.34479 9.45082 9.28075 9.48768C9.21671 9.52455 9.14678 9.54845 9.0735 9.558ZM9.0735 6.7455C8.99957 6.75662 8.92416 6.75289 8.85168 6.73453C8.77921 6.71617 8.71112 6.68355 8.6514 6.63857C8.59168 6.59359 8.54153 6.53715 8.50387 6.47256C8.46622 6.40798 8.44182 6.33653 8.43209 6.2624C8.42237 6.18827 8.42753 6.11294 8.44726 6.04083C8.46698 5.96871 8.50089 5.90126 8.54699 5.8424C8.5931 5.78354 8.65047 5.73446 8.71576 5.69804C8.78105 5.66161 8.85295 5.63857 8.92725 5.63025C9.07335 5.6146 9.21978 5.65675 9.33521 5.74767C9.45064 5.8386 9.52591 5.97108 9.54492 6.11678C9.56393 6.26249 9.52517 6.40985 9.43693 6.52734C9.34869 6.64484 9.21873 6.72314 9.0735 6.7455ZM9.0735 3.933C8.99957 3.94412 8.92416 3.94039 8.85168 3.92203C8.77921 3.90367 8.71112 3.87105 8.6514 3.82607C8.59168 3.78109 8.54153 3.72465 8.50387 3.66006C8.46622 3.59548 8.44182 3.52403 8.43209 3.4499C8.42237 3.37577 8.42753 3.30044 8.44726 3.22833C8.46698 3.15621 8.50089 3.08876 8.54699 3.0299C8.5931 2.97104 8.65047 2.92196 8.71576 2.88554C8.78105 2.84911 8.85295 2.82607 8.92725 2.81775C9.07335 2.8021 9.21978 2.84425 9.33521 2.93517C9.45064 3.0261 9.52591 3.15858 9.54492 3.30428C9.56393 3.44999 9.52517 3.59735 9.43693 3.71484C9.34869 3.83234 9.21873 3.91064 9.0735 3.933ZM15.609 16.3125H11.25V7.3125H15.1875C15.3367 7.3125 15.4798 7.37176 15.5852 7.47725C15.6907 7.58274 15.75 7.72582 15.75 7.875V16.1722C15.7498 16.2095 15.7349 16.2452 15.7084 16.2715C15.682 16.2977 15.6463 16.3125 15.609 16.3125Z" />
<path d="M14.0625 14.0625C13.9133 14.0625 13.7702 14.1218 13.6648 14.2273C13.5593 14.3327 13.5 14.4758 13.5 14.625C13.5 14.7742 13.5593 14.9173 13.6648 15.0227C13.7702 15.1282 13.9133 15.1875 14.0625 15.1875C14.2117 15.1875 14.3548 15.1282 14.4602 15.0227C14.5657 14.9173 14.625 14.7742 14.625 14.625C14.625 14.4758 14.5657 14.3327 14.4602 14.2273C14.3548 14.1218 14.2117 14.0625 14.0625 14.0625Z" />
<path d="M14.0625 11.25C13.9133 11.25 13.7702 11.3093 13.6648 11.4148C13.5593 11.5202 13.5 11.6633 13.5 11.8125C13.5 11.9617 13.5593 12.1048 13.6648 12.2102C13.7702 12.3157 13.9133 12.375 14.0625 12.375C14.2117 12.375 14.3548 12.3157 14.4602 12.2102C14.5657 12.1048 14.625 11.9617 14.625 11.8125C14.625 11.6633 14.5657 11.5202 14.4602 11.4148C14.3548 11.3093 14.2117 11.25 14.0625 11.25Z" />
<path d="M14.0625 8.4375C13.9133 8.4375 13.7702 8.49676 13.6648 8.60225C13.5593 8.70774 13.5 8.85082 13.5 9C13.5 9.14918 13.5593 9.29226 13.6648 9.39775C13.7702 9.50324 13.9133 9.5625 14.0625 9.5625C14.2117 9.5625 14.3548 9.50324 14.4602 9.39775C14.5657 9.29226 14.625 9.14918 14.625 9C14.625 8.85082 14.5657 8.70774 14.4602 8.60225C14.3548 8.49676 14.2117 8.4375 14.0625 8.4375Z" />
<path d="M11.8125 14.0625C11.6633 14.0625 11.5202 14.1218 11.4148 14.2273C11.3093 14.3327 11.25 14.4758 11.25 14.625C11.25 14.7742 11.3093 14.9173 11.4148 15.0227C11.5202 15.1282 11.6633 15.1875 11.8125 15.1875C11.9617 15.1875 12.1048 15.1282 12.2102 15.0227C12.3157 14.9173 12.375 14.7742 12.375 14.625C12.375 14.4758 12.3157 14.3327 12.2102 14.2273C12.1048 14.1218 11.9617 14.0625 11.8125 14.0625Z" />
<path d="M11.8125 11.25C11.6633 11.25 11.5202 11.3093 11.4148 11.4148C11.3093 11.5202 11.25 11.6633 11.25 11.8125C11.25 11.9617 11.3093 12.1048 11.4148 12.2102C11.5202 12.3157 11.6633 12.375 11.8125 12.375C11.9617 12.375 12.1048 12.3157 12.2102 12.2102C12.3157 12.1048 12.375 11.9617 12.375 11.8125C12.375 11.6633 12.3157 11.5202 12.2102 11.4148C12.1048 11.3093 11.9617 11.25 11.8125 11.25Z" />
<path d="M11.8125 8.4375C11.6633 8.4375 11.5202 8.49676 11.4148 8.60225C11.3093 8.70774 11.25 8.85082 11.25 9C11.25 9.14918 11.3093 9.29226 11.4148 9.39775C11.5202 9.50324 11.6633 9.5625 11.8125 9.5625C11.9617 9.5625 12.1048 9.50324 12.2102 9.39775C12.3157 9.29226 12.375 9.14918 12.375 9C12.375 8.85082 12.3157 8.70774 12.2102 8.60225C12.1048 8.49676 11.9617 8.4375 11.8125 8.4375Z" />
</svg>
