<svg viewBox="0 0 17 17" xmlns="http://www.w3.org/2000/svg">
<path d="M13.5469 3.18751H8.37108C8.21388 3.18812 8.06004 3.14202 7.92908 3.05505L7.00542 2.43667C6.69973 2.23258 6.34022 2.12409 5.97267 2.12501H3.45312C2.96016 2.12557 2.48755 2.32165 2.13897 2.67023C1.79039 3.0188 1.59431 3.49142 1.59375 3.98438V4.78126H15.4062C15.4062 3.7563 14.5725 3.18751 13.5469 3.18751Z" />
<path d="M14.071 14.875H2.93106C2.44329 14.8743 1.97531 14.682 1.62803 14.3395C1.28074 13.9969 1.08195 13.5317 1.07452 13.044L0.538311 7.57421V7.565C0.520712 7.34571 0.548702 7.12516 0.620519 6.91722C0.692336 6.70928 0.806424 6.51846 0.955602 6.35677C1.10478 6.19508 1.28582 6.06603 1.48731 5.97774C1.68881 5.88945 1.9064 5.84383 2.12639 5.84375H14.8792C15.0992 5.84392 15.3167 5.88962 15.5181 5.97795C15.7195 6.06629 15.9005 6.19536 16.0496 6.35703C16.1987 6.51871 16.3127 6.70949 16.3845 6.91738C16.4562 7.12528 16.4842 7.34577 16.4666 7.565V7.57421L15.9283 13.044C15.9208 13.5318 15.7219 13.9972 15.3745 14.3397C15.0271 14.6822 14.5589 14.8745 14.071 14.875Z" />
</svg>
