<svg viewBox="0 0 18 19" xmlns="http://www.w3.org/2000/svg">
<path d="M18 5.75V6.5H0V5.75C0 3.67925 1.67925 2 3.75 2H4.5V1.25C4.5 0.836 4.836 0.5 5.25 0.5C5.664 0.5 6 0.836 6 1.25V2H12V1.25C12 0.836 12.336 0.5 12.75 0.5C13.164 0.5 13.5 0.836 13.5 1.25V2H14.25C16.3207 2 18 3.67925 18 5.75ZM18 13.25C18 16.145 15.6442 18.5 12.75 18.5C9.85575 18.5 7.5 16.145 7.5 13.25C7.5 10.355 9.85575 8 12.75 8C15.6442 8 18 10.355 18 13.25ZM14.25 13.6895L13.5 12.9395V11.75C13.5 11.336 13.164 11 12.75 11C12.336 11 12 11.336 12 11.75V13.25C12 13.4487 12.0787 13.64 12.2197 13.7803L13.1895 14.75C13.482 15.0425 13.9575 15.0425 14.25 14.75C14.5425 14.4575 14.5425 13.982 14.25 13.6895ZM6 13.25C6 11.1283 6.981 9.2375 8.51175 8H0V14.75C0 16.8207 1.67925 18.5 3.75 18.5H8.51175C6.981 17.2625 6 15.3717 6 13.25Z" />
</svg>
