<svg viewBox="0 0 18 19" xmlns="http://www.w3.org/2000/svg">
<g clip-path="url(#clip0_2001_3471)">
<path d="M17.1972 7.86006C16.9557 7.56154 16.7274 7.27962 16.6418 7.01599C16.5498 6.7327 16.5678 6.35761 16.5867 5.96053C16.6161 5.34575 16.6465 4.71002 16.2813 4.20816C15.9124 3.70122 15.267 3.52633 14.6978 3.37199C14.3172 3.26883 13.9576 3.17139 13.7219 2.99972C13.491 2.83168 13.2901 2.52284 13.0773 2.19579C12.7534 1.69788 12.3863 1.13355 11.7818 0.937305C11.6385 0.890802 11.4835 0.867188 11.3211 0.867188C10.8892 0.867188 10.4584 1.03031 10.0418 1.18803C9.66426 1.33101 9.30771 1.46609 9 1.46609C8.69229 1.46609 8.33574 1.33101 7.95823 1.18803C7.54164 1.03031 7.11094 0.867188 6.67896 0.867188C6.51664 0.867188 6.36166 0.890802 6.21836 0.937305C5.61374 1.13371 5.24671 1.69804 4.92272 2.19595C4.71003 2.52292 4.50911 2.83176 4.27828 2.99972C4.04246 3.17139 3.68293 3.26883 3.30236 3.37199C2.73304 3.52633 2.08772 3.70122 1.71884 4.20816C1.35367 4.71002 1.38405 5.34575 1.41339 5.96061C1.43233 6.3577 1.4503 6.73278 1.35826 7.01607C1.27267 7.27962 1.04451 7.56162 0.802884 7.86006C0.426507 8.32493 0 8.85194 0 9.49903C0 10.1461 0.426507 10.6731 0.802803 11.138C1.04443 11.4365 1.27267 11.7184 1.35826 11.9821C1.4503 12.2654 1.43233 12.6404 1.41339 13.0375C1.38397 13.6523 1.35351 14.2881 1.71876 14.7899C2.08772 15.2968 2.73304 15.4717 3.30228 15.6261C3.68293 15.7292 4.04246 15.8267 4.2782 15.9983C4.50903 16.1663 4.70995 16.4751 4.92264 16.8021C5.24663 17.3001 5.61366 17.8644 6.21828 18.0608C6.36166 18.1073 6.51664 18.1309 6.67896 18.1309C7.11086 18.1308 7.54164 17.9678 7.95815 17.81C8.33574 17.6671 8.69229 17.532 9 17.532C9.30771 17.532 9.66434 17.6671 10.0419 17.81C10.4584 17.9678 10.8891 18.1309 11.3211 18.1309C11.4834 18.1309 11.6384 18.1073 11.7817 18.0608C12.3863 17.8643 12.7535 17.3001 13.0774 16.8022C13.2901 16.4752 13.491 16.1664 13.7218 15.9984C13.9576 15.8268 14.3171 15.7293 14.6977 15.6262C15.267 15.4718 15.9123 15.2969 16.2812 14.79C16.6465 14.2881 16.616 13.6524 16.5867 13.0375C16.5678 12.6404 16.5498 12.2654 16.6418 11.9821C16.7274 11.7185 16.9556 11.4366 17.1972 11.1381C17.5735 10.6731 18 10.1461 18 9.49903C18 8.85194 17.5735 8.32501 17.1972 7.86006ZM6.15235 11.6751H5.16805L3.57332 9.03602V11.6751H2.60619V7.32298H3.56333L5.10462 9.9506V7.32298H6.15235V11.6751ZM9.77911 8.12892H7.76424V9.01546H9.45673V9.82141H7.76424V10.8691H9.77911V11.6751H6.79711V7.32298H9.77911V8.12892ZM14.3595 11.6751H13.435L12.7279 9.13047L12.0208 11.6751H11.0963L10.0706 7.32298H11.0868L11.6332 9.92876L12.346 7.32298H13.1068L13.8254 9.93062L14.3687 7.32298H15.3821L14.3595 11.6751Z" />
</g>
<defs>
<clipPath id="clip0_2001_3471">
<rect width="18" height="18" fill="white" transform="translate(0 0.5)"/>
</clipPath>
</defs>
</svg>
