<svg viewBox="0 0 18 19" xmlns="http://www.w3.org/2000/svg">
<g clip-path="url(#clip0_2001_1007)">
<path d="M9 0.5C4.03754 0.5 0 4.53754 0 9.5C0 14.4625 4.03754 18.5 9 18.5C13.9625 18.5 18 14.4625 18 9.5C18 4.53754 13.9625 0.5 9 0.5ZM7.26923 14.3462H6.05723C5.55249 14.3454 5.06864 14.1445 4.71182 13.7875C4.355 13.4305 4.15433 12.9466 4.15385 12.4418V11.2308C4.15385 11.0472 4.22679 10.8711 4.35662 10.7412C4.48645 10.6114 4.66254 10.5385 4.84615 10.5385C5.02977 10.5385 5.20586 10.6114 5.33569 10.7412C5.46552 10.8711 5.53846 11.0472 5.53846 11.2308V12.4428C5.53846 12.511 5.55191 12.5785 5.57804 12.6415C5.60417 12.7045 5.64246 12.7617 5.69073 12.8099C5.739 12.8581 5.7963 12.8963 5.85935 12.9223C5.92239 12.9483 5.98995 12.9617 6.05815 12.9615H7.26923C7.45284 12.9615 7.62893 13.0345 7.75877 13.1643C7.8886 13.2941 7.96154 13.4702 7.96154 13.6538C7.96154 13.8375 7.8886 14.0135 7.75877 14.1434C7.62893 14.2732 7.45284 14.3462 7.26923 14.3462ZM7.26923 6.03846H6.05723C5.91956 6.03871 5.78761 6.09357 5.69035 6.191C5.59309 6.28844 5.53846 6.42048 5.53846 6.55815V7.76923C5.53846 7.95284 5.46552 8.12893 5.33569 8.25877C5.20586 8.3886 5.02977 8.46154 4.84615 8.46154C4.66254 8.46154 4.48645 8.3886 4.35662 8.25877C4.22679 8.12893 4.15385 7.95284 4.15385 7.76923V6.55723C4.15458 6.05249 4.35548 5.56864 4.71247 5.21182C5.06947 4.855 5.55341 4.65433 6.05815 4.65385H7.26923C7.45284 4.65385 7.62893 4.72679 7.75877 4.85662C7.8886 4.98645 7.96154 5.16254 7.96154 5.34615C7.96154 5.52977 7.8886 5.70586 7.75877 5.83569C7.62893 5.96552 7.45284 6.03846 7.26923 6.03846ZM13.8462 12.4428C13.8457 12.9476 13.6448 13.4316 13.2878 13.7885C12.9308 14.1453 12.4467 14.3459 11.9418 14.3462H10.7308C10.5472 14.3462 10.3711 14.2732 10.2412 14.1434C10.1114 14.0135 10.0385 13.8375 10.0385 13.6538C10.0385 13.4702 10.1114 13.2941 10.2412 13.1643C10.3711 13.0345 10.5472 12.9615 10.7308 12.9615H11.9428C12.011 12.9615 12.0785 12.9481 12.1415 12.922C12.2045 12.8958 12.2617 12.8575 12.3099 12.8093C12.3581 12.761 12.3963 12.7037 12.4223 12.6407C12.4483 12.5776 12.4617 12.51 12.4615 12.4418V11.2308C12.4615 11.0472 12.5345 10.8711 12.6643 10.7412C12.7941 10.6114 12.9702 10.5385 13.1538 10.5385C13.3375 10.5385 13.5135 10.6114 13.6434 10.7412C13.7732 10.8711 13.8462 11.0472 13.8462 11.2308V12.4428ZM13.8462 7.76923C13.8462 7.95284 13.7732 8.12893 13.6434 8.25877C13.5135 8.3886 13.3375 8.46154 13.1538 8.46154C12.9702 8.46154 12.7941 8.3886 12.6643 8.25877C12.5345 8.12893 12.4615 7.95284 12.4615 7.76923V6.55723C12.4613 6.41956 12.4064 6.28761 12.309 6.19035C12.2116 6.09309 12.0795 6.03846 11.9418 6.03846H10.7308C10.5472 6.03846 10.3711 5.96552 10.2412 5.83569C10.1114 5.70586 10.0385 5.52977 10.0385 5.34615C10.0385 5.16254 10.1114 4.98645 10.2412 4.85662C10.3711 4.72679 10.5472 4.65385 10.7308 4.65385H11.9428C12.4475 4.65458 12.9314 4.85548 13.2882 5.21247C13.645 5.56947 13.8457 6.05341 13.8462 6.55815V7.76923Z" />
</g>
<defs>
<clipPath id="clip0_2001_1007">
<rect width="18" height="18" fill="white" transform="translate(0 0.5)"/>
</clipPath>
</defs>
</svg>
