<svg viewBox="0 0 17 16" xmlns="http://www.w3.org/2000/svg">
<path d="M16.0482 1.68267C15.7468 1.38135 15.3848 1.23077 14.9616 1.23077H2.0385C1.61543 1.23077 1.25322 1.38135 0.951898 1.68267C0.650644 1.98406 0.5 2.34614 0.5 2.76931V13.2309C0.5 13.6541 0.650644 14.0159 0.951898 14.3174C1.25322 14.6188 1.6154 14.7692 2.0385 14.7692H14.9616C15.3848 14.7692 15.7468 14.6188 16.0482 14.3174C16.3495 14.0159 16.5 13.6539 16.5 13.2309V2.76931C16.5 2.34614 16.3495 1.98396 16.0482 1.68267ZM5.42322 13.2306C5.42322 13.3206 5.39429 13.3941 5.33653 13.4519C5.27887 13.5095 5.20522 13.5382 5.11537 13.5382H2.0385C1.94885 13.5382 1.87506 13.5095 1.81733 13.4519C1.75964 13.3941 1.73085 13.3206 1.73085 13.2306V11.3843C1.73085 11.2944 1.75964 11.2209 1.81733 11.1634C1.87506 11.1055 1.94885 11.0767 2.0385 11.0767H5.11547C5.20529 11.0767 5.27908 11.1055 5.33663 11.1634C5.39426 11.2209 5.42319 11.2944 5.42319 11.3843L5.42322 13.2306ZM5.42322 9.53844C5.42322 9.62813 5.39429 9.70192 5.33653 9.75951C5.27887 9.81723 5.20522 9.84603 5.11537 9.84603H2.0385C1.94885 9.84603 1.87506 9.81723 1.81733 9.75951C1.75964 9.70189 1.73085 9.62813 1.73085 9.53844V7.69222C1.73085 7.6025 1.75964 7.52875 1.81733 7.47106C1.87506 7.4135 1.94885 7.38467 2.0385 7.38467H5.11547C5.20529 7.38467 5.27894 7.41347 5.33663 7.47106C5.39426 7.52875 5.42319 7.6025 5.42319 7.69222L5.42322 9.53844ZM5.42322 5.84614C5.42322 5.93593 5.39429 6.00958 5.33653 6.06731C5.27887 6.12486 5.20522 6.15379 5.11537 6.15379H2.0385C1.94885 6.15379 1.87506 6.12486 1.81733 6.06731C1.75964 6.00955 1.73085 5.93593 1.73085 5.84614V3.99999C1.73085 3.9102 1.75964 3.83644 1.81733 3.77882C1.87506 3.72113 1.94885 3.69233 2.0385 3.69233H5.11547C5.20529 3.69233 5.27894 3.72113 5.33663 3.77882C5.39426 3.83644 5.42319 3.9102 5.42319 3.99999L5.42322 5.84614ZM10.3463 13.2306C10.3463 13.3206 10.3175 13.3941 10.26 13.4519C10.2024 13.5095 10.1286 13.5382 10.0387 13.5382H6.96155C6.87187 13.5382 6.79811 13.5095 6.74038 13.4519C6.68269 13.3941 6.6539 13.3206 6.6539 13.2306V11.3843C6.6539 11.2944 6.68269 11.2209 6.74038 11.1634C6.79811 11.1055 6.87187 11.0767 6.96155 11.0767H10.0386C10.1285 11.0767 10.2022 11.1055 10.2599 11.1634C10.3172 11.2209 10.3461 11.2944 10.3461 11.3843V13.2305L10.3463 13.2306ZM10.3463 9.53844C10.3463 9.62813 10.3175 9.70192 10.26 9.75951C10.2024 9.81723 10.1286 9.84603 10.0387 9.84603H6.96155C6.87187 9.84603 6.79811 9.81723 6.74038 9.75951C6.68269 9.70189 6.6539 9.62813 6.6539 9.53844V7.69222C6.6539 7.6025 6.68269 7.52875 6.74038 7.47106C6.79811 7.4135 6.87187 7.38467 6.96155 7.38467H10.0386C10.1285 7.38467 10.2022 7.41347 10.2599 7.47106C10.3172 7.52875 10.3461 7.6025 10.3461 7.69222V9.53844H10.3463ZM10.3463 5.84614C10.3463 5.93593 10.3175 6.00958 10.26 6.06731C10.2024 6.12486 10.1286 6.15379 10.0387 6.15379H6.96155C6.87187 6.15379 6.79811 6.12486 6.74038 6.06731C6.68269 6.00955 6.6539 5.93593 6.6539 5.84614V3.99999C6.6539 3.9102 6.68269 3.83644 6.74038 3.77882C6.79811 3.72113 6.87187 3.69233 6.96155 3.69233H10.0386C10.1285 3.69233 10.2022 3.72113 10.2599 3.77882C10.3172 3.83644 10.3461 3.9102 10.3461 3.99999V5.84614H10.3463ZM15.2692 13.2306C15.2692 13.3206 15.2404 13.3941 15.1829 13.4519C15.1251 13.5095 15.0513 13.5382 14.9616 13.5382H11.885C11.795 13.5382 11.7212 13.5095 11.6637 13.4519C11.6061 13.3941 11.5775 13.3206 11.5775 13.2306V11.3843C11.5775 11.2944 11.6061 11.2209 11.6637 11.1634C11.7212 11.1055 11.795 11.0767 11.885 11.0767H14.9616C15.0513 11.0767 15.1251 11.1055 15.1829 11.1634C15.2404 11.2209 15.2692 11.2944 15.2692 11.3843V13.2306ZM15.2692 9.53844C15.2692 9.62813 15.2404 9.70192 15.1829 9.75951C15.1251 9.81723 15.0513 9.84603 14.9616 9.84603H11.885C11.795 9.84603 11.7212 9.81723 11.6637 9.75951C11.6061 9.70189 11.5775 9.62813 11.5775 9.53844V7.69222C11.5775 7.6025 11.6061 7.52875 11.6637 7.47106C11.7212 7.4135 11.795 7.38467 11.885 7.38467H14.9616C15.0513 7.38467 15.1251 7.41347 15.1829 7.47106C15.2404 7.52875 15.2692 7.6025 15.2692 7.69222V9.53844ZM15.2692 5.84614C15.2692 5.93593 15.2404 6.00958 15.1829 6.06731C15.1251 6.12486 15.0513 6.15379 14.9616 6.15379H11.885C11.795 6.15379 11.7212 6.12486 11.6637 6.06731C11.6061 6.00955 11.5775 5.93593 11.5775 5.84614V3.99999C11.5775 3.9102 11.6061 3.83644 11.6637 3.77882C11.7212 3.72113 11.795 3.69233 11.885 3.69233H14.9616C15.0513 3.69233 15.1251 3.72113 15.1829 3.77882C15.2404 3.83644 15.2692 3.9102 15.2692 3.99999V5.84614Z" />
</svg>
