<svg viewBox="0 0 20 20" xmlns="http://www.w3.org/2000/svg">
<path d="M19.1475 7.08584L17.4234 5.36167C17.2843 5.22463 17.0989 5.14467 16.9037 5.13758C16.7086 5.13048 16.5179 5.19676 16.3692 5.32334C16.1394 5.51903 15.8445 5.62123 15.5428 5.60965C15.2412 5.59808 14.955 5.47357 14.7409 5.26084C14.5281 5.04672 14.4036 4.76047 14.392 4.45886C14.3805 4.15725 14.4827 3.8623 14.6784 3.6325C14.8048 3.48372 14.871 3.29294 14.8637 3.0978C14.8565 2.90267 14.7764 2.71733 14.6392 2.57834L12.9142 0.852502C12.7684 0.70681 12.5707 0.624969 12.3646 0.624969C12.1585 0.624969 11.9608 0.70681 11.815 0.852502L9.0667 3.6C8.8973 3.77021 8.76953 3.97726 8.69337 4.205C8.67859 4.24887 8.65392 4.28875 8.62126 4.32155C8.5886 4.35435 8.54883 4.3792 8.50503 4.39417C8.27685 4.47032 8.06947 4.59841 7.8992 4.76834L0.852532 11.815C0.70684 11.9608 0.625 12.1585 0.625 12.3646C0.625 12.5707 0.70684 12.7684 0.852532 12.9142L2.57753 14.6375C2.71657 14.7749 2.90208 14.8551 3.09741 14.8624C3.29274 14.8696 3.48369 14.8034 3.63253 14.6767C3.86193 14.4802 4.15703 14.3775 4.45884 14.3892C4.76066 14.4008 5.04696 14.5259 5.26053 14.7395C5.47411 14.9531 5.59922 15.2394 5.61087 15.5412C5.62252 15.843 5.51984 16.1381 5.32337 16.3675C5.19666 16.5163 5.13038 16.7073 5.13764 16.9026C5.14489 17.098 5.22514 17.2835 5.36253 17.4225L7.0867 19.1458C7.23246 19.2913 7.42996 19.373 7.63587 19.373C7.84177 19.373 8.03927 19.2913 8.18503 19.1458L15.2317 12.0992C15.4017 11.9292 15.53 11.7217 15.6067 11.4942C15.6214 11.4502 15.646 11.4103 15.6787 11.3775C15.7113 11.3447 15.7512 11.3199 15.795 11.305C16.0234 11.2292 16.23 11.1008 16.4 10.9308L19.1484 8.18334C19.2935 8.03761 19.3751 7.84029 19.3751 7.63459C19.3751 7.42888 19.2935 7.23156 19.1484 7.08584H19.1475ZM10.2267 5.9275C10.1095 6.04454 9.95066 6.11029 9.78503 6.11029C9.61941 6.11029 9.46055 6.04454 9.34337 5.9275L8.89337 5.4775C8.78297 5.35902 8.72286 5.20232 8.72572 5.0404C8.72858 4.87848 8.79417 4.72399 8.90868 4.60948C9.02319 4.49497 9.17768 4.42938 9.3396 4.42652C9.50151 4.42367 9.65822 4.48377 9.7767 4.59417L10.2267 5.04417C10.3437 5.16136 10.4095 5.32021 10.4095 5.48584C10.4095 5.65146 10.3437 5.81031 10.2267 5.9275ZM11.9459 7.64667C11.8287 7.76371 11.6698 7.82945 11.5042 7.82945C11.3386 7.82945 11.1797 7.76371 11.0625 7.64667L10.6325 7.21667C10.5272 7.09727 10.4713 6.94222 10.4763 6.78309C10.4813 6.62395 10.5467 6.4727 10.6593 6.36012C10.7719 6.24753 10.9232 6.18209 11.0823 6.17712C11.2414 6.17214 11.3965 6.22801 11.5159 6.33334L11.9459 6.7625C12.0041 6.82056 12.0502 6.88953 12.0818 6.96546C12.1133 7.04139 12.1295 7.12279 12.1295 7.205C12.1295 7.28721 12.1133 7.36861 12.0818 7.44454C12.0502 7.52048 12.0041 7.58945 11.9459 7.6475V7.64667ZM13.6642 9.365C13.547 9.48204 13.3882 9.54779 13.2225 9.54779C13.0569 9.54779 12.8981 9.48204 12.7809 9.365L12.3509 8.93584C12.2405 8.81736 12.1804 8.66065 12.1832 8.49873C12.1861 8.33682 12.2517 8.18233 12.3662 8.06782C12.4807 7.95331 12.6352 7.88771 12.7971 7.88486C12.959 7.882 13.1157 7.9421 13.2342 8.0525L13.6642 8.48167C13.7227 8.53958 13.7692 8.60847 13.801 8.68439C13.8328 8.76031 13.8493 8.84176 13.8495 8.92407C13.8497 9.00638 13.8337 9.08792 13.8023 9.16402C13.771 9.24011 13.7249 9.30927 13.6667 9.3675L13.6642 9.365ZM15.4 11.105C15.3421 11.1631 15.2732 11.2091 15.1974 11.2405C15.1216 11.272 15.0404 11.2881 14.9584 11.2881C14.8763 11.2881 14.7951 11.272 14.7193 11.2405C14.6435 11.2091 14.5747 11.1631 14.5167 11.105L14.0692 10.655C13.9793 10.5682 13.9175 10.4563 13.892 10.3339C13.8665 10.2115 13.8783 10.0843 13.926 9.9687C13.9738 9.85314 14.0551 9.7546 14.1596 9.68588C14.264 9.61715 14.3867 9.58143 14.5117 9.58334C14.5945 9.58426 14.6764 9.6016 14.7525 9.63436C14.8286 9.66711 14.8974 9.71463 14.955 9.77417L15.4025 10.2233C15.4607 10.2812 15.5068 10.3501 15.5383 10.4259C15.5698 10.5017 15.586 10.5829 15.586 10.665C15.586 10.7471 15.5698 10.8283 15.5383 10.9041C15.5068 10.9799 15.4607 11.0488 15.4025 11.1067L15.4 11.105Z" />
</svg>
