<svg viewBox="0 0 18 18" xmlns="http://www.w3.org/2000/svg"><path d="m8.22619.062655c-.08472-.015539-.17182-.012322-.25515.009423-.08332.021744-.16083.061485-.22704.116407-.0662.054922-.11948.123681-.15605.201407-.03658.077726-.05556.162518-.0556.248368v1.68583c-.71134-.09406-1.43485-.02359-2.11445.20597-.6796.22955-1.29703.61201-1.80443 1.11773-.50739.50572-.89112 1.12111-1.12144 1.79847-.23031.67735-.30102 1.39848-.20665 2.10746h-1.691417c-.086135.00004-.171207.01896-.249191.05541-.077984.03646-.146971.08956-.202075.15554-.0551036.06599-.0949762.14324-.1167931.22629-.02181687.08306-.02504437.16987-.0094539.2543.232656 1.25984.806423 2.43234 1.65926 3.39064.85284.9584 1.9523 1.6661 3.1795 2.0467 1.2272.3807 2.53545.4197 3.78329.1129s2.3878-.9478 3.2966-1.8536 1.5519-2.042 1.8597-3.28569c.3078-1.24371.2687-2.54764-.1132-3.77078-.3819-1.22315-1.092-2.31898-2.0535-3.169s-2.1379-1.421887-3.40191-1.653775zm-1.28134 8.07663166c-.20543-.00058666-.40709-.05498666-.58476-.15776666-.17767-.10277-.3251-.25031-.42751-.4278h-1.33774c-.15581 0-.30524-.06169-.41542-.17151-.11018-.10981-.17208-.25875-.17208-.41405s.0619-.30424.17208-.41405c.11018-.10982.25961-.17151.41542-.17151h1.33774c.1024-.17542.24877-.32131.42477-.42336v-1.91888c0-.1553.06189-.30424.17207-.41405.11018-.10982.25961-.17151.41543-.17151.15581 0 .30525.06169.41542.17151.11018.10981.17208.25875.17208.41405v1.91888c.22409.12831.39933.32687.49841.56477.09909.23791.11647.50179.04943.75055-.06704.24877-.21474.46846-.42009.62486-.20534.1564-.45681.24073-.71525.23986666zm-1.19145-8.13928666c.11619 0 .22978.034342.32639.098685.09662.064342.17192.155794.21639.262791.04446.106997.0561.224734.03343.338324-.02267.11358-.07862.21792-.16079.29981-.08216.08189-.18684.13766-.30081.16026-.11396.02259-.23209.011-.33944-.03332s-.19911-.11938-.26366-.21567c-.06456-.0963-.09901-.20951-.09901-.32532 0-.1553.06189-.30424.17207-.414054.11018-.109813.25961-.171506.41543-.171506zm-2.40876 1.02824c.1162 0 .22979.03435.3264.09869s.17192.15579.21638.26279c.04447.107.0561.22473.03343.33832-.02266.11359-.07862.21792-.16078.29982-.08217.08189-.18685.13766-.30081.16025-.11397.02259-.23209.011-.33944-.03332-.10736-.04432-.19911-.11937-.26367-.21567-.06455-.09629-.09901117-.2095-.09901117-.32532-.00030883-.1552.06121117-.30417.17104117-.41419.10983-.11001.25899-.17207.4147-.17254zm-1.81714 1.7479c.1162 0 .22979.03434.3264.09868s.17192.1558.21638.26279c.04447.107.0561.22474.03343.33832-.02266.11359-.07862.21793-.16078.29982-.08217.08189-.18685.13766-.30081.16026-.11397.02259-.23209.01099-.33944-.03333-.10736-.04432-.19911-.11937-.26367-.21566-.064552-.0963-.099009-.20951-.099009-.32532 0-.1553.061899-.30424.172079-.41406.11017-.10981.25961-.1715.41542-.1715zm-.939999 2.44003c.116197 0 .229784.03434.326398.09868.096611.06434.171911.15579.216381.26279s.0561.22473.03343.33832-.07862.21793-.16078.29982c-.082167.08189-.186849.13766-.300813.16025-.113964.0226-.232091.011-.339443-.03332s-.199107-.11937-.2636623-.21567c-.0645554-.09629-.0990117-.2095-.0990117-.32532 0-.15509.0617356-.30386.171659-.41364.109924-.10978.259056-.1716.414667-.17191z" transform="translate(2 2)"/></svg>