<svg viewBox="0 0 16 17" xmlns="http://www.w3.org/2000/svg">
<path d="M8 9.5C8.13261 9.5 8.25978 9.44732 8.35355 9.35355C8.44732 9.25978 8.5 9.13261 8.5 9C8.5 8.86739 8.44732 8.74022 8.35355 8.64645C8.25978 8.55268 8.13261 8.5 8 8.5C7.86739 8.5 7.74022 8.55268 7.64645 8.64645C7.55268 8.74022 7.5 8.86739 7.5 9C7.5 9.13261 7.55268 9.25978 7.64645 9.35355C7.74022 9.44732 7.86739 9.5 8 9.5Z" />
<path d="M8.75 3.04667V2.75C8.75 2.55109 8.67098 2.36032 8.53033 2.21967C8.38968 2.07902 8.19891 2 8 2C7.80109 2 7.61032 2.07902 7.46967 2.21967C7.32902 2.36032 7.25 2.55109 7.25 2.75V3.04667C6.30281 3.16551 5.39795 3.5098 4.61134 4.05067L4.28134 3.71867C4.14042 3.57775 3.94929 3.49858 3.75 3.49858C3.55071 3.49858 3.35959 3.57775 3.21867 3.71867C3.07775 3.85959 2.99858 4.05071 2.99858 4.25C2.99858 4.44929 3.07775 4.64041 3.21867 4.78133L3.48734 5.05C2.52745 6.14183 1.99865 7.54622 2 9C2 12.3087 4.69134 15 8 15C11.3087 15 14 12.3087 14 9C14 5.94533 11.7053 3.41667 8.75 3.04667ZM8 10.5C7.64627 10.4999 7.30396 10.3747 7.03355 10.1467C6.76314 9.9186 6.58203 9.60231 6.52221 9.25367C6.46239 8.90503 6.52771 8.54646 6.70662 8.24131C6.88554 7.93616 7.16655 7.70405 7.5 7.586V5.25C7.5 5.11739 7.55268 4.99021 7.64645 4.89645C7.74022 4.80268 7.86739 4.75 8 4.75C8.13261 4.75 8.25979 4.80268 8.35356 4.89645C8.44732 4.99021 8.5 5.11739 8.5 5.25V7.586C8.83346 7.70405 9.11446 7.93616 9.29338 8.24131C9.4723 8.54646 9.53762 8.90503 9.47779 9.25367C9.41797 9.60231 9.23686 9.9186 8.96645 10.1467C8.69604 10.3747 8.35374 10.4999 8 10.5Z" />
</svg>
