<svg viewBox="0 0 18 19" xmlns="http://www.w3.org/2000/svg">
<path d="M15.1875 3.875H11.8125V3.03125C11.8125 2.84658 11.7761 2.66372 11.7055 2.4931C11.6348 2.32249 11.5312 2.16746 11.4006 2.03688C11.27 1.9063 11.115 1.80272 10.9444 1.73204C10.7738 1.66137 10.5909 1.625 10.4062 1.625H7.59375C7.22079 1.625 6.8631 1.77316 6.59938 2.03688C6.33566 2.3006 6.1875 2.65829 6.1875 3.03125V3.875H2.8125C2.66332 3.875 2.52024 3.93426 2.41475 4.03975C2.30926 4.14524 2.25 4.28832 2.25 4.4375C2.25 4.58668 2.30926 4.72976 2.41475 4.83525C2.52024 4.94074 2.66332 5 2.8125 5H3.41025L4.07775 15.7197C4.128 16.664 4.85175 17.375 5.76525 17.375H12.234C13.1528 17.375 13.8615 16.6798 13.9215 15.7228L14.5897 5H15.1875C15.3367 5 15.4798 4.94074 15.5852 4.83525C15.6907 4.72976 15.75 4.58668 15.75 4.4375C15.75 4.28832 15.6907 4.14524 15.5852 4.03975C15.4798 3.93426 15.3367 3.875 15.1875 3.875ZM6.77025 15.125H6.75C6.60426 15.1251 6.46417 15.0686 6.35924 14.9675C6.25432 14.8663 6.19275 14.7284 6.1875 14.5828L5.90625 6.70775C5.90088 6.55857 5.95499 6.41336 6.05668 6.30407C6.15837 6.19478 6.29932 6.13037 6.4485 6.125C6.59768 6.11963 6.74289 6.17374 6.85218 6.27543C6.96147 6.37713 7.02588 6.51807 7.03125 6.66725L7.3125 14.5422C7.31521 14.6161 7.30332 14.6898 7.27753 14.7591C7.25174 14.8284 7.21254 14.8919 7.16218 14.946C7.11181 15.0002 7.05128 15.0438 6.98403 15.0745C6.91678 15.1052 6.84413 15.1224 6.77025 15.125ZM9.5625 14.5625C9.5625 14.7117 9.50324 14.8548 9.39775 14.9602C9.29226 15.0657 9.14918 15.125 9 15.125C8.85082 15.125 8.70774 15.0657 8.60225 14.9602C8.49676 14.8548 8.4375 14.7117 8.4375 14.5625V6.6875C8.4375 6.53832 8.49676 6.39524 8.60225 6.28975C8.70774 6.18426 8.85082 6.125 9 6.125C9.14918 6.125 9.29226 6.18426 9.39775 6.28975C9.50324 6.39524 9.5625 6.53832 9.5625 6.6875V14.5625ZM10.6875 3.875H7.3125V3.03125C7.312 2.99418 7.31893 2.95738 7.33288 2.92303C7.34684 2.88868 7.36753 2.85747 7.39375 2.83125C7.41997 2.80503 7.45118 2.78434 7.48553 2.77038C7.51988 2.75643 7.55668 2.7495 7.59375 2.75H10.4062C10.4433 2.7496 10.48 2.7566 10.5144 2.77059C10.5487 2.78458 10.5798 2.80528 10.606 2.83148C10.6322 2.85768 10.6529 2.88884 10.6669 2.92315C10.6809 2.95745 10.6879 2.9942 10.6875 3.03125V3.875ZM11.8125 14.5828C11.8073 14.7284 11.7457 14.8663 11.6408 14.9675C11.5358 15.0686 11.3957 15.1251 11.25 15.125H11.2297C11.1559 15.1224 11.0832 15.1052 11.016 15.0745C10.9487 15.0438 10.8882 15.0002 10.8378 14.946C10.7875 14.8919 10.7483 14.8284 10.7225 14.7591C10.6967 14.6898 10.6848 14.6161 10.6875 14.5422L10.9688 6.66725C10.9714 6.59338 10.9886 6.52076 11.0193 6.45353C11.05 6.3863 11.0937 6.32579 11.1478 6.27543C11.2019 6.22508 11.2654 6.18588 11.3347 6.16007C11.404 6.13426 11.4776 6.12234 11.5515 6.125C11.6254 6.12766 11.698 6.14484 11.7652 6.17557C11.8324 6.20629 11.893 6.24996 11.9433 6.30407C11.9937 6.35818 12.0329 6.42169 12.0587 6.49095C12.0845 6.56021 12.0964 6.63388 12.0938 6.70775L11.8125 14.5828Z" />
</svg>
