<svg viewBox="0 0 18 18" xmlns="http://www.w3.org/2000/svg"><path d="m3.39157 12.1103c.40284 2.5202-3.755296 2.519-3.3517661 0zm11.98093-8.25348c-.1364-.38018-.3981-.71091-.748-.94549-.3498-.23457-.7702-.36113-1.2017-.36179h-2.4424v3.82431h5.2987zm-10.52877 8.25348c-.40285 2.5202 3.75529 2.519 3.35176 0zm2.70529-12.1103h-5.4902c-.54603 0-1.0697.201459-1.455805.56006-.386104.3586-.603015.84496-.603015 1.35209v8.92335h9.60784v-8.92335c0-.50713-.21691-.99349-.60301-1.35209-.38611-.358601-.90978-.56006-1.45581-.56006zm8.92158 7.64862h-5.4902v3.18688h5.4902zm-4.7641 4.46168c-.4029 2.5202 3.7553 2.519 3.3517 0z" transform="translate(.75 2)"/></svg>