<svg viewBox="0 0 26 26" xmlns="http://www.w3.org/2000/svg">
<path d="M13 0.8125C6.28 0.8125 0.8125 6.28 0.8125 13C0.8125 19.72 6.28 25.1875 13 25.1875C19.72 25.1875 25.1875 19.72 25.1875 13C25.1875 6.28 19.72 0.8125 13 0.8125ZM20.0312 11.485C20.0312 11.6189 19.978 11.7474 19.8833 11.8421C19.7886 11.9368 19.6602 11.99 19.5263 11.99H16.0375C15.9373 11.9905 15.8393 11.9612 15.7559 11.9057C15.6725 11.8502 15.6075 11.7711 15.5693 11.6786C15.531 11.586 15.5213 11.4841 15.5412 11.386C15.5612 11.2878 15.6099 11.1978 15.6813 11.1275L16.98 9.83L16.6512 9.4475C15.8781 8.6455 14.8644 8.11755 13.764 7.94375C12.6637 7.76995 11.5366 7.95977 10.5539 8.48442C9.57119 9.00908 8.78639 9.83994 8.31858 10.851C7.85076 11.862 7.72545 12.998 7.96166 14.0867C8.19787 15.1753 8.7827 16.1573 9.62745 16.8835C10.4722 17.6098 11.5308 18.0407 12.6425 18.1109C13.7543 18.1811 14.8587 17.8868 15.7881 17.2726C16.7175 16.6584 17.4212 15.7578 17.7925 14.7075C17.8331 14.591 17.8964 14.4837 17.9787 14.3918C18.061 14.2998 18.1607 14.2251 18.272 14.1719C18.3834 14.1187 18.5041 14.088 18.6273 14.0817C18.7506 14.0754 18.8738 14.0935 18.99 14.135C19.2245 14.2182 19.4164 14.391 19.5237 14.6154C19.631 14.8399 19.645 15.0978 19.5625 15.3325C19.2416 16.2352 18.7387 17.0624 18.085 17.7627C17.4313 18.4631 16.6407 19.0217 15.7622 19.4039C14.8837 19.7861 13.9361 19.9838 12.978 19.9847C12.02 19.9856 11.072 19.7897 10.1928 19.4091C9.31356 19.0285 8.5219 18.4714 7.86688 17.7723C7.21185 17.0731 6.70743 16.2469 6.38487 15.3448C6.06232 14.4427 5.92851 13.4839 5.99175 12.528C6.05499 11.572 6.31392 10.6393 6.7525 9.7875C7.34165 8.64826 8.23262 7.69289 9.32804 7.02581C10.4235 6.35872 11.6812 6.00559 12.9637 6.005C13.9103 6.00139 14.8475 6.19161 15.7178 6.56395C16.588 6.93629 17.3728 7.48286 18.0237 8.17L18.0562 8.2075L18.3088 8.5L19.17 7.63875C19.2392 7.56774 19.3282 7.51917 19.4254 7.49933C19.5226 7.4795 19.6235 7.48931 19.715 7.5275C19.8082 7.56536 19.888 7.63021 19.9442 7.71373C20.0003 7.79724 20.0302 7.89563 20.03 7.99625L20.0312 11.485Z" />
</svg>
