<svg viewBox="0 0 20 20" xmlns="http://www.w3.org/2000/svg"><path d="m9.99995022 0c-5.51411889 0-9.99995022 4.5004593-9.99995022 10.0326122.50249924 13.2915057 19.4999527 13.288195 20 0 0-5.5321529-4.4857915-10.0326122-10.00004978-10.0326122zm.88214978 14.1667v.8333c-.0042 1.09-1.66996 1.0892-1.67414 0v-.8333h-.22434c-.89317 0-1.72691-.4784-2.17475-1.2492-.23188-.3992-.09459-.9083.3047-1.1383.40096-.2325.91326-.0942 1.14346.3033.14984.2583.42775.4175.72575.4175h1.89852c.8346.0542 1.2079-1.2917.298-1.4667l-2.54558-.4225c-2.93148-.5408-2.30032-4.79413.5734-4.77747v-.83333c.00502-1.09 1.66998-1.08917 1.67418 0v.83333h.2243c.8932 0 1.7269.47917 2.1748 1.25.2319.39834.0946.9075-.3047 1.13834-.4018.23083-.9133.09416-1.1435-.30417-.1498-.2575-.4277-.41667-.7257-.41667h-1.89854c-.83458-.05416-1.20708 1.29167-.298 1.46667l2.54554.4225c2.9315.54083 2.3004 4.7942-.5734 4.7775z" /></svg>