<svg  viewBox="0 0 22 22"  xmlns="http://www.w3.org/2000/svg">
<rect width="22" height="22" rx="11" />
<path fill-rule="evenodd" clip-rule="evenodd" d="M16.0393 6.28564C15.1111 6.28564 7.02726 6.28564 6.0991 6.28564C5.6462 6.28564 5.21131 6.46205 4.89074 6.77532C4.57079 7.0892 4.39062 7.51501 4.39062 7.95846V14.0414C4.39062 14.4849 4.57079 14.9107 4.89074 15.2245C5.21131 15.5378 5.6462 15.7142 6.0991 15.7142H16.0393C16.4922 15.7142 16.9271 15.5378 17.2477 15.2245C17.5676 14.9107 17.7478 14.4849 17.7478 14.0414V7.95846C17.7478 7.51501 17.5676 7.0892 17.2477 6.77532C16.9271 6.46205 16.4922 6.28564 16.0393 6.28564ZM9.16751 11.166C9.61793 10.9385 9.92545 10.4786 9.92545 9.9494C9.92545 9.1939 9.29922 8.58074 8.52761 8.58074C7.75662 8.58074 7.12977 9.1939 7.12977 9.9494C7.12977 10.4786 7.43792 10.9385 7.88771 11.166C7.82186 11.1684 7.75725 11.1849 7.69823 11.2141C7.69823 11.2141 7.4112 11.3546 7.1658 11.4744C6.7974 11.6551 6.56504 12.0237 6.56504 12.4264V12.9629C6.56504 13.2153 6.77379 13.4191 7.03099 13.4191H10.1373C10.3945 13.4191 10.6032 13.2153 10.6032 12.9629V12.4465C10.6032 12.0255 10.3498 11.6441 9.95651 11.4732C9.6757 11.3515 9.33774 11.2049 9.33774 11.2049C9.28431 11.1818 9.22653 11.1684 9.16751 11.166ZM12.0011 12.5207H15.1074C15.3646 12.5207 15.5733 12.3163 15.5733 12.0644C15.5733 11.8126 15.3646 11.6082 15.1074 11.6082H12.0011C11.7439 11.6082 11.5351 11.8126 11.5351 12.0644C11.5351 12.3163 11.7439 12.5207 12.0011 12.5207ZM12.0011 10.3916H13.5542C13.8114 10.3916 14.0202 10.1872 14.0202 9.93541C14.0202 9.68358 13.8114 9.47919 13.5542 9.47919H12.0011C11.7439 9.47919 11.5351 9.68358 11.5351 9.93541C11.5351 10.1872 11.7439 10.3916 12.0011 10.3916Z" fill="white"/>
</svg>
