<svg viewBox="0 0 16 16" fill="none" xmlns="http://www.w3.org/2000/svg">
<path fill-rule="evenodd" clip-rule="evenodd" d="M4.63574 5.75768C4.63574 3.90013 6.14158 2.39429 7.99914 2.39429C9.85668 2.39429 11.3625 3.90013 11.3625 5.75768C11.3625 7.61523 9.85668 9.12108 7.99914 9.12108C6.14158 9.12108 4.63574 7.61523 4.63574 5.75768Z" fill="#4AA3EF"/>
<path fill-rule="evenodd" clip-rule="evenodd" d="M4.31729 10.7481C5.22817 10.3662 6.44316 10.2422 7.99968 10.2422C9.55301 10.2422 10.7661 10.3657 11.6762 10.7456C12.6531 11.1534 13.2526 11.8461 13.5723 12.8537C13.691 13.2282 13.4102 13.6056 13.0219 13.6056H2.97398C2.58732 13.6056 2.30814 13.2298 2.42592 12.8575C2.74459 11.8499 3.34205 11.1569 4.31729 10.7481Z" fill="#4AA3EF"/>
</svg>
