<svg viewBox="0 0 14 14" xmlns="http://www.w3.org/2000/svg">
<path d="M2.61088 2.84314H11.3609C11.463 2.84314 11.565 2.84956 11.6665 2.86239C11.6321 2.62121 11.5492 2.38948 11.4229 2.18118C11.2965 1.97289 11.1293 1.79233 10.9313 1.6504C10.7332 1.50847 10.5085 1.4081 10.2707 1.35533C10.0328 1.30257 9.78676 1.29851 9.5473 1.34339L2.3513 2.57189H2.34313C1.89146 2.65833 1.48981 2.91392 1.22021 3.28648C1.62634 2.99758 2.11248 2.8426 2.61088 2.84314Z" />
<path d="M11.3618 3.5H2.61182C2.14783 3.50046 1.70298 3.68499 1.37489 4.01307C1.0468 4.34116 0.86228 4.78601 0.861816 5.25V10.5C0.86228 10.964 1.0468 11.4088 1.37489 11.7369C1.70298 12.065 2.14783 12.2495 2.61182 12.25H11.3618C11.8258 12.2495 12.2707 12.065 12.5987 11.7369C12.9268 11.4088 13.1114 10.964 13.1118 10.5V5.25C13.1112 4.78606 12.9266 4.3413 12.5986 4.01324C12.2705 3.68519 11.8258 3.50062 11.3618 3.5ZM10.0627 8.75C9.83067 8.75 9.60811 8.65781 9.44401 8.49372C9.27992 8.32962 9.18773 8.10706 9.18773 7.875C9.18773 7.64294 9.27992 7.42038 9.44401 7.25628C9.60811 7.09219 9.83067 7 10.0627 7C10.2948 7 10.5174 7.09219 10.6815 7.25628C10.8455 7.42038 10.9377 7.64294 10.9377 7.875C10.9377 8.10706 10.8455 8.32962 10.6815 8.49372C10.5174 8.65781 10.2948 8.75 10.0627 8.75Z" />
<path d="M0.875 7.09541V4.37474C0.875 3.78208 1.20342 2.78866 2.34208 2.57341C3.30867 2.39258 4.26592 2.39258 4.26592 2.39258C4.26592 2.39258 4.89475 2.83008 4.375 2.83008C3.85583 2.83008 3.86925 3.49974 4.375 3.49974C4.88075 3.49974 4.375 4.14258 4.375 4.14258L2.338 6.45258L0.875 7.09599V7.09541Z" />
</svg>
