<svg viewBox="0 0 16 16" fill="none" xmlns="http://www.w3.org/2000/svg">
<path d="M15.8337 2.62562L13.3225 0.164106C13.0993 -0.0547021 12.7645 -0.0547021 12.5413 0.164106L10.8672 1.80511L14.1596 5.03239L15.8337 3.39139C15.9453 3.28198 16.0011 3.14524 16.0011 3.00849C16.0011 2.87174 15.9453 2.73499 15.8337 2.62562Z" fill="#162854" fill-opacity="0.4"/>
<path d="M0.0121096 15.1246L0.709638 11.8973C0.737532 11.7879 0.793354 11.7059 0.849143 11.6238L9.86138 2.76245L13.1538 6.01707L4.22527 14.769C4.16948 14.8237 4.05787 14.8784 3.97415 14.9058L0.70967 15.7536C0.291121 15.863 -0.0715746 15.5348 0.0121096 15.1246Z" fill="#162854" fill-opacity="0.4"/>
<path d="M12.7639 15.9993H7.09987C6.70925 15.9993 6.40234 15.6985 6.40234 15.3156C6.40234 14.9327 6.70925 14.6318 7.09987 14.6318H12.7639C13.1545 14.6318 13.4614 14.9327 13.4614 15.3156C13.4614 15.6985 13.1545 15.9993 12.7639 15.9993Z" fill="#162854" fill-opacity="0.4"/>
</svg>
