<svg  viewBox="0 0 20 20" xmlns="http://www.w3.org/2000/svg">
<path d="M10 0C4.47734 0 0 4.47734 0 10C0 15.5227 4.47734 20 10 20C15.5227 20 20 15.5227 20 10C20 4.47734 15.5227 0 10 0ZM14.7887 12.4453C15.0995 12.7561 15.2741 13.1776 15.2741 13.6172C15.2741 14.0567 15.0995 14.4783 14.7887 14.7891C14.4779 15.0999 14.0563 15.2745 13.6168 15.2745C13.1773 15.2745 12.7557 15.0999 12.4449 14.7891L10 12.3438L7.55469 14.7895C7.24389 15.1003 6.82235 15.2749 6.38281 15.2749C5.94327 15.2749 5.52174 15.1003 5.21094 14.7895C4.90014 14.4787 4.72553 14.0571 4.72553 13.6176C4.72553 13.178 4.90014 12.7565 5.21094 12.4457L7.65625 10L5.21055 7.55469C4.89975 7.24389 4.72514 6.82235 4.72514 6.38281C4.72514 5.94327 4.89975 5.52174 5.21055 5.21094C5.52135 4.90014 5.94288 4.72553 6.38242 4.72553C6.82196 4.72553 7.2435 4.90014 7.5543 5.21094L10 7.65625L12.4453 5.21055C12.5992 5.05665 12.7819 4.93458 12.983 4.85129C13.184 4.76801 13.3996 4.72514 13.6172 4.72514C13.8348 4.72514 14.0503 4.76801 14.2514 4.85129C14.4525 4.93458 14.6352 5.05665 14.7891 5.21055C14.943 5.36444 15.065 5.54714 15.1483 5.74821C15.2316 5.94928 15.2745 6.16478 15.2745 6.38242C15.2745 6.60006 15.2316 6.81557 15.1483 7.01664C15.065 7.21771 14.943 7.4004 14.7891 7.5543L12.3438 10L14.7887 12.4453Z" fill="#FF3C5F" />
</svg>
