<svg viewBox="0 0 97 26" fill="none" xmlns="http://www.w3.org/2000/svg">
<path d="M84.7907 17.9546C84.3888 18.2916 83.9371 18.5647 83.4515 18.764C83.0169 18.9329 82.5544 19.0191 82.088 19.0182C81.6137 19.0253 81.1436 18.9298 80.7099 18.7381C80.306 18.5585 79.9435 18.2978 79.6451 17.9724C79.3402 17.638 79.1047 17.2469 78.9519 16.8214C78.7847 16.3607 78.7012 15.8739 78.7052 15.3839C78.7034 14.6786 78.8627 13.9821 79.1711 13.3474C79.4779 12.711 79.8974 12.1352 80.4096 11.6476C80.9257 11.1576 81.5255 10.7634 82.1805 10.4837C82.8318 10.2004 83.5347 10.0543 84.2453 10.0547C85.0883 10.0547 85.7738 10.229 86.3019 10.5776C86.8129 10.9042 87.1887 11.4037 87.3602 11.9843L85.776 12.9297C85.6722 12.5205 85.4238 12.1623 85.0764 11.9212C84.711 11.6823 84.281 11.5608 83.8443 11.5732C83.4083 11.5714 82.9786 11.6765 82.5928 11.8791C82.2006 12.0838 81.8491 12.3581 81.5556 12.6885C81.2498 13.0288 81.0084 13.4215 80.843 13.8476C80.6707 14.277 80.5826 14.7353 80.5833 15.1977C80.5805 15.5065 80.6276 15.8137 80.7229 16.1075C80.8077 16.3752 80.9433 16.6241 81.1222 16.8408C81.2937 17.0483 81.5102 17.2144 81.7552 17.3265C82.018 17.446 82.3041 17.5057 82.5928 17.5013C83.4456 17.5013 84.3021 17.0988 85.1624 16.2937L85.3101 15.6704H83.5116L83.8054 14.4142H87.12L86.0811 18.9583H84.5634L84.7907 17.9546Z" fill="#8CC63F"/>
<path d="M91.4727 19.0116C90.9595 19.0216 90.4505 18.9176 89.9826 18.7073C89.5637 18.5169 89.1893 18.2412 88.8837 17.8979C88.5845 17.5557 88.3561 17.1579 88.2117 16.7275C88.0594 16.2824 87.9826 15.8152 87.9844 15.345C87.9867 14.6652 88.1438 13.9949 88.4438 13.3846C88.7495 12.7511 89.1668 12.1776 89.6758 11.6913C90.1966 11.1939 90.801 10.7917 91.4614 10.503C92.1204 10.2061 92.8354 10.0533 93.5586 10.0546C94.0704 10.0444 94.5777 10.1507 95.0422 10.3654C95.4567 10.5596 95.8248 10.84 96.1216 11.1878C96.4111 11.5341 96.6325 11.9317 96.7742 12.3598C96.9243 12.8053 97.0005 13.2723 96.9998 13.7423C96.9958 14.4152 96.8417 15.0788 96.5485 15.6849C96.2484 16.3188 95.8347 16.8926 95.3279 17.3782C94.8128 17.8711 94.2158 18.271 93.5634 18.56C92.907 18.8582 92.194 19.0123 91.4727 19.0116ZM91.8331 17.4932C92.3006 17.4984 92.7615 17.3824 93.1706 17.1564C93.5693 16.9375 93.9238 16.6466 94.216 16.2985C94.5071 15.952 94.7366 15.5583 94.8945 15.1345C95.0502 14.7309 95.1315 14.3026 95.1347 13.8702C95.1359 13.5736 95.0954 13.2783 95.0146 12.9928C94.9421 12.7284 94.818 12.4808 94.6494 12.2643C94.4817 12.055 94.27 11.8848 94.0293 11.7657C93.7596 11.6367 93.4632 11.5729 93.1641 11.5796C92.696 11.5734 92.2338 11.6847 91.8201 11.9033C91.4184 12.1186 91.0614 12.4081 90.7682 12.7565C90.4766 13.1029 90.2465 13.4965 90.0881 13.9204C89.9322 14.3284 89.8509 14.761 89.8479 15.1977C89.8464 15.4922 89.8868 15.7854 89.968 16.0686C90.044 16.3332 90.1708 16.5806 90.3413 16.7971C90.5088 17.0083 90.7204 17.1806 90.9614 17.3021C91.2325 17.4344 91.5314 17.4999 91.8331 17.4932Z" fill="#8CC63F"/>
<path d="M67.0705 17.3183C67.2921 16.7769 67.5911 16.2703 67.9584 15.8144C68.3791 15.2998 68.8628 14.8397 69.3982 14.4449C70.0786 13.9445 70.806 13.5108 71.57 13.1498C72.1295 12.8811 72.6971 12.6232 73.2728 12.376C73.8069 12.1511 74.3244 11.8888 74.8213 11.5909C75.2396 11.3447 75.6165 11.0344 75.9381 10.6714C76.222 10.3446 76.3756 9.92521 76.3699 9.49289C76.3659 9.26223 76.3149 9.0348 76.22 8.82441C76.1252 8.61402 75.9884 8.42507 75.818 8.26905C75.4501 7.90319 74.8819 7.72026 74.1136 7.72026C73.6862 7.71679 73.261 7.78127 72.854 7.91128C72.4782 8.03047 72.1159 8.18835 71.7729 8.38236C71.4649 8.55533 71.1723 8.75408 70.898 8.97648C70.6416 9.18693 70.4111 9.37309 70.226 9.53821L69.1936 8.10069C69.4397 7.90438 69.696 7.72119 69.9614 7.5519C70.3693 7.28807 70.7945 7.05173 71.234 6.84447C71.7742 6.58995 72.3365 6.38513 72.9141 6.23255C73.5632 6.05701 74.2332 5.96989 74.9058 5.97354C75.4635 5.96327 76.0192 6.04253 76.5517 6.20827C76.988 6.34882 77.3947 6.56833 77.7513 6.8558C78.0694 7.11224 78.3239 7.43857 78.4947 7.8093C78.6629 8.17942 78.7487 8.58147 78.7463 8.98781C78.7611 9.61344 78.5918 10.2297 78.2593 10.7604C77.9355 11.2648 77.5302 11.7123 77.0598 12.0846C76.5922 12.4562 76.0855 12.776 75.5485 13.0381C75.0075 13.3004 74.5313 13.5211 74.1201 13.7002C73.7522 13.8654 73.3404 14.0634 72.8848 14.2944C72.422 14.5306 71.9733 14.7933 71.5408 15.0811C71.1088 15.3639 70.7064 15.6893 70.3396 16.0524C69.995 16.3847 69.7193 16.7813 69.528 17.2196H77.1572L76.7497 19.0133H66.5234C66.6634 18.4355 66.8462 17.869 67.0705 17.3183Z" fill="#0A6BA9"/>
<path d="M45.7031 19.0121L48.6688 5.97401H54.3646C54.8269 5.96661 55.2845 6.06753 55.7005 6.26864C56.0819 6.45672 56.4218 6.71867 56.7005 7.03921C56.979 7.36321 57.1928 7.73743 57.3303 8.14163C57.4732 8.55518 57.5461 8.98956 57.5461 9.42699C57.5449 9.94617 57.4446 10.4604 57.2507 10.9422C57.0574 11.4331 56.7891 11.8913 56.4553 12.3004C56.1183 12.7152 55.7211 13.0775 55.2769 13.3753C54.8344 13.6796 54.339 13.8992 53.816 14.0229L55.8694 19.0121H53.8728L51.9493 14.3304H48.5324L47.4708 19.0121H45.7031ZM52.8128 12.8605C53.2043 12.8614 53.5896 12.7634 53.9329 12.5756C54.284 12.3875 54.5967 12.1355 54.8548 11.8326C55.1196 11.5229 55.3323 11.1725 55.4847 10.7949C55.6387 10.4187 55.7181 10.0163 55.7184 9.60992C55.7199 9.32585 55.6738 9.04353 55.5821 8.7746C55.4979 8.52567 55.3717 8.29297 55.2087 8.08659C55.0556 7.89459 54.8651 7.73545 54.6487 7.61875C54.4287 7.50115 54.1824 7.44101 53.9329 7.44391H50.1021L48.8652 12.8605H52.8128Z" fill="#0A6BA9"/>
<path d="M60.4143 14.5993L58.072 10.1523H59.7423L61.4126 13.4111L61.484 13.683L61.7031 13.4111L64.8425 10.1523H66.5306L62.1739 14.5993L64.534 19.0122H62.8491L61.1788 15.7746L61.0701 15.5188L60.8704 15.7746L57.7311 19.0122H56.043L60.4143 14.5993Z" fill="#0A6BA9"/>
<path d="M46.2178 21.0312H47.5683L47.518 21.2708H46.437L46.2893 21.9588H47.2291L47.1804 22.1839H46.2406L46.0782 22.9172H47.1869L47.1349 23.1568H45.7568L46.2178 21.0312Z" fill="#0A6BA9"/>
<path d="M49.7487 22.1094L49.2147 21.0312H49.515L49.9321 21.9168L50.7243 21.0312H51.0213L50.0344 22.1094L50.5441 23.1568H50.2535L49.8542 22.3004L49.0913 23.1568H48.791L49.7487 22.1094Z" fill="#0A6BA9"/>
<path d="M52.7924 21.0314H53.6397C53.7108 21.0296 53.7811 21.0458 53.8443 21.0783C53.903 21.1099 53.9549 21.1528 53.9968 21.2046C54.04 21.2578 54.0726 21.3188 54.0926 21.3843C54.1152 21.4516 54.1267 21.5221 54.1267 21.5931C54.1259 21.6923 54.105 21.7904 54.065 21.8813C54.0248 21.975 53.97 22.0619 53.9027 22.1387C53.834 22.2143 53.752 22.2769 53.6608 22.3232C53.5699 22.3696 53.4691 22.3935 53.367 22.3928H52.7746L52.6122 23.1569H52.3428L52.7924 21.0314ZM53.3995 22.1532C53.4596 22.1531 53.5187 22.1381 53.5716 22.1095C53.6267 22.0788 53.6756 22.0382 53.716 21.9897C53.7576 21.9376 53.7904 21.8791 53.8134 21.8165C53.8373 21.7528 53.8494 21.6854 53.8491 21.6174C53.853 21.5278 53.8255 21.4396 53.7712 21.3681C53.7478 21.3372 53.7173 21.3122 53.6823 21.2953C53.6473 21.2784 53.6088 21.2701 53.5699 21.271H53.0115L52.8232 22.1532H53.3995Z" fill="#0A6BA9"/>
<path d="M55.6475 23.1569L56.1003 21.0314H56.9704C57.0414 21.0296 57.1118 21.0458 57.1749 21.0783C57.2342 21.1098 57.2866 21.1528 57.3291 21.2046C57.3717 21.2582 57.4042 21.3191 57.4249 21.3843C57.4462 21.4519 57.4571 21.5223 57.4574 21.5931C57.4575 21.6778 57.4421 21.7617 57.4119 21.8408C57.3833 21.9203 57.3428 21.9951 57.2918 22.0626C57.2398 22.1292 57.1786 22.1881 57.11 22.2374C57.0436 22.2869 56.968 22.3227 56.8876 22.3426L57.2025 23.1521H56.8957L56.6019 22.3977H56.0792L55.9169 23.1618L55.6475 23.1569ZM56.7334 22.1532C56.7937 22.1534 56.8531 22.1377 56.9055 22.1079C56.9597 22.0766 57.0076 22.0354 57.0467 21.9865C57.0861 21.9373 57.1183 21.8828 57.1424 21.8246C57.1663 21.7632 57.1784 21.6978 57.1782 21.632C57.1788 21.5858 57.1717 21.5398 57.1571 21.496C57.1444 21.4554 57.1252 21.4171 57.1002 21.3827C57.0768 21.352 57.0476 21.3261 57.0142 21.3066C56.9811 21.2877 56.9435 21.2782 56.9055 21.2791H56.3195L56.1296 22.1613L56.7334 22.1532Z" fill="#0A6BA9"/>
<path d="M59.5023 21.0312H60.8545L60.8025 21.2708H59.7215L59.5738 21.9588H60.5152L60.4665 22.1839H59.5267L59.3644 22.9172H60.4714L60.4211 23.1568H59.043L59.5023 21.0312Z" fill="#0A6BA9"/>
<path d="M62.9582 23.1777C62.8124 23.1792 62.6676 23.1534 62.5313 23.1016C62.4068 23.0527 62.294 22.9782 62.2002 22.883L62.3787 22.6548C62.404 22.6934 62.4352 22.7278 62.4713 22.7568C62.5154 22.7934 62.5639 22.8244 62.6157 22.849C62.6751 22.8767 62.7371 22.8984 62.8008 22.9138C62.8724 22.9317 62.9461 22.9404 63.0199 22.9397C63.1551 22.9478 63.2893 22.9127 63.403 22.8393C63.4481 22.8082 63.4845 22.7662 63.509 22.7172C63.5334 22.6682 63.5449 22.6139 63.5426 22.5593C63.5435 22.5153 63.5317 22.472 63.5085 22.4346C63.4824 22.3972 63.4486 22.3658 63.4095 22.3423C63.3588 22.3119 63.3042 22.2884 63.2472 22.2727C63.1855 22.2517 63.1157 22.2306 63.0362 22.2096C62.9619 22.1892 62.8887 22.1649 62.817 22.1367C62.759 22.1142 62.7043 22.0837 62.6547 22.0461C62.6129 22.0126 62.5786 21.9706 62.5541 21.9231C62.5309 21.8723 62.5192 21.817 62.52 21.7612C62.5181 21.6575 62.5405 21.5549 62.5853 21.4613C62.6301 21.3677 62.6961 21.2858 62.7781 21.2221C62.8622 21.1572 62.9573 21.1078 63.0589 21.0764C63.1691 21.0417 63.2841 21.0242 63.3998 21.0246C63.5221 21.0221 63.6437 21.0447 63.7569 21.091C63.8543 21.1321 63.9426 21.1921 64.0166 21.2674L63.8445 21.486C63.8254 21.4552 63.8013 21.4278 63.7731 21.405C63.7376 21.3773 63.6989 21.3539 63.6578 21.3354C63.6116 21.3133 63.5632 21.296 63.5134 21.2836C63.4576 21.2704 63.4003 21.2639 63.3429 21.2642C63.1999 21.2519 63.0575 21.2935 62.9436 21.3807C62.9026 21.418 62.8701 21.4635 62.8483 21.5144C62.8265 21.5652 62.8158 21.6201 62.817 21.6754C62.8159 21.7146 62.826 21.7534 62.8462 21.7871C62.8679 21.8207 62.8974 21.8484 62.9323 21.868C62.977 21.894 63.0243 21.9152 63.0735 21.9312C63.1385 21.953 63.2046 21.9713 63.2715 21.9862C63.357 22.0089 63.4349 22.0331 63.5053 22.059C63.5694 22.083 63.6295 22.1162 63.6838 22.1578C63.7315 22.1934 63.7703 22.2393 63.7974 22.2922C63.8262 22.3505 63.8401 22.415 63.838 22.4799C63.8409 22.5887 63.8169 22.6966 63.7682 22.794C63.7226 22.8814 63.657 22.9568 63.5767 23.0142C63.4921 23.0736 63.3976 23.1174 63.2975 23.1437C63.1865 23.1702 63.0723 23.1816 62.9582 23.1777Z" fill="#0A6BA9"/>
<path d="M66.2258 23.1779C66.08 23.1795 65.9352 23.1536 65.7989 23.1018C65.6726 23.0535 65.5581 22.979 65.4629 22.8832L65.6398 22.655C65.6662 22.6933 65.6979 22.7276 65.734 22.757C65.7778 22.794 65.8264 22.825 65.8784 22.8493C65.9377 22.8771 65.9997 22.8988 66.0635 22.914C66.1351 22.9319 66.2088 22.9407 66.2826 22.9399C66.4178 22.9481 66.552 22.9129 66.6657 22.8395C66.7108 22.8084 66.7472 22.7664 66.7717 22.7174C66.7961 22.6685 66.8076 22.6141 66.8053 22.5595C66.8062 22.5155 66.7944 22.4722 66.7712 22.4348C66.7447 22.3978 66.7111 22.3664 66.6722 22.3426C66.6214 22.3124 66.5668 22.289 66.5099 22.2729C66.4466 22.2519 66.3768 22.2309 66.2989 22.2098C66.2246 22.1894 66.1514 22.1651 66.0797 22.137C66.0215 22.1147 65.9669 22.0841 65.9174 22.0463C65.8756 22.0128 65.8413 21.9709 65.8168 21.9233C65.7936 21.8725 65.7819 21.8172 65.7827 21.7614C65.7808 21.6577 65.8032 21.5551 65.848 21.4615C65.8928 21.368 65.9588 21.2861 66.0408 21.2223C66.1246 21.157 66.2198 21.1077 66.3216 21.0766C66.4318 21.0419 66.5468 21.0244 66.6625 21.0248C66.7848 21.0225 66.9063 21.0451 67.0196 21.0912C67.1167 21.1319 67.2045 21.192 67.2777 21.2676L67.1153 21.4862C67.0961 21.455 67.0713 21.4276 67.0423 21.4052C67.0074 21.3775 66.9693 21.3541 66.9287 21.3356C66.8824 21.3135 66.834 21.2962 66.7842 21.2838C66.7284 21.2706 66.6711 21.2641 66.6138 21.2644C66.4707 21.2522 66.3283 21.2937 66.2144 21.381C66.1735 21.4182 66.1409 21.4638 66.1191 21.5146C66.0973 21.5654 66.0866 21.6203 66.0878 21.6756C66.0867 21.7148 66.0968 21.7536 66.1171 21.7873C66.1382 21.8212 66.1679 21.8491 66.2031 21.8682C66.2473 21.8939 66.2941 21.9151 66.3427 21.9314C66.3995 21.9508 66.466 21.9686 66.5423 21.9864C66.6186 22.0042 66.7047 22.0334 66.7761 22.0593C66.8402 22.0832 66.9003 22.1165 66.9546 22.158C67.0023 22.1936 67.0411 22.2395 67.0683 22.2924C67.097 22.3507 67.1109 22.4152 67.1088 22.4802C67.1117 22.589 67.0877 22.6968 67.039 22.7942C66.9934 22.8816 66.9278 22.957 66.8475 23.0144C66.7629 23.0738 66.6684 23.1176 66.5683 23.1439C66.4562 23.1707 66.341 23.1821 66.2258 23.1779Z" fill="#0A6BA9"/>
<path d="M71.5226 21.0314H72.2287C72.3484 21.029 72.4675 21.0499 72.5793 21.093C72.6734 21.1317 72.7572 21.1915 72.8244 21.2678C72.8898 21.3437 72.9385 21.4325 72.9672 21.5284C73.0008 21.633 73.0172 21.7424 73.0159 21.8522C73.0176 22.0302 72.9863 22.2069 72.9234 22.3735C72.864 22.5268 72.7758 22.6674 72.6637 22.7879C72.5516 22.9042 72.4176 22.9972 72.2692 23.0615C72.1155 23.1277 71.9497 23.1613 71.7823 23.1602H71.0762L71.5226 21.0314ZM71.8261 22.9174C71.9576 22.9196 72.0878 22.8908 72.2059 22.8332C72.3158 22.7788 72.4131 22.7022 72.4916 22.6082C72.5717 22.5123 72.6333 22.4026 72.6734 22.2844C72.7158 22.1593 72.7372 22.028 72.7367 21.8959C72.7379 21.8115 72.7259 21.7273 72.701 21.6466C72.6788 21.5752 72.643 21.5087 72.5955 21.4507C72.5486 21.3945 72.4891 21.3502 72.4218 21.3212C72.3447 21.2895 72.2618 21.2741 72.1783 21.2759H71.7433L71.3911 22.9222L71.8261 22.9174Z" fill="#0A6BA9"/>
<path d="M75.1029 21.0312H76.4535L76.4031 21.2644H75.3221L75.1744 21.9524H76.1142L76.0671 22.1774H75.1273L74.965 22.9107H76.0736L76.0217 23.1503H74.6436L75.1029 21.0312Z" fill="#0A6BA9"/>
<path d="M78.3461 21.0312H78.6156L78.213 22.9172H79.333L79.2827 23.1568H77.8916L78.3461 21.0312Z" fill="#0A6BA9"/>
<path d="M81.5268 21.033H81.7962L81.3433 23.1569H81.0723L81.5268 21.033Z" fill="#0A6BA9"/>
<path d="M83.5742 21.0312H83.8583L84.1342 22.812L85.1715 21.0312H85.4555L84.1797 23.1568H83.9508L83.5742 21.0312Z" fill="#0A6BA9"/>
<path d="M87.2559 21.0312H88.6064L88.5561 21.2708H87.4751L87.3273 21.9588H88.2672L88.2185 22.1839H87.2786L87.1163 22.9172H88.225L88.173 23.1568H86.7949L87.2559 21.0312Z" fill="#0A6BA9"/>
<path d="M90.0439 23.1569L90.4985 21.0314H91.3685C91.4396 21.0296 91.5099 21.0458 91.573 21.0783C91.6318 21.1099 91.6837 21.1528 91.7256 21.2046C91.7688 21.2578 91.8013 21.3188 91.8214 21.3843C91.844 21.4516 91.8555 21.5221 91.8555 21.5931C91.8548 21.6777 91.8395 21.7615 91.81 21.8408C91.7815 21.9207 91.7404 21.9956 91.6883 22.0626C91.6373 22.1295 91.5766 22.1885 91.5081 22.2374C91.4413 22.2872 91.3651 22.323 91.2841 22.3426L91.6087 23.1521H91.3019L91 22.3977H90.4774L90.315 23.1618L90.0439 23.1569ZM91.1315 22.1532C91.1886 22.1521 91.2445 22.1365 91.2938 22.1079C91.3487 22.0774 91.3967 22.0361 91.435 21.9865C91.4755 21.9377 91.5083 21.8832 91.5324 21.8246C91.5555 21.763 91.5676 21.6978 91.5682 21.632C91.568 21.5858 91.5609 21.54 91.547 21.496C91.5337 21.4557 91.5146 21.4175 91.4902 21.3827C91.4663 21.3524 91.4372 21.3266 91.4042 21.3066C91.3706 21.2877 91.3324 21.2781 91.2938 21.2791H90.7095L90.5195 22.1613L91.1315 22.1532Z" fill="#0A6BA9"/>
<path d="M94.1325 22.3749L93.6553 21.0312H93.9523L94.3192 22.1385L95.1632 21.0312H95.457L94.4003 22.3814L94.238 23.1568H93.9669L94.1325 22.3749Z" fill="#0A6BA9"/>
<path d="M29.1523 9.26058C29.4559 9.28811 29.7627 9.30429 30.0727 9.30429C32.5858 9.30406 35.0075 8.3645 36.86 6.671C38.7126 4.97749 39.8614 2.65304 40.0799 0.15626C39.5854 0.0782917 39.0855 0.0387817 38.5849 0.0380859C36.1151 0.0380275 33.7437 1.00389 31.9801 2.72824C30.2165 4.4526 29.2012 6.79794 29.1523 9.26058Z" fill="#8CC63F"/>
<path d="M25.4014 5.5293H25.5637C26.311 5.5293 27.0278 5.82538 27.5563 6.35241C28.0847 6.87944 28.3816 7.59426 28.3816 8.33959V9.26557H28.2193C27.4719 9.26557 26.7552 8.96948 26.2267 8.44245C25.6983 7.91542 25.4014 7.2006 25.4014 6.45527V5.5293Z" fill="#8CC63F"/>
<path d="M41.91 8.36869C41.1178 9.26552 34.4789 10.5153 27.7133 10.4942C17.1867 10.4618 11.6044 8.65037 10.8756 8.38973V8.3606H0L11.0817 10.7419C11.2241 11.5919 11.4094 12.4342 11.6369 13.2657H3.43961L12.2959 15.2083C12.6286 16.0619 13.0906 16.8595 13.6659 17.5734L13.8964 17.8453H7.1227L15.4563 19.6261C16.3329 20.5763 17.185 21.3469 18.0729 21.7305C18.0729 21.8083 18.0616 21.8924 18.0616 21.9653C18.0528 22.7595 18.3587 23.5251 18.9128 24.0956C19.4668 24.6661 20.2243 24.9955 21.0205 25.0121C21.8168 25.0288 22.5874 24.7313 23.165 24.1844C23.7425 23.6375 24.0803 22.8854 24.1048 22.0915C25.6015 22.0915 27.2263 22.0737 28.7326 22.0559C28.7585 22.8462 29.0946 23.5947 29.6684 24.1402C30.2422 24.6858 31.0078 24.9849 31.8006 24.973C32.5933 24.9611 33.3496 24.6392 33.9067 24.0767C34.4638 23.5142 34.7771 22.7559 34.7791 21.9653C34.7791 21.9232 34.7791 21.8811 34.7791 21.839C35.8716 21.3194 38.3502 19.2149 39.7722 16.6587C42.3969 11.9188 41.91 8.36869 41.91 8.36869Z" fill="#0A6BA9"/>
<path d="M17.9869 0.507249C17.823 0.345247 17.6286 0.217066 17.4149 0.130033C17.2013 0.0429992 16.9725 -0.00117885 16.7417 2.39144e-05C16.5109 0.00122668 16.2826 0.0477873 16.0698 0.137043C15.8571 0.226298 15.664 0.356498 15.5018 0.5202L13.2796 2.76229C12.9908 3.05739 12.8157 3.44462 12.7851 3.85581C12.7545 4.26699 12.8703 4.67578 13.1121 5.0102C13.354 5.34462 13.7063 5.58323 14.1072 5.68403C14.5081 5.78483 14.9318 5.74135 15.3038 5.56125L18.3879 9.0466C21.0043 9.3973 23.6388 9.59729 26.2784 9.64557L18.3733 2.4369C18.5103 2.1137 18.5467 1.75689 18.4778 1.41279C18.4089 1.06869 18.2379 0.753189 17.9869 0.507249Z" fill="#0A6BA9"/>
</svg>
