<svg viewBox="0 0 45 20" fill="none" xmlns="http://www.w3.org/2000/svg">
<g clip-path="url(#clip0_19_17555)">
<rect width="45" height="20" rx="10" fill="#330000"/>
<g clip-path="url(#clip1_19_17555)">
<path d="M10.7477 22.1836C7.9196 20.0516 6.42578 16.9827 6.42578 13.3173V-4.10601C10.8917 -6.28585 16.2993 -7.39062 22.4993 -7.39062C28.6992 -7.39062 34.1074 -6.28585 38.5728 -4.10601V13.3173C38.5728 16.9827 37.0789 20.0494 34.2508 22.1836C31.6636 24.1362 23.4428 27.4577 22.4987 27.8357C21.5558 27.4577 13.335 24.1367 10.7477 22.1836Z" fill="#330000"/>
<path d="M37.6936 -4.31119C35.6274 -4.4878 33.4811 -4.60444 31.2947 -4.60444C23.1863 -4.60444 14.4934 -2.99954 7.30697 3.06957V13.4433C7.30697 16.822 6.53735 25.4209 9.11568 27.3559C11.3923 29.0615 20.5249 26.2055 22.5003 27.0082C24.4506 26.2176 35.2414 27.5338 37.558 25.7776C40.1525 23.809 37.6936 16.854 37.6936 13.4433V-4.31119ZM8.79242 12.3639V3.93887H11.7018V12.4827C11.7018 13.2431 11.9014 14.3688 13.2356 14.3688C13.7192 14.3868 14.1976 14.2718 14.6099 14.0387V3.93887H17.5157V15.5665C16.2034 16.3207 14.6758 16.6955 13.1299 16.6427C10.2498 16.6427 8.78943 15.2034 8.78943 12.3639M21.9243 22.0884H19.0131V4.6211C20.1907 3.95513 21.5554 3.62349 22.9365 3.66763C26.4111 3.66763 28.3202 6.09505 28.3202 10.0019C28.3202 13.9088 26.4679 16.5965 23.2353 16.5965C22.7928 16.6038 22.3515 16.5525 21.9249 16.4441L21.9243 22.0884ZM21.9243 14.2538C22.2265 14.358 22.5462 14.4128 22.869 14.4155C24.542 14.4155 25.3439 12.9999 25.3439 10.069C25.3439 7.06668 24.6442 5.82491 22.9538 5.82491C22.5992 5.82221 22.2478 5.888 21.9225 6.01802L21.9243 14.2538ZM28.9799 7.16076C28.9981 6.2217 29.419 5.32739 30.1506 4.67298C30.8823 4.01856 31.8654 3.65716 32.8853 3.66763C34.027 3.6119 35.1548 3.9192 36.0797 4.53802V6.86916C35.3942 6.21058 34.462 5.81713 33.4727 5.76879C32.6475 5.76219 31.7889 6.09615 31.7608 7.04908C31.7327 8.02456 32.5896 8.40969 33.6729 8.99619C36.1042 10.3122 36.5745 11.4951 36.5183 13.0582C36.4627 14.7721 35.1798 16.6438 32.3039 16.6438C31.1762 16.6321 30.072 16.3451 29.1042 15.8119V13.3432C29.873 13.9829 30.8526 14.3668 31.8863 14.4337C32.954 14.4386 33.6567 13.8752 33.6316 12.9405C33.6095 12.0992 33.0939 11.642 31.8134 10.9494C29.4131 9.65311 28.9817 8.5863 28.9775 7.16076M11.7018 29.6664C8.75657 27.4453 5.76953 17.2583 5.76953 13.4433V-4.69247C10.4177 -6.96144 16.047 -8.11133 22.5003 -8.11133C28.9536 -8.11133 34.5829 -6.96144 39.2311 -4.69247V13.4433C39.2311 17.2583 40.5032 23.5559 37.558 25.7776C34.8655 27.8099 23.4826 28.1609 22.5003 28.5542C21.518 28.1609 14.3942 31.6994 11.7018 29.6664ZM33.1799 26.4723V28.0464H33.4882V27.3895H33.5319C33.5552 27.4214 33.9961 28.0464 33.9961 28.0464H34.3696C34.3696 28.0464 33.9011 27.4153 33.8533 27.3559C33.9601 27.3391 34.0569 27.2878 34.1263 27.2112C34.1956 27.1345 34.233 27.0375 34.2316 26.9378C34.233 26.8713 34.2187 26.8053 34.1897 26.7444C34.1606 26.6836 34.1176 26.6292 34.0634 26.5852C34.0093 26.5412 33.9454 26.5085 33.8762 26.4895C33.807 26.4705 33.7342 26.4656 33.6627 26.4751L33.1799 26.4723ZM33.6292 26.7023C33.8916 26.7023 33.928 26.8206 33.928 26.9224C33.928 27.0698 33.8593 27.1694 33.5289 27.1694H33.4888V26.7012L33.6292 26.7023ZM34.8363 27.2635C34.8358 27.4741 34.7675 27.6799 34.6401 27.8549C34.5127 28.0298 34.3319 28.1661 34.1204 28.2464C33.9089 28.3268 33.6763 28.3476 33.452 28.3063C33.2277 28.2651 33.0217 28.1635 32.86 28.0145C32.6983 27.8655 32.5882 27.6757 32.5436 27.4691C32.499 27.2625 32.5219 27.0483 32.6094 26.8537C32.6969 26.6591 32.8451 26.4927 33.0352 26.3756C33.2253 26.2584 33.4489 26.1958 33.6777 26.1956C33.8299 26.1954 33.9808 26.223 34.1215 26.2766C34.2622 26.3302 34.39 26.4089 34.4977 26.5081C34.6053 26.6073 34.6906 26.7251 34.7487 26.8547C34.8068 26.9844 34.8366 27.1233 34.8363 27.2635ZM33.6741 25.9678C33.3964 25.9681 33.1251 26.0442 32.8943 26.1864C32.6636 26.3287 32.4838 26.5307 32.3777 26.7669C32.2716 27.0032 32.2439 27.2631 32.2981 27.5138C32.3523 27.7646 32.486 27.9949 32.6823 28.1757C32.8786 28.3566 33.1287 28.4798 33.401 28.5298C33.6733 28.5798 33.9556 28.5544 34.2122 28.4568C34.4688 28.3592 34.6883 28.1937 34.8429 27.9813C34.9974 27.769 35.0802 27.5192 35.0806 27.2635C35.0802 26.9201 34.9318 26.5909 34.6682 26.348C34.4045 26.1051 34.047 25.9684 33.6741 25.9678Z" fill="#FFBE00"/>
</g>
</g>
<defs>
<clipPath id="clip0_19_17555">
<rect width="45" height="20" rx="10" fill="white"/>
</clipPath>
<clipPath id="clip1_19_17555">
<rect width="29" height="20" fill="white" transform="translate(8 3)"/>
</clipPath>
</defs>
</svg>
